STARTFONT 2.3
FONT -FontForge-Rajdhani-Book-R-Normal--16-160-72-72-P-98-ISO10646-1
SIZE 16 72 72  4
FONTBOUNDINGBOX 40 19 -7 -5
COMMENT "Generated by fontforge, http://fontforge.sourceforge.net"
COMMENT "Copyright (c) 2014 Indian Type Foundry (info@indiantypefoundry.com)"
STARTPROPERTIES 41
FOUNDRY "FontForge"
FAMILY_NAME "Rajdhani"
WEIGHT_NAME "Book"
SLANT "R"
SETWIDTH_NAME "Normal"
ADD_STYLE_NAME ""
PIXEL_SIZE 16
POINT_SIZE 160
RESOLUTION_X 72
RESOLUTION_Y 72
SPACING "P"
AVERAGE_WIDTH 98
CHARSET_REGISTRY "ISO10646"
CHARSET_ENCODING "1"
FONTNAME_REGISTRY ""
CHARSET_COLLECTIONS "ISO8859-2 ISO8859-9 ISO8859-4 ISO10646-1"
BITS_PER_PIXEL 4
FONT_NAME "Rajdhani-Regular"
FACE_NAME "Rajdhani Regular"
COPYRIGHT "Copyright (c) 2014 Indian Type Foundry (info@indiantypefoundry.com)"
FONT_VERSION "1.201;PS 1.0;hotconv 1.0.78;makeotf.lib2.5.61930; ttfautohint (v1.1) -l 7 -r 28 -G 50 -x 13 -D latn -f deva -w G"
FONT_ASCENT 13
FONT_DESCENT 3
UNDERLINE_POSITION -2
UNDERLINE_THICKNESS 1
X_HEIGHT 7
CAP_HEIGHT 9
DEFAULT_CHAR 3
RAW_ASCENT 800
RAW_DESCENT 200
NORM_SPACE 4
RELATIVE_WEIGHT 40
RELATIVE_SETWIDTH 50
SUPERSCRIPT_X 0
SUPERSCRIPT_Y 5
SUPERSCRIPT_SIZE 9
SUBSCRIPT_X 0
SUBSCRIPT_Y 1
SUBSCRIPT_SIZE 9
AVG_LOWERCASE_WIDTH 71
AVG_UPPERCASE_WIDTH 84
ENDPROPERTIES
CHARS 1043
STARTCHAR NULL.dup1
ENCODING 0
SWIDTH 0 0
DWIDTH 0 0
BBX 1 1 0 0
BITMAP
00
ENDCHAR
STARTCHAR CR
ENCODING 13
SWIDTH 0 0
DWIDTH 0 0
BBX 1 1 0 0
BITMAP
00
ENDCHAR
STARTCHAR space
ENCODING 32
SWIDTH 267 0
DWIDTH 4 0
BBX 1 1 0 0
BITMAP
00
ENDCHAR
STARTCHAR exclam
ENCODING 33
SWIDTH 237 0
DWIDTH 4 0
BBX 2 10 1 0
BITMAP
85
86
85
85
84
74
63
11
85
84
ENDCHAR
STARTCHAR quotedbl
ENCODING 34
SWIDTH 330 0
DWIDTH 5 0
BBX 4 3 1 7
BITMAP
B083
A073
7061
ENDCHAR
STARTCHAR numbersign
ENCODING 35
SWIDTH 677 0
DWIDTH 11 0
BBX 10 10 0 0
BITMAP
00008200A0
0000B00290
00ABDAADC9
0007400A00
000A100B00
000B003800
0028006500
1BDCBBECA0
00A100A000
0190045000
ENDCHAR
STARTCHAR dollar
ENCODING 36
SWIDTH 504 0
DWIDTH 8 0
BBX 6 14 1 -2
BITMAP
001400
002900
3CBBC4
C1001C
C00006
C20000
3BBBB3
00003C
10000C
C0000C
B2002B
3BBBC3
002900
001400
ENDCHAR
STARTCHAR percent
ENCODING 37
SWIDTH 717 0
DWIDTH 11 0
BBX 11 10 0 0
BITMAP
09BC50081000
2800A0190000
3700A0730000
2901A0A00000
07BB46400000
00000A089920
000046460290
0000A16400A0
000380560190
0008101BBC30
ENDCHAR
STARTCHAR ampersand
ENCODING 38
SWIDTH 597 0
DWIDTH 10 0
BBX 8 10 1 0
BITMAP
04CBC500
0C201D00
0C000900
09300000
3CD20000
B33ECBB7
C005B000
C0007900
A2001E60
2BBBC3A4
ENDCHAR
STARTCHAR quotesingle
ENCODING 39
SWIDTH 186 0
DWIDTH 3 0
BBX 1 3 1 7
BITMAP
B0
A0
70
ENDCHAR
STARTCHAR parenleft
ENCODING 40
SWIDTH 283 0
DWIDTH 5 0
BBX 4 12 0 -2
BITMAP
04B5
0C10
1A00
2900
2900
2900
2900
2900
2900
1A00
0C10
03B5
ENDCHAR
STARTCHAR parenright
ENCODING 41
SWIDTH 283 0
DWIDTH 5 0
BBX 4 12 0 -2
BITMAP
1B80
0084
0047
0047
0047
0047
0047
0047
0047
0046
0093
1B60
ENDCHAR
STARTCHAR asterisk
ENCODING 42
SWIDTH 406 0
DWIDTH 7 0
BBX 5 4 1 6
BITMAP
018000
857930
057100
293800
ENDCHAR
STARTCHAR plus
ENCODING 43
SWIDTH 523 0
DWIDTH 8 0
BBX 7 6 1 2
BITMAP
00380000
00380000
9BCDBB20
00380000
00380000
00280000
ENDCHAR
STARTCHAR comma
ENCODING 44
SWIDTH 191 0
DWIDTH 3 0
BBX 1 4 1 -2
BITMAP
D0
D0
A0
50
ENDCHAR
STARTCHAR hyphen
ENCODING 45
SWIDTH 312 0
DWIDTH 5 0
BBX 5 1 0 5
BITMAP
4BBB30
ENDCHAR
STARTCHAR period
ENCODING 46
SWIDTH 191 0
DWIDTH 3 0
BBX 1 3 1 0
BITMAP
20
D0
D0
ENDCHAR
STARTCHAR slash
ENCODING 47
SWIDTH 396 0
DWIDTH 6 0
BBX 5 10 1 0
BITMAP
000830
000C00
005800
00A200
01B000
066000
0B1000
2A0000
850000
C00000
ENDCHAR
STARTCHAR zero
ENCODING 48
SWIDTH 514 0
DWIDTH 8 0
BBX 7 10 1 0
BITMAP
3CBBC600
C2000C10
C0000A20
C0000A20
C0000A20
C0000A20
C0000A20
C0000A20
C2000C10
3CBBC600
ENDCHAR
STARTCHAR one
ENCODING 49
SWIDTH 317 0
DWIDTH 5 0
BBX 4 10 0 0
BITMAP
03BA
4A4B
001B
001B
001B
001B
001B
001B
001B
001A
ENDCHAR
STARTCHAR two
ENCODING 50
SWIDTH 478 0
DWIDTH 8 0
BBX 7 10 0 0
BITMAP
05CBBB10
0D000580
1B0002A0
01000480
00003B10
00079100
01A60000
0B300000
0D000000
1EBBBB80
ENDCHAR
STARTCHAR three
ENCODING 51
SWIDTH 496 0
DWIDTH 8 0
BBX 6 10 1 0
BITMAP
5CBBB3
C1001C
70000C
00002B
006CD2
00003A
30000C
C0000C
C1002B
4CBBB2
ENDCHAR
STARTCHAR four
ENCODING 52
SWIDTH 520 0
DWIDTH 8 0
BBX 8 10 0 0
BITMAP
00002E60
0000A860
00057660
001B0660
00930660
03900660
0B100660
3CBBBDD8
00000660
00000660
ENDCHAR
STARTCHAR five
ENCODING 53
SWIDTH 482 0
DWIDTH 8 0
BBX 6 10 1 0
BITMAP
DBBBB7
C00000
C00000
C9BBA1
A20059
00000C
20000C
C0000C
B2003A
3CBBB2
ENDCHAR
STARTCHAR six
ENCODING 54
SWIDTH 497 0
DWIDTH 8 0
BBX 7 10 0 0
BITMAP
05CBBB40
0D100000
1B000000
1B000000
1EBBBA20
1B0003B0
1B0000C0
1B0000C0
0D1002C0
05CBBC30
ENDCHAR
STARTCHAR seven
ENCODING 55
SWIDTH 380 0
DWIDTH 6 0
BBX 6 10 0 0
BITMAP
8BBBCB
000067
0000C1
0003A0
000940
000C00
005800
00B200
02B000
075000
ENDCHAR
STARTCHAR eight
ENCODING 56
SWIDTH 519 0
DWIDTH 8 0
BBX 7 10 1 0
BITMAP
4CBBC700
C1000B20
C0000830
C2000B20
3ECBE700
B3001C10
C0000830
C0000830
B2000B10
3CBBC600
ENDCHAR
STARTCHAR nine
ENCODING 57
SWIDTH 497 0
DWIDTH 8 0
BBX 7 10 0 0
BITMAP
05CBBB30
0D0002B0
2B0000C0
2B0000C0
0D1000C0
04BBBBD0
000000C0
000000C0
000002B0
06BBBC30
ENDCHAR
STARTCHAR colon
ENCODING 58
SWIDTH 191 0
DWIDTH 3 0
BBX 1 8 1 0
BITMAP
D0
D0
20
00
00
20
D0
D0
ENDCHAR
STARTCHAR semicolon
ENCODING 59
SWIDTH 191 0
DWIDTH 3 0
BBX 1 10 1 -2
BITMAP
D0
D0
20
00
00
40
D0
C0
80
20
ENDCHAR
STARTCHAR less
ENCODING 60
SWIDTH 513 0
DWIDTH 8 0
BBX 7 6 1 2
BITMAP
00004A20
028B7200
A9300000
6A820000
0039B700
00000510
ENDCHAR
STARTCHAR equal
ENCODING 61
SWIDTH 531 0
DWIDTH 9 0
BBX 7 4 1 3
BITMAP
9BBBBB30
00000000
00000000
9BBBBB30
ENDCHAR
STARTCHAR greater
ENCODING 62
SWIDTH 531 0
DWIDTH 9 0
BBX 7 6 1 2
BITMAP
86100000
15A94000
00017B30
0016A810
4AA50000
51000000
ENDCHAR
STARTCHAR question
ENCODING 63
SWIDTH 473 0
DWIDTH 8 0
BBX 6 10 1 0
BITMAP
3BBB90
B20095
C00066
0000A3
000A40
006600
006300
001100
008500
008500
ENDCHAR
STARTCHAR at
ENCODING 64
SWIDTH 753 0
DWIDTH 12 0
BBX 10 11 1 -1
BITMAP
007BBBBB90
0A70000057
570000000A
9107BBC309
903A007409
9066007409
9066007409
913A00B438
5707BA6CA1
0A71000000
007BBBB400
ENDCHAR
STARTCHAR A
ENCODING 65
SWIDTH 533 0
DWIDTH 9 0
BBX 8 10 0 0
BITMAP
0006E000
000B8400
002A2900
00750B00
00A00740
02900190
06CBBBD0
0A000074
1A000029
6500000C
ENDCHAR
STARTCHAR B
ENCODING 66
SWIDTH 546 0
DWIDTH 9 0
BBX 7 10 1 0
BITMAP
9CBBBA10
A2000760
A2000470
A2000850
ACBBDB00
A2000860
A2000390
A2000390
A2000670
9CBBBA10
ENDCHAR
STARTCHAR C
ENCODING 67
SWIDTH 542 0
DWIDTH 9 0
BBX 7 10 1 0
BITMAP
2BBBBB10
A3000580
C00002A0
C0000010
C0000000
C0000000
C0000020
C00002A0
A3000580
2BBBBB10
ENDCHAR
STARTCHAR D
ENCODING 68
SWIDTH 557 0
DWIDTH 9 0
BBX 7 10 1 0
BITMAP
9CBBBB10
A2000590
A20001B0
A20001B0
A20001B0
A20001B0
A20001B0
A20001B0
A2000590
9CBBBB10
ENDCHAR
STARTCHAR E
ENCODING 69
SWIDTH 481 0
DWIDTH 8 0
BBX 6 10 1 0
BITMAP
9CBBB7
A20000
A20000
A20000
ACBBB2
A20000
A20000
A20000
A20000
9CBBB7
ENDCHAR
STARTCHAR F
ENCODING 70
SWIDTH 459 0
DWIDTH 7 0
BBX 6 10 1 0
BITMAP
9CBBB7
A20000
A20000
A20000
A20000
ACBBB2
A20000
A20000
A20000
920000
ENDCHAR
STARTCHAR G
ENCODING 71
SWIDTH 539 0
DWIDTH 9 0
BBX 7 10 1 0
BITMAP
2BBBC900
A3000940
C0000660
C0000110
C0000000
C005BC50
C0000670
C0000670
A3000850
2BBBC900
ENDCHAR
STARTCHAR H
ENCODING 72
SWIDTH 570 0
DWIDTH 9 0
BBX 7 10 1 0
BITMAP
920001B0
A20001C0
A20001C0
A20001C0
ACBBBCC0
A20001C0
A20001C0
A20001C0
A20001C0
920001B0
ENDCHAR
STARTCHAR I
ENCODING 73
SWIDTH 230 0
DWIDTH 4 0
BBX 2 10 1 0
BITMAP
83
84
84
84
84
84
84
84
84
83
ENDCHAR
STARTCHAR J
ENCODING 74
SWIDTH 499 0
DWIDTH 8 0
BBX 7 10 0 0
BITMAP
000001A0
000001B0
000001B0
000001B0
000001B0
000001B0
440001B0
660001B0
49000580
08CBBB10
ENDCHAR
STARTCHAR K
ENCODING 75
SWIDTH 530 0
DWIDTH 8 0
BBX 7 10 1 0
BITMAP
92000A40
A2007800
A203B000
A21C1000
A3B70000
AA6B2000
A803B000
A2007700
A2000B20
920002B0
ENDCHAR
STARTCHAR L
ENCODING 76
SWIDTH 451 0
DWIDTH 7 0
BBX 6 10 1 0
BITMAP
920000
A20000
A20000
A20000
A20000
A20000
A20000
A20000
A20000
9CBBB8
ENDCHAR
STARTCHAR M
ENCODING 77
SWIDTH 696 0
DWIDTH 11 0
BBX 9 10 1 0
BITMAP
9B000008B0
AC20001CC0
A5900076C0
A2B100C1C0
A2570570C0
A20B0B10C0
A2069900C0
A201B200C0
A2000000C0
92000000B0
ENDCHAR
STARTCHAR N
ENCODING 78
SWIDTH 579 0
DWIDTH 9 0
BBX 7 10 1 0
BITMAP
960000B0
AD1000C0
A79000C0
A2A300C0
A22B00C0
A20760C0
A200C1C0
A20049C0
A2000AD0
920002D0
ENDCHAR
STARTCHAR O
ENCODING 79
SWIDTH 553 0
DWIDTH 9 0
BBX 7 10 1 0
BITMAP
2BBBBB10
A3000680
C00002A0
C00002A0
C00002A0
C00002A0
C00002A0
C00002A0
A3000680
2BBBBB10
ENDCHAR
STARTCHAR P
ENCODING 80
SWIDTH 524 0
DWIDTH 8 0
BBX 7 10 1 0
BITMAP
9CBBB900
A2000850
A2000570
A2000570
A2000940
ACBBB800
A2000000
A2000000
A2000000
92000000
ENDCHAR
STARTCHAR Q
ENCODING 81
SWIDTH 556 0
DWIDTH 9 0
BBX 7 12 1 -2
BITMAP
2BBBBB10
A4000580
C10002A0
C00002A0
C00002A0
C00002A0
C00002A0
C10002A0
A4000580
2BBBBB10
0001B100
00005800
ENDCHAR
STARTCHAR R
ENCODING 82
SWIDTH 534 0
DWIDTH 9 0
BBX 7 10 1 0
BITMAP
9CBBC900
A2000940
A2000660
A2000660
A2000A40
ACBCD700
A200C100
A2006800
A2000C10
92000670
ENDCHAR
STARTCHAR S
ENCODING 83
SWIDTH 562 0
DWIDTH 9 0
BBX 7 10 1 0
BITMAP
1BBBBB10
95000580
B2000280
94000000
2B952000
00259B10
00000590
A10002B0
85000590
1BBBBB10
ENDCHAR
STARTCHAR T
ENCODING 84
SWIDTH 420 0
DWIDTH 7 0
BBX 7 10 0 0
BITMAP
8BCEBB40
001C0000
001C0000
001C0000
001C0000
001C0000
001C0000
001C0000
001C0000
001B0000
ENDCHAR
STARTCHAR U
ENCODING 85
SWIDTH 552 0
DWIDTH 9 0
BBX 7 10 1 0
BITMAP
A1000380
B1000480
B1000480
B1000480
B1000480
B1000480
B1000480
B1000480
94000760
2BBBBA10
ENDCHAR
STARTCHAR V
ENCODING 86
SWIDTH 500 0
DWIDTH 8 0
BBX 8 10 0 0
BITMAP
76000066
2A0000A2
0C0001C0
08400480
03900930
00C00C00
00933900
00488400
000BB000
000AA000
ENDCHAR
STARTCHAR W
ENCODING 87
SWIDTH 794 0
DWIDTH 13 0
BBX 13 10 0 0
BITMAP
670004E0000C10
3A0008B3000D00
0D000B47003A00
0B201A0B006700
0850560A10A300
0480920650C000
01B0B00291B000
00C39000B48000
00994000994000
005E10005F1000
ENDCHAR
STARTCHAR X
ENCODING 88
SWIDTH 504 0
DWIDTH 8 0
BBX 8 10 0 0
BITMAP
2B0000B3
07600580
00C11C10
00498500
000AB000
001CC100
00854900
02B00B30
0A3002B0
49000085
ENDCHAR
STARTCHAR Y
ENCODING 89
SWIDTH 493 0
DWIDTH 8 0
BBX 8 10 0 0
BITMAP
67000094
0C1002B0
06800940
00C12B00
00589400
000CB000
00075000
00075000
00075000
00075000
ENDCHAR
STARTCHAR Z
ENCODING 90
SWIDTH 482 0
DWIDTH 8 0
BBX 7 10 0 0
BITMAP
1BBBBCD0
00000870
00002C00
0000B300
00069000
001C1000
00950000
04A00000
0C200000
4EBBBBB0
ENDCHAR
STARTCHAR bracketleft
ENCODING 91
SWIDTH 287 0
DWIDTH 5 0
BBX 3 12 1 -2
BITMAP
EB50
B000
B000
B000
B000
B000
B000
B000
B000
B000
B000
CB50
ENDCHAR
STARTCHAR backslash
ENCODING 92
SWIDTH 396 0
DWIDTH 6 0
BBX 5 10 1 0
BITMAP
C00000
850000
2A0000
0C1000
066000
01B000
00A200
005800
000C00
000930
ENDCHAR
STARTCHAR bracketright
ENCODING 93
SWIDTH 287 0
DWIDTH 5 0
BBX 3 12 1 -2
BITMAP
BC60
0470
0470
0470
0470
0470
0470
0470
0470
0470
0470
BC50
ENDCHAR
STARTCHAR asciicircum
ENCODING 94
SWIDTH 465 0
DWIDTH 7 0
BBX 6 5 1 5
BITMAP
02C800
093B10
2A0490
A200A2
500023
ENDCHAR
STARTCHAR underscore
ENCODING 95
SWIDTH 372 0
DWIDTH 6 0
BBX 6 1 0 -2
BITMAP
BBBBBA
ENDCHAR
STARTCHAR grave
ENCODING 96
SWIDTH 269 0
DWIDTH 4 0
BBX 3 2 1 9
BITMAP
9600
0A10
ENDCHAR
STARTCHAR a
ENCODING 97
SWIDTH 502 0
DWIDTH 8 0
BBX 6 8 1 0
BITMAP
4CBBBC
C1000C
C0000C
C0000C
C0000C
C0000C
C1003C
4CBB8C
ENDCHAR
STARTCHAR b
ENCODING 98
SWIDTH 504 0
DWIDTH 8 0
BBX 6 11 1 0
BITMAP
B00000
C00000
C00000
C8BBC4
C4001C
C0000C
C0000C
C0000C
C0000C
C0001C
CBBBC4
ENDCHAR
STARTCHAR c
ENCODING 99
SWIDTH 394 0
DWIDTH 6 0
BBX 5 8 1 0
BITMAP
4CBB80
C10000
C00000
C00000
C00000
C00000
C10000
4CBB80
ENDCHAR
STARTCHAR d
ENCODING 100
SWIDTH 504 0
DWIDTH 8 0
BBX 6 11 1 0
BITMAP
00000C
00000C
00000C
4CBB8C
C1003D
C0000C
C0000C
C0000C
C0000C
C1003D
4CBB8C
ENDCHAR
STARTCHAR e
ENCODING 101
SWIDTH 492 0
DWIDTH 8 0
BBX 6 8 1 0
BITMAP
4CBBB2
C2002B
C0000C
C0000C
EBBBBC
C00000
B10000
4BBBB8
ENDCHAR
STARTCHAR f
ENCODING 102
SWIDTH 303 0
DWIDTH 5 0
BBX 5 11 0 0
BITMAP
006C50
00D000
01B000
4CEB50
01B000
01B000
01B000
01B000
01B000
01B000
01B000
ENDCHAR
STARTCHAR g
ENCODING 103
SWIDTH 506 0
DWIDTH 8 0
BBX 6 10 1 -2
BITMAP
3CBBBD
C2000C
C0000C
C0000C
C0000C
B3003E
2BBB7C
00000C
00003C
4BBBC3
ENDCHAR
STARTCHAR h
ENCODING 104
SWIDTH 507 0
DWIDTH 8 0
BBX 6 11 1 0
BITMAP
C00000
C00000
C00000
C7BBC4
C4001C
C0000C
C0000C
C0000C
C0000C
C0000C
C0000B
ENDCHAR
STARTCHAR i
ENCODING 105
SWIDTH 210 0
DWIDTH 3 0
BBX 2 11 1 0
BITMAP
B1
91
00
A1
B1
B1
B1
B1
B1
B1
B1
ENDCHAR
STARTCHAR j
ENCODING 106
SWIDTH 210 0
DWIDTH 3 0
BBX 4 13 -1 -2
BITMAP
00B1
0091
0000
00A1
00B1
00B1
00B1
00B1
00B1
00B1
00B1
01D0
9C50
ENDCHAR
STARTCHAR k
ENCODING 107
SWIDTH 431 0
DWIDTH 7 0
BBX 6 11 1 0
BITMAP
C00000
C00000
C00000
C000B3
C00680
C02C00
C0B300
C09500
C01C20
C003B0
C00077
ENDCHAR
STARTCHAR l
ENCODING 108
SWIDTH 210 0
DWIDTH 3 0
BBX 2 11 1 0
BITMAP
A1
B1
B1
B1
B1
B1
B1
B1
B1
B1
B1
ENDCHAR
STARTCHAR m
ENCODING 109
SWIDTH 769 0
DWIDTH 12 0
BBX 11 8 1 0
BITMAP
B7BCB3BBC600
C4006C100C10
C00039000930
C00039000930
C00039000930
C00039000930
C00039000930
C00039000930
ENDCHAR
STARTCHAR n
ENCODING 110
SWIDTH 507 0
DWIDTH 8 0
BBX 6 8 1 0
BITMAP
B7BBC4
C4001C
C0000C
C0000C
C0000C
C0000C
C0000C
C0000B
ENDCHAR
STARTCHAR o
ENCODING 111
SWIDTH 496 0
DWIDTH 8 0
BBX 6 8 1 0
BITMAP
4CBBC3
C1002B
C0000C
C0000C
C0000C
C0000C
C1002B
4CBBC3
ENDCHAR
STARTCHAR p
ENCODING 112
SWIDTH 504 0
DWIDTH 8 0
BBX 6 10 1 -2
BITMAP
B8BBC4
C4001C
C0000C
C0000C
C0000C
C0000C
C4001C
C8BBC4
C00000
C00000
ENDCHAR
STARTCHAR q
ENCODING 113
SWIDTH 502 0
DWIDTH 8 0
BBX 6 10 1 -2
BITMAP
4CBBBC
C1000C
C0000C
C0000C
C0000C
C0000C
C1004C
4CBB9C
00000C
00000C
ENDCHAR
STARTCHAR r
ENCODING 114
SWIDTH 313 0
DWIDTH 5 0
BBX 4 8 1 0
BITMAP
B7B6
C500
C000
C000
C000
C000
C000
C000
ENDCHAR
STARTCHAR s
ENCODING 115
SWIDTH 431 0
DWIDTH 7 0
BBX 6 8 0 0
BITMAP
09CBB7
2B0000
1C0000
04A820
000398
00000D
00000D
1BBBC6
ENDCHAR
STARTCHAR t
ENCODING 116
SWIDTH 347 0
DWIDTH 6 0
BBX 5 10 0 0
BITMAP
024000
058000
6DDB80
048000
048000
048000
048000
048000
02B000
007CA0
ENDCHAR
STARTCHAR u
ENCODING 117
SWIDTH 507 0
DWIDTH 8 0
BBX 6 8 1 0
BITMAP
C0000C
C0000C
C0000C
C0000C
C0000C
C0000C
B2002D
3CBB9C
ENDCHAR
STARTCHAR v
ENCODING 118
SWIDTH 416 0
DWIDTH 7 0
BBX 7 8 0 0
BITMAP
94000930
48000C00
0C003900
0A308400
0570C000
01B2A000
00A85000
005E1000
ENDCHAR
STARTCHAR w
ENCODING 119
SWIDTH 683 0
DWIDTH 11 0
BBX 11 8 0 0
BITMAP
84001E100570
48005C400A30
0C0094800C00
0A20A0B03900
066280A17500
02A74065B100
00BA001AB000
007B000C6000
ENDCHAR
STARTCHAR x
ENCODING 120
SWIDTH 413 0
DWIDTH 7 0
BBX 7 8 0 0
BITMAP
49002B00
0A309400
02B2A000
008D2000
008C3000
03A2B000
0B208600
58001C10
ENDCHAR
STARTCHAR y
ENCODING 121
SWIDTH 459 0
DWIDTH 7 0
BBX 7 10 0 -2
BITMAP
660001B0
1B000660
0A200B10
05802A00
00C08500
0084C000
003C9000
000A3000
002C0000
2BB20000
ENDCHAR
STARTCHAR z
ENCODING 122
SWIDTH 405 0
DWIDTH 6 0
BBX 6 8 0 0
BITMAP
3BBBCC
0000A4
0004A0
001C10
009600
03B000
0C2000
5EBBBA
ENDCHAR
STARTCHAR braceleft
ENCODING 123
SWIDTH 298 0
DWIDTH 5 0
BBX 4 12 0 -2
BITMAP
0099
0290
0370
0470
0560
4D10
0660
0470
0470
0370
01A0
0079
ENDCHAR
STARTCHAR bar
ENCODING 124
SWIDTH 207 0
DWIDTH 3 0
BBX 1 10 1 0
BITMAP
A0
A0
A0
A0
A0
A0
A0
A0
A0
A0
ENDCHAR
STARTCHAR braceright
ENCODING 125
SWIDTH 298 0
DWIDTH 5 0
BBX 4 12 0 -2
BITMAP
4C20
0390
01A0
01A0
00B0
008A
00B0
01A0
01A0
01A0
0470
4A10
ENDCHAR
STARTCHAR asciitilde
ENCODING 126
SWIDTH 523 0
DWIDTH 8 0
BBX 7 1 1 4
BITMAP
7BBBBA20
ENDCHAR
STARTCHAR uni00A0
ENCODING 160
SWIDTH 267 0
DWIDTH 4 0
BBX 1 1 0 0
BITMAP
00
ENDCHAR
STARTCHAR exclamdown
ENCODING 161
SWIDTH 237 0
DWIDTH 4 0
BBX 2 10 1 0
BITMAP
84
85
11
63
74
84
85
85
86
85
ENDCHAR
STARTCHAR cent
ENCODING 162
SWIDTH 414 0
DWIDTH 7 0
BBX 5 12 1 -2
BITMAP
001400
003800
4CBBB0
C10000
C00000
C00000
C00000
C00000
C10000
4CBBB0
003800
001300
ENDCHAR
STARTCHAR sterling
ENCODING 163
SWIDTH 528 0
DWIDTH 8 0
BBX 8 10 0 0
BITMAP
007CBC70
02B000B2
04800063
04800000
04800000
4CDBB300
04800000
04800000
05700000
4ECBBBB3
ENDCHAR
STARTCHAR yen
ENCODING 165
SWIDTH 499 0
DWIDTH 8 0
BBX 8 10 0 0
BITMAP
58000094
0B2002B0
03900A30
00A23900
4AAAAAA3
000BA000
00076000
4BBDDBB4
00066000
00066000
ENDCHAR
STARTCHAR brokenbar
ENCODING 166
SWIDTH 201 0
DWIDTH 3 0
BBX 1 10 1 0
BITMAP
A0
B0
B0
A0
00
00
A0
B0
B0
A0
ENDCHAR
STARTCHAR section
ENCODING 167
SWIDTH 454 0
DWIDTH 7 0
BBX 7 10 0 0
BITMAP
06CBB900
0D000000
1D000000
1DBA8200
1B014C20
0B400740
0169AC40
00000A40
00000A30
0ABBC900
ENDCHAR
STARTCHAR dieresis
ENCODING 168
SWIDTH 345 0
DWIDTH 6 0
BBX 4 2 1 9
BITMAP
B047
B057
ENDCHAR
STARTCHAR copyright
ENCODING 169
SWIDTH 723 0
DWIDTH 12 0
BBX 10 10 1 0
BITMAP
3BBBBBBB90
A100000074
A01BBB6046
A06500A046
A064002046
A064003046
A05500A046
A008894046
A100000074
3CBBBBBB90
ENDCHAR
STARTCHAR guillemotleft
ENCODING 171
SWIDTH 431 0
DWIDTH 7 0
BBX 5 6 1 1
BITMAP
015060
1A2940
A27400
936600
093760
004040
ENDCHAR
STARTCHAR registered
ENCODING 174
SWIDTH 439 0
DWIDTH 7 0
BBX 5 5 1 6
BITMAP
6BBB60
85C580
75C570
841490
5BBB50
ENDCHAR
STARTCHAR macron
ENCODING 175
SWIDTH 358 0
DWIDTH 6 0
BBX 4 1 1 9
BITMAP
ABB7
ENDCHAR
STARTCHAR degree
ENCODING 176
SWIDTH 298 0
DWIDTH 5 0
BBX 3 4 1 7
BITMAP
8C50
8180
8170
7C40
ENDCHAR
STARTCHAR plusminus
ENCODING 177
SWIDTH 523 0
DWIDTH 8 0
BBX 7 6 1 2
BITMAP
00380000
9BCDBB20
00380000
00380000
00000000
9BBBBB20
ENDCHAR
STARTCHAR acute
ENCODING 180
SWIDTH 269 0
DWIDTH 4 0
BBX 3 2 1 9
BITMAP
2C10
9200
ENDCHAR
STARTCHAR paragraph
ENCODING 182
SWIDTH 513 0
DWIDTH 8 0
BBX 7 10 0 0
BITMAP
09EDBBC0
2FF700B0
3FF700B0
2FF700B0
09E700B0
004700B0
004700B0
004700B0
004700B0
004700A0
ENDCHAR
STARTCHAR periodcentered
ENCODING 183
SWIDTH 207 0
DWIDTH 3 0
BBX 2 3 1 4
BITMAP
20
C1
C1
ENDCHAR
STARTCHAR cedilla
ENCODING 184
SWIDTH 257 0
DWIDTH 4 0
BBX 2 3 1 -3
BITMAP
45
98
9A
ENDCHAR
STARTCHAR guillemotright
ENCODING 187
SWIDTH 431 0
DWIDTH 7 0
BBX 5 6 1 1
BITMAP
606000
573A10
056390
075480
754800
404000
ENDCHAR
STARTCHAR questiondown
ENCODING 191
SWIDTH 473 0
DWIDTH 8 0
BBX 6 10 1 0
BITMAP
00B200
00B200
002000
008100
00C000
095000
950000
C00066
B20085
3BBB90
ENDCHAR
STARTCHAR Agrave
ENCODING 192
SWIDTH 532 0
DWIDTH 9 0
BBX 8 13 0 0
BITMAP
00590000
00083000
00000000
0006E000
000B8400
002A2900
00750B00
00A00740
02900190
06CBBBD0
0A000074
1A000029
6500000C
ENDCHAR
STARTCHAR Aacute
ENCODING 193
SWIDTH 532 0
DWIDTH 9 0
BBX 8 13 0 0
BITMAP
00002C10
00009200
00000000
0006E000
000B8400
002A2900
00750B00
00A00740
02900190
06CBBBD0
0A000074
1A000029
6500000C
ENDCHAR
STARTCHAR Acircumflex
ENCODING 194
SWIDTH 532 0
DWIDTH 9 0
BBX 8 13 0 0
BITMAP
0006B100
00192800
00000000
0006E000
000B8400
002A2900
00750B00
00A00740
02900190
06CBBBD0
0A000074
1A000029
6500000C
ENDCHAR
STARTCHAR Atilde
ENCODING 195
SWIDTH 532 0
DWIDTH 9 0
BBX 8 13 0 0
BITMAP
0061AA00
00384500
00000000
0006E000
000B8400
002A2900
00750B00
00A00740
02900190
06CBBBD0
0A000074
1A000029
6500000C
ENDCHAR
STARTCHAR Adieresis
ENCODING 196
SWIDTH 532 0
DWIDTH 9 0
BBX 8 13 0 0
BITMAP
00650B00
00650B00
00000000
0006E000
000B8400
002A2900
00750B00
00A00740
02900190
06CBBBD0
0A000074
1A000029
6500000C
ENDCHAR
STARTCHAR Aring
ENCODING 197
SWIDTH 532 0
DWIDTH 9 0
BBX 8 14 0 0
BITMAP
000AC300
00171800
00182800
0008B200
0006E000
000B8400
002A2900
00750B00
00A00740
02900190
06CBBBD0
0A000074
1A000029
6500000C
ENDCHAR
STARTCHAR AE
ENCODING 198
SWIDTH 773 0
DWIDTH 12 0
BBX 12 10 0 0
BITMAP
00000BFBBBB3
000049C00000
0000B1C00000
000650C00000
001A00EBBB90
008200C00000
02DBBBD00000
091000C00000
380000C00000
B10000EBBBB3
ENDCHAR
STARTCHAR Ccedilla
ENCODING 199
SWIDTH 542 0
DWIDTH 9 0
BBX 7 13 1 -3
BITMAP
2BBBBB10
A3000580
C00002A0
C0000010
C0000000
C0000000
C0000020
C00002A0
A3000580
2BBBBB10
002A1000
00038000
002B5000
ENDCHAR
STARTCHAR Egrave
ENCODING 200
SWIDTH 481 0
DWIDTH 8 0
BBX 6 13 1 0
BITMAP
069000
008300
000000
9CBBB7
A20000
A20000
A20000
ACBBB2
A20000
A20000
A20000
A20000
9CBBB7
ENDCHAR
STARTCHAR Eacute
ENCODING 201
SWIDTH 481 0
DWIDTH 8 0
BBX 6 13 1 0
BITMAP
000870
003900
000000
9CBBB7
A20000
A20000
A20000
ACBBB2
A20000
A20000
A20000
A20000
9CBBB7
ENDCHAR
STARTCHAR Ecircumflex
ENCODING 202
SWIDTH 481 0
DWIDTH 8 0
BBX 6 13 1 0
BITMAP
009900
056640
000000
9CBBB7
A20000
A20000
A20000
ACBBB2
A20000
A20000
A20000
A20000
9CBBB7
ENDCHAR
STARTCHAR Edieresis
ENCODING 203
SWIDTH 481 0
DWIDTH 8 0
BBX 6 13 1 0
BITMAP
0A11A0
0A11A0
000000
9CBBB7
A20000
A20000
A20000
ACBBB2
A20000
A20000
A20000
A20000
9CBBB7
ENDCHAR
STARTCHAR Igrave
ENCODING 204
SWIDTH 230 0
DWIDTH 4 0
BBX 3 13 0 0
BITMAP
A400
1A00
0000
0830
0840
0840
0840
0840
0840
0840
0840
0840
0830
ENDCHAR
STARTCHAR Iacute
ENCODING 205
SWIDTH 231 0
DWIDTH 4 0
BBX 3 13 1 0
BITMAP
0960
3800
0000
8300
8400
8400
8400
8400
8400
8400
8400
8400
8300
ENDCHAR
STARTCHAR Icircumflex
ENCODING 206
SWIDTH 229 0
DWIDTH 4 0
BBX 4 13 0 0
BITMAP
0A70
7382
0000
0830
0840
0840
0840
0840
0840
0840
0840
0840
0830
ENDCHAR
STARTCHAR Idieresis
ENCODING 207
SWIDTH 230 0
DWIDTH 4 0
BBX 4 13 0 0
BITMAP
B048
B048
0000
0830
0840
0840
0840
0840
0840
0840
0840
0840
0830
ENDCHAR
STARTCHAR Eth
ENCODING 208
SWIDTH 514 0
DWIDTH 8 0
BBX 8 10 0 0
BITMAP
09CBBBB2
09300049
0930001B
0930001C
6ECBA01C
0930001C
0930001C
0930001B
09300049
09CBBBB2
ENDCHAR
STARTCHAR Ntilde
ENCODING 209
SWIDTH 579 0
DWIDTH 9 0
BBX 7 13 1 0
BITMAP
0156B300
00A92500
00000000
960000B0
AD1000C0
A79000C0
A2A300C0
A22B00C0
A20760C0
A200C1C0
A20049C0
A2000AD0
920002D0
ENDCHAR
STARTCHAR Ograve
ENCODING 210
SWIDTH 553 0
DWIDTH 9 0
BBX 7 13 1 0
BITMAP
02C10000
00470000
00000000
2BBBBB10
A3000680
C00002A0
C00002A0
C00002A0
C00002A0
C00002A0
C00002A0
A3000680
2BBBBB10
ENDCHAR
STARTCHAR Oacute
ENCODING 211
SWIDTH 553 0
DWIDTH 9 0
BBX 7 13 1 0
BITMAP
0002C100
00092000
00000000
2BBBBB10
A3000680
C00002A0
C00002A0
C00002A0
C00002A0
C00002A0
C00002A0
A3000680
2BBBBB10
ENDCHAR
STARTCHAR Ocircumflex
ENCODING 212
SWIDTH 553 0
DWIDTH 9 0
BBX 7 13 1 0
BITMAP
004B2000
00A19000
00000000
2BBBBB10
A3000680
C00002A0
C00002A0
C00002A0
C00002A0
C00002A0
C00002A0
A3000680
2BBBBB10
ENDCHAR
STARTCHAR Otilde
ENCODING 213
SWIDTH 553 0
DWIDTH 9 0
BBX 7 13 1 0
BITMAP
0438B000
02B65100
00000000
2BBBBB10
A3000680
C00002A0
C00002A0
C00002A0
C00002A0
C00002A0
C00002A0
A3000680
2BBBBB10
ENDCHAR
STARTCHAR Odieresis
ENCODING 214
SWIDTH 553 0
DWIDTH 9 0
BBX 7 13 1 0
BITMAP
0470A100
0470A100
00000000
2BBBBB10
A3000680
C00002A0
C00002A0
C00002A0
C00002A0
C00002A0
C00002A0
A3000680
2BBBBB10
ENDCHAR
STARTCHAR multiply
ENCODING 215
SWIDTH 493 0
DWIDTH 8 0
BBX 6 6 1 2
BITMAP
230042
2C34B1
02CB10
04BC30
4B12C2
110010
ENDCHAR
STARTCHAR Oslash
ENCODING 216
SWIDTH 559 0
DWIDTH 9 0
BBX 9 10 0 0
BITMAP
02BBBBA710
0A40007A00
0B1002BB00
0C000A3B00
0C00842B00
0C04702B00
0C29002B00
0BA1002B00
0B60005900
28BBBBB200
ENDCHAR
STARTCHAR Ugrave
ENCODING 217
SWIDTH 552 0
DWIDTH 9 0
BBX 7 13 1 0
BITMAP
01C10000
00380000
00000000
A1000380
B1000480
B1000480
B1000480
B1000480
B1000480
B1000480
B1000480
94000760
2BBBBA10
ENDCHAR
STARTCHAR Uacute
ENCODING 218
SWIDTH 552 0
DWIDTH 9 0
BBX 7 13 1 0
BITMAP
0002C100
00092000
00000000
A1000380
B1000480
B1000480
B1000480
B1000480
B1000480
B1000480
B1000480
94000760
2BBBBA10
ENDCHAR
STARTCHAR Ucircumflex
ENCODING 219
SWIDTH 552 0
DWIDTH 9 0
BBX 7 13 1 0
BITMAP
004B2000
00A19000
00000000
A1000380
B1000480
B1000480
B1000480
B1000480
B1000480
B1000480
B1000480
94000760
2BBBBA10
ENDCHAR
STARTCHAR Udieresis
ENCODING 220
SWIDTH 552 0
DWIDTH 9 0
BBX 7 13 1 0
BITMAP
0470A100
0470A100
00000000
A1000380
B1000480
B1000480
B1000480
B1000480
B1000480
B1000480
B1000480
94000760
2BBBBA10
ENDCHAR
STARTCHAR Yacute
ENCODING 221
SWIDTH 493 0
DWIDTH 8 0
BBX 8 13 0 0
BITMAP
00008700
00039000
00000000
67000094
0C1002B0
06800940
00C12B00
00589400
000CB000
00075000
00075000
00075000
00075000
ENDCHAR
STARTCHAR Thorn
ENCODING 222
SWIDTH 501 0
DWIDTH 8 0
BBX 6 10 1 0
BITMAP
2A0000
2A0000
2EBBC3
2A002B
2A000C
2A000C
2A003B
2EBBA2
2A0000
2A0000
ENDCHAR
STARTCHAR germandbls
ENCODING 223
SWIDTH 540 0
DWIDTH 9 0
BBX 7 10 1 0
BITMAP
2BBBC900
94000940
B1000750
B1000A30
B11BE900
B1000A40
B1000570
B1000480
B1000850
B14BB900
ENDCHAR
STARTCHAR agrave
ENCODING 224
SWIDTH 502 0
DWIDTH 8 0
BBX 6 11 1 0
BITMAP
02C100
004800
000000
4CBBBC
C1000C
C0000C
C0000C
C0000C
C0000C
C1003C
4CBB8C
ENDCHAR
STARTCHAR aacute
ENCODING 225
SWIDTH 502 0
DWIDTH 8 0
BBX 6 11 1 0
BITMAP
0005A0
001A10
000000
4CBBBC
C1000C
C0000C
C0000C
C0000C
C0000C
C1003C
4CBB8C
ENDCHAR
STARTCHAR acircumflex
ENCODING 226
SWIDTH 502 0
DWIDTH 8 0
BBX 6 11 1 0
BITMAP
007A10
028370
000000
4CBBBC
C1000C
C0000C
C0000C
C0000C
C0000C
C1003C
4CBB8C
ENDCHAR
STARTCHAR atilde
ENCODING 227
SWIDTH 504 0
DWIDTH 8 0
BBX 6 11 1 0
BITMAP
052AB0
028450
000000
4CBBBC
C1000C
C0000C
C0000C
C0000C
C0000C
C1003C
4CBB8C
ENDCHAR
STARTCHAR adieresis
ENCODING 228
SWIDTH 502 0
DWIDTH 8 0
BBX 6 11 1 0
BITMAP
0650B0
0650B0
000000
4CBBBC
C1000C
C0000C
C0000C
C0000C
C0000C
C1003C
4CBB8C
ENDCHAR
STARTCHAR aring
ENCODING 229
SWIDTH 502 0
DWIDTH 8 0
BBX 6 12 1 0
BITMAP
01BB20
034250
034250
01BB20
4CBBBC
C1000C
C0000C
C0000C
C0000C
C0000C
C1003C
4CBB8C
ENDCHAR
STARTCHAR ae
ENCODING 230
SWIDTH 795 0
DWIDTH 13 0
BBX 11 8 1 0
BITMAP
1BBBB4CBBB10
00003E100480
00000C0001A0
2BBBCC0001B0
B2000FBBBC90
C0000C000000
C1003E100000
4CBBA5CBBB70
ENDCHAR
STARTCHAR ccedilla
ENCODING 231
SWIDTH 394 0
DWIDTH 6 0
BBX 5 11 1 -3
BITMAP
4CBB80
C10000
C00000
C00000
C00000
C00000
C10000
4CBB80
00A400
002A00
009A00
ENDCHAR
STARTCHAR egrave
ENCODING 232
SWIDTH 492 0
DWIDTH 8 0
BBX 6 11 1 0
BITMAP
078000
009300
000000
4CBBB2
C2002B
C0000C
C0000C
EBBBBC
C00000
B10000
4BBBB8
ENDCHAR
STARTCHAR eacute
ENCODING 233
SWIDTH 492 0
DWIDTH 8 0
BBX 6 11 1 0
BITMAP
000A40
005700
000000
4CBBB2
C2002B
C0000C
C0000C
EBBBBC
C00000
B10000
4BBBB8
ENDCHAR
STARTCHAR ecircumflex
ENCODING 234
SWIDTH 492 0
DWIDTH 8 0
BBX 6 11 1 0
BITMAP
009900
055640
000000
4CBBB2
C2002B
C0000C
C0000C
EBBBBC
C00000
B10000
4BBBB8
ENDCHAR
STARTCHAR edieresis
ENCODING 235
SWIDTH 492 0
DWIDTH 8 0
BBX 6 11 1 0
BITMAP
0A11A0
0B11A0
000000
4CBBB2
C2002B
C0000C
C0000C
EBBBBC
C00000
B10000
4BBBB8
ENDCHAR
STARTCHAR igrave
ENCODING 236
SWIDTH 210 0
DWIDTH 3 0
BBX 4 11 -1 0
BITMAP
1C20
0290
0000
00A1
00B1
00B1
00B1
00B1
00B1
00B1
00B1
ENDCHAR
STARTCHAR iacute
ENCODING 237
SWIDTH 208 0
DWIDTH 3 0
BBX 3 11 1 0
BITMAP
0B40
5600
0000
A100
B100
B100
B100
B100
B100
B100
B100
ENDCHAR
STARTCHAR icircumflex
ENCODING 238
SWIDTH 210 0
DWIDTH 3 0
BBX 4 11 0 0
BITMAP
1B50
9291
0000
0A10
0B10
0B10
0B10
0B10
0B10
0B10
0B10
ENDCHAR
STARTCHAR idieresis
ENCODING 239
SWIDTH 210 0
DWIDTH 3 0
BBX 4 11 0 0
BITMAP
B065
B065
0000
0A10
0B10
0B10
0B10
0B10
0B10
0B10
0B10
ENDCHAR
STARTCHAR eth
ENCODING 240
SWIDTH 488 0
DWIDTH 8 0
BBX 6 12 1 0
BITMAP
040030
059590
00BB00
095850
0200A3
2ABB8A
B3005C
C0000C
C0000C
C0000C
B2004A
3CBBB2
ENDCHAR
STARTCHAR ntilde
ENCODING 241
SWIDTH 507 0
DWIDTH 8 0
BBX 6 11 1 0
BITMAP
071C90
06B260
000000
B7BBC4
C4001C
C0000C
C0000C
C0000C
C0000C
C0000C
C0000B
ENDCHAR
STARTCHAR ograve
ENCODING 242
SWIDTH 496 0
DWIDTH 8 0
BBX 6 11 1 0
BITMAP
087000
00A100
000000
4CBBC3
C1002B
C0000C
C0000C
C0000C
C0000C
C1002B
4CBBC3
ENDCHAR
STARTCHAR oacute
ENCODING 243
SWIDTH 496 0
DWIDTH 8 0
BBX 6 11 1 0
BITMAP
000780
002A00
000000
4CBBC3
C1002B
C0000C
C0000C
C0000C
C0000C
C1002B
4CBBC3
ENDCHAR
STARTCHAR ocircumflex
ENCODING 244
SWIDTH 496 0
DWIDTH 8 0
BBX 6 11 1 0
BITMAP
009900
055640
000000
4CBBC3
C1002B
C0000C
C0000C
C0000C
C0000C
C1002B
4CBBC3
ENDCHAR
STARTCHAR otilde
ENCODING 245
SWIDTH 496 0
DWIDTH 8 0
BBX 6 11 1 0
BITMAP
073C70
08B160
000000
4CBBC3
C1002B
C0000C
C0000C
C0000C
C0000C
C1002B
4CBBC3
ENDCHAR
STARTCHAR odieresis
ENCODING 246
SWIDTH 496 0
DWIDTH 8 0
BBX 6 11 1 0
BITMAP
0B12A0
0B12A0
000000
4CBBC3
C1002B
C0000C
C0000C
C0000C
C0000C
C1002B
4CBBC3
ENDCHAR
STARTCHAR divide
ENCODING 247
SWIDTH 510 0
DWIDTH 8 0
BBX 6 5 1 3
BITMAP
003400
000000
9BBBBA
000000
003400
ENDCHAR
STARTCHAR oslash
ENCODING 248
SWIDTH 521 0
DWIDTH 8 0
BBX 8 8 0 0
BITMAP
02BBBC56
094001E4
0B1009D2
0C00A3B2
0C1A30B2
0BA200B2
1D5001D0
44BCBC50
ENDCHAR
STARTCHAR ugrave
ENCODING 249
SWIDTH 507 0
DWIDTH 8 0
BBX 6 11 1 0
BITMAP
077000
009200
000000
C0000C
C0000C
C0000C
C0000C
C0000C
C0000C
B2002D
3CBB9C
ENDCHAR
STARTCHAR uacute
ENCODING 250
SWIDTH 507 0
DWIDTH 8 0
BBX 6 11 1 0
BITMAP
000780
001A00
000000
C0000C
C0000C
C0000C
C0000C
C0000C
C0000C
B2002D
3CBB9C
ENDCHAR
STARTCHAR ucircumflex
ENCODING 251
SWIDTH 507 0
DWIDTH 8 0
BBX 6 11 1 0
BITMAP
009900
046550
000000
C0000C
C0000C
C0000C
C0000C
C0000C
C0000C
B2002D
3CBB9C
ENDCHAR
STARTCHAR udieresis
ENCODING 252
SWIDTH 507 0
DWIDTH 8 0
BBX 6 11 1 0
BITMAP
0A11A0
0A11B0
000000
C0000C
C0000C
C0000C
C0000C
C0000C
C0000C
B2002D
3CBB9C
ENDCHAR
STARTCHAR yacute
ENCODING 253
SWIDTH 459 0
DWIDTH 7 0
BBX 7 13 0 -2
BITMAP
0000B400
00056000
00000000
660001B0
1B000660
0A200B10
05802A00
00C08500
0084C000
003C9000
000A3000
002C0000
2BB20000
ENDCHAR
STARTCHAR thorn
ENCODING 254
SWIDTH 508 0
DWIDTH 8 0
BBX 7 13 1 -2
BITMAP
B1000000
B1000000
B1000000
B8BBC500
B5001D00
B1000B10
B1000B10
B1000B10
B1000B10
B5001D00
B8BBC500
B1000000
B1000000
ENDCHAR
STARTCHAR ydieresis
ENCODING 255
SWIDTH 459 0
DWIDTH 7 0
BBX 7 13 0 -2
BITMAP
00B06500
00B06500
00000000
660001B0
1B000660
0A200B10
05802A00
00C08500
0084C000
003C9000
000A3000
002C0000
2BB20000
ENDCHAR
STARTCHAR Amacron
ENCODING 256
SWIDTH 532 0
DWIDTH 9 0
BBX 8 13 0 0
BITMAP
006BBB00
00000000
00000000
0006E000
000B8400
002A2900
00750B00
00A00740
02900190
06CBBBD0
0A000074
1A000029
6500000C
ENDCHAR
STARTCHAR amacron
ENCODING 257
SWIDTH 502 0
DWIDTH 8 0
BBX 6 10 1 0
BITMAP
04BBB2
000000
4CBBBC
C1000C
C0000C
C0000C
C0000C
C0000C
C1003C
4CBB8C
ENDCHAR
STARTCHAR Abreve
ENCODING 258
SWIDTH 532 0
DWIDTH 9 0
BBX 8 13 0 0
BITMAP
00440900
00088400
00000000
0006E000
000B8400
002A2900
00750B00
00A00740
02900190
06CBBBD0
0A000074
1A000029
6500000C
ENDCHAR
STARTCHAR abreve
ENCODING 259
SWIDTH 502 0
DWIDTH 8 0
BBX 6 11 1 0
BITMAP
035080
008850
000000
4CBBBC
C1000C
C0000C
C0000C
C0000C
C0000C
C1003C
4CBB8C
ENDCHAR
STARTCHAR Aogonek
ENCODING 260
SWIDTH 532 0
DWIDTH 9 0
BBX 8 12 0 -2
BITMAP
0006E000
000B8400
002A2900
00750B00
00A00740
02900190
06CBBBD0
0A000074
1A000029
6500000D
00000053
000000B6
ENDCHAR
STARTCHAR aogonek
ENCODING 261
SWIDTH 502 0
DWIDTH 8 0
BBX 6 10 1 -2
BITMAP
4CBBBC
C1000C
C0000C
C0000C
C0000C
C0000C
C1003C
4CBB8C
000061
0000B4
ENDCHAR
STARTCHAR Cacute
ENCODING 262
SWIDTH 542 0
DWIDTH 9 0
BBX 7 13 1 0
BITMAP
0002C100
00092000
00000000
2BBBBB10
A3000580
C00002A0
C0000010
C0000000
C0000000
C0000020
C00002A0
A3000580
2BBBBB10
ENDCHAR
STARTCHAR cacute
ENCODING 263
SWIDTH 394 0
DWIDTH 6 0
BBX 5 11 1 0
BITMAP
001C20
007400
000000
4CBB80
C10000
C00000
C00000
C00000
C00000
C10000
4CBB80
ENDCHAR
STARTCHAR Cdotaccent
ENCODING 266
SWIDTH 542 0
DWIDTH 9 0
BBX 7 13 1 0
BITMAP
000C0000
000A0000
00000000
2BBBBB10
A3000580
C00002A0
C0000010
C0000000
C0000000
C0000020
C00002A0
A3000580
2BBBBB10
ENDCHAR
STARTCHAR cdotaccent
ENCODING 267
SWIDTH 394 0
DWIDTH 6 0
BBX 5 11 1 0
BITMAP
00B100
00A100
000000
4CBB80
C10000
C00000
C00000
C00000
C00000
C10000
4CBB80
ENDCHAR
STARTCHAR Ccaron
ENCODING 268
SWIDTH 542 0
DWIDTH 9 0
BBX 7 13 1 0
BITMAP
00A1A000
004B3000
00000000
2BBBBB10
A3000580
C00002A0
C0000010
C0000000
C0000000
C0000020
C00002A0
A3000580
2BBBBB10
ENDCHAR
STARTCHAR ccaron
ENCODING 269
SWIDTH 394 0
DWIDTH 6 0
BBX 5 11 1 0
BITMAP
082820
01A700
000000
4CBB80
C10000
C00000
C00000
C00000
C00000
C10000
4CBB80
ENDCHAR
STARTCHAR Dcaron
ENCODING 270
SWIDTH 557 0
DWIDTH 9 0
BBX 7 13 1 0
BITMAP
01A19000
005B2000
00000000
9CBBBB10
A2000590
A20001B0
A20001B0
A20001B0
A20001B0
A20001B0
A20001B0
A2000590
9CBBBB10
ENDCHAR
STARTCHAR dcaron
ENCODING 271
SWIDTH 534 0
DWIDTH 9 0
BBX 8 11 1 0
BITMAP
00000B39
00000C39
00000C36
4DFF8C32
C4006D00
C0000C00
C0000C00
C0000C00
C0000C00
C1002D00
4CBB8C00
ENDCHAR
STARTCHAR Dcroat
ENCODING 272
SWIDTH 514 0
DWIDTH 8 0
BBX 8 10 0 0
BITMAP
09CBBBB2
09300049
0930001B
0930001C
6ECBA01C
0930001C
0930001C
0930001B
09300049
09CBBBB2
ENDCHAR
STARTCHAR dcroat
ENCODING 273
SWIDTH 539 0
DWIDTH 9 0
BBX 8 11 1 0
BITMAP
00000C00
009BBFB2
00000C00
00000C00
2BBB7C00
B2004D00
C0000C00
C0000C00
C0000C00
C1003D00
4CBB8C00
ENDCHAR
STARTCHAR Emacron
ENCODING 274
SWIDTH 481 0
DWIDTH 8 0
BBX 6 13 1 0
BITMAP
09BB80
000000
000000
9CBBB7
A20000
A20000
A20000
ACBBB2
A20000
A20000
A20000
A20000
9CBBB7
ENDCHAR
STARTCHAR emacron
ENCODING 275
SWIDTH 492 0
DWIDTH 8 0
BBX 6 10 1 0
BITMAP
09BB80
000000
4CBBB2
C2002B
C0000C
C0000C
EBBBBC
C00000
B10000
4BBBB8
ENDCHAR
STARTCHAR Ebreve
ENCODING 276
SWIDTH 481 0
DWIDTH 8 0
BBX 6 13 1 0
BITMAP
090270
038810
000000
9CBBB7
A20000
A20000
A20000
ACBBB2
A20000
A20000
A20000
A20000
9CBBB7
ENDCHAR
STARTCHAR ebreve
ENCODING 277
SWIDTH 492 0
DWIDTH 8 0
BBX 6 11 1 0
BITMAP
080170
038820
000000
4CBBB2
C2002B
C0000C
C0000C
EBBBBC
C00000
B10000
4BBBB8
ENDCHAR
STARTCHAR Edotaccent
ENCODING 278
SWIDTH 496 0
DWIDTH 8 0
BBX 6 13 1 0
BITMAP
006600
005500
000000
9CBBB7
A20000
A20000
A20000
ACBBB2
A20000
A20000
A20000
A20000
9CBBB7
ENDCHAR
STARTCHAR edotaccent
ENCODING 279
SWIDTH 492 0
DWIDTH 8 0
BBX 6 11 1 0
BITMAP
006600
005500
000000
4CBBB2
C2002B
C0000C
C0000C
EBBBBC
C00000
B10000
4BBBB8
ENDCHAR
STARTCHAR Eogonek
ENCODING 280
SWIDTH 481 0
DWIDTH 8 0
BBX 6 12 1 -2
BITMAP
9CBBB7
A20000
A20000
A20000
ACBBB2
A20000
A20000
A20000
A20000
9CBBB7
000440
000970
ENDCHAR
STARTCHAR eogonek
ENCODING 281
SWIDTH 492 0
DWIDTH 8 0
BBX 6 10 1 -2
BITMAP
4CBBB2
C2002B
C0000C
C0000C
EBBBBC
C00000
B10000
4BBBB8
000340
000870
ENDCHAR
STARTCHAR Ecaron
ENCODING 282
SWIDTH 481 0
DWIDTH 8 0
BBX 6 13 1 0
BITMAP
046550
009900
000000
9CBBB7
A20000
A20000
A20000
ACBBB2
A20000
A20000
A20000
A20000
9CBBB7
ENDCHAR
STARTCHAR ecaron
ENCODING 283
SWIDTH 492 0
DWIDTH 8 0
BBX 6 11 1 0
BITMAP
055640
009900
000000
4CBBB2
C2002B
C0000C
C0000C
EBBBBC
C00000
B10000
4BBBB8
ENDCHAR
STARTCHAR Gcircumflex
ENCODING 284
SWIDTH 539 0
DWIDTH 9 0
BBX 7 13 1 0
BITMAP
005B1000
01929000
00000000
2BBBC900
A3000940
C0000660
C0000110
C0000000
C005BC50
C0000670
C0000670
A3000850
2BBBC900
ENDCHAR
STARTCHAR gcircumflex
ENCODING 285
SWIDTH 506 0
DWIDTH 8 0
BBX 6 13 1 -2
BITMAP
006B10
019280
000000
3CBBBD
C2000C
C0000C
C0000C
C0000C
B3003E
2BBB7C
00000C
00003C
4BBBC3
ENDCHAR
STARTCHAR Gbreve
ENCODING 286
SWIDTH 539 0
DWIDTH 9 0
BBX 7 13 1 0
BITMAP
03508000
00775000
00000000
2BBBC900
A3000940
C0000660
C0000110
C0000000
C005BC50
C0000670
C0000670
A3000850
2BBBC900
ENDCHAR
STARTCHAR gbreve
ENCODING 287
SWIDTH 506 0
DWIDTH 8 0
BBX 6 13 1 -2
BITMAP
027080
007860
000000
3CBBBD
C2000C
C0000C
C0000C
C0000C
B3003E
2BBB7C
00000C
00003C
4BBBC3
ENDCHAR
STARTCHAR Gdotaccent
ENCODING 288
SWIDTH 539 0
DWIDTH 9 0
BBX 7 13 1 0
BITMAP
001A0000
00190000
00000000
2BBBC900
A3000940
C0000660
C0000110
C0000000
C005BC50
C0000670
C0000670
A3000850
2BBBC900
ENDCHAR
STARTCHAR gdotaccent
ENCODING 289
SWIDTH 506 0
DWIDTH 8 0
BBX 6 13 1 -2
BITMAP
000C00
000A00
000000
3CBBBD
C2000C
C0000C
C0000C
C0000C
B3003E
2BBB7C
00000C
00003C
4BBBC3
ENDCHAR
STARTCHAR uni0122
ENCODING 290
SWIDTH 539 0
DWIDTH 9 0
BBX 7 14 1 -4
BITMAP
2BBBC900
A3000940
C0000660
C0000110
C0000000
C005BC50
C0000670
C0000670
A3000850
2BBBC900
00000000
000C0000
000B0000
00060000
ENDCHAR
STARTCHAR uni0123
ENCODING 291
SWIDTH 506 0
DWIDTH 8 0
BBX 6 14 1 -2
BITMAP
000600
000B00
001B00
000000
3CBBBD
C2000C
C0000C
C0000C
C0000C
B3003E
2BBB7C
00000C
00003C
4BBBC3
ENDCHAR
STARTCHAR hcircumflex
ENCODING 293
SWIDTH 507 0
DWIDTH 8 0
BBX 6 12 1 0
BITMAP
005B20
C19190
C00000
C00000
C7BBC4
C4001C
C0000C
C0000C
C0000C
C0000C
C0000C
C0000B
ENDCHAR
STARTCHAR Hbar
ENCODING 294
SWIDTH 523 0
DWIDTH 8 0
BBX 9 10 0 0
BITMAP
0830000C00
0940000C00
6ECBBBBF90
0940000C00
09CBBBBD00
0940000C00
0940000C00
0940000C00
0940000C00
0830000C00
ENDCHAR
STARTCHAR hbar
ENCODING 295
SWIDTH 544 0
DWIDTH 9 0
BBX 8 11 0 0
BITMAP
04800000
6CEBB500
04800000
04800000
04AABB80
04C10086
04900049
04800049
04800049
04800049
03800038
ENDCHAR
STARTCHAR Itilde
ENCODING 296
SWIDTH 230 0
DWIDTH 4 0
BBX 4 13 0 0
BITMAP
63C5
8B16
0000
0830
0840
0840
0840
0840
0840
0840
0840
0840
0830
ENDCHAR
STARTCHAR itilde
ENCODING 297
SWIDTH 210 0
DWIDTH 3 0
BBX 4 11 0 0
BITMAP
76C4
A915
0000
0A10
0B10
0B10
0B10
0B10
0B10
0B10
0B10
ENDCHAR
STARTCHAR Imacron
ENCODING 298
SWIDTH 230 0
DWIDTH 4 0
BBX 4 13 0 0
BITMAP
ABB7
0000
0000
0830
0840
0840
0840
0840
0840
0840
0840
0840
0830
ENDCHAR
STARTCHAR imacron
ENCODING 299
SWIDTH 208 0
DWIDTH 3 0
BBX 5 10 -1 0
BITMAP
1BBB50
000000
00A100
00B100
00B100
00B100
00B100
00B100
00B100
00B100
ENDCHAR
STARTCHAR Ibreve
ENCODING 300
SWIDTH 231 0
DWIDTH 4 0
BBX 4 13 0 0
BITMAP
9026
3881
0000
0830
0840
0840
0840
0840
0840
0840
0840
0840
0830
ENDCHAR
STARTCHAR ibreve
ENCODING 301
SWIDTH 211 0
DWIDTH 3 0
BBX 4 11 0 0
BITMAP
9053
5870
0000
0A10
0B10
0B10
0B10
0B10
0B10
0B10
0B10
ENDCHAR
STARTCHAR Iogonek
ENCODING 302
SWIDTH 230 0
DWIDTH 4 0
BBX 3 12 0 -2
BITMAP
0830
0840
0840
0840
0840
0840
0840
0840
0840
0830
1700
6A10
ENDCHAR
STARTCHAR iogonek
ENCODING 303
SWIDTH 210 0
DWIDTH 3 0
BBX 3 13 0 -2
BITMAP
0B10
0910
0000
0A10
0B10
0B10
0B10
0B10
0B10
0B10
0B10
2500
7800
ENDCHAR
STARTCHAR Idotaccent
ENCODING 304
SWIDTH 230 0
DWIDTH 4 0
BBX 2 13 1 0
BITMAP
73
83
00
83
84
84
84
84
84
84
84
84
83
ENDCHAR
STARTCHAR dotlessi
ENCODING 305
SWIDTH 212 0
DWIDTH 3 0
BBX 2 8 1 0
BITMAP
A1
B1
B1
B1
B1
B1
B1
A1
ENDCHAR
STARTCHAR IJ
ENCODING 306
SWIDTH 721 0
DWIDTH 12 0
BBX 10 10 1 0
BITMAP
8300000074
8400000084
8400000084
8400000084
8400000084
8400000084
8408000084
840C100084
840A4000B2
8302BBBC70
ENDCHAR
STARTCHAR ij
ENCODING 307
SWIDTH 419 0
DWIDTH 7 0
BBX 5 13 1 -2
BITMAP
B10560
910550
000000
A10560
B10660
B10660
B10660
B10660
B10660
B10660
B10660
000940
05C900
ENDCHAR
STARTCHAR Jcircumflex
ENCODING 308
SWIDTH 494 0
DWIDTH 8 0
BBX 8 13 0 0
BITMAP
000006A1
00001928
00000000
000001A0
000001B0
000001B0
000001B0
000001B0
000001B0
440001B0
660001B0
49000580
08CBBB10
ENDCHAR
STARTCHAR jcircumflex
ENCODING 309
SWIDTH 209 0
DWIDTH 3 0
BBX 5 13 -1 -2
BITMAP
01B500
091910
000000
00A100
00B100
00B100
00B100
00B100
00B100
00B100
00B100
01D000
9C5000
ENDCHAR
STARTCHAR uni0136
ENCODING 310
SWIDTH 530 0
DWIDTH 8 0
BBX 7 14 1 -4
BITMAP
92000A40
A2007800
A203B000
A21C1000
A3B70000
AA6B2000
A803B000
A2007700
A2000B20
920002B0
00051000
000B1000
00090000
00040000
ENDCHAR
STARTCHAR uni0137
ENCODING 311
SWIDTH 431 0
DWIDTH 7 0
BBX 6 15 1 -4
BITMAP
C00000
C00000
C00000
C000B3
C00680
C02C00
C0B300
C09500
C01C20
C003B0
C00077
000000
009300
009200
006000
ENDCHAR
STARTCHAR Lacute
ENCODING 313
SWIDTH 451 0
DWIDTH 7 0
BBX 6 13 1 0
BITMAP
0A5000
470000
000000
920000
A20000
A20000
A20000
A20000
A20000
A20000
A20000
A20000
9CBBB8
ENDCHAR
STARTCHAR lacute
ENCODING 314
SWIDTH 207 0
DWIDTH 3 0
BBX 3 14 1 0
BITMAP
0B30
6600
0000
A100
B100
B100
B100
B100
B100
B100
B100
B100
B100
B100
ENDCHAR
STARTCHAR uni013B
ENCODING 315
SWIDTH 451 0
DWIDTH 7 0
BBX 6 14 1 -4
BITMAP
920000
A20000
A20000
A20000
A20000
A20000
A20000
A20000
A20000
9CBBB8
000000
005700
005500
005100
ENDCHAR
STARTCHAR uni013C
ENCODING 316
SWIDTH 211 0
DWIDTH 3 0
BBX 2 15 1 -4
BITMAP
A1
B1
B1
B1
B1
B1
B1
B1
B1
B1
B1
00
B1
A0
60
ENDCHAR
STARTCHAR Lcaron
ENCODING 317
SWIDTH 451 0
DWIDTH 7 0
BBX 6 10 1 0
BITMAP
9201C0
A201C0
A20190
A20140
A20000
A20000
A20000
A20000
A20000
9CBBB8
ENDCHAR
STARTCHAR lcaron
ENCODING 318
SWIDTH 274 0
DWIDTH 4 0
BBX 4 11 1 0
BITMAP
A1B2
B1B1
B190
B150
B100
B100
B100
B100
B100
B100
B100
ENDCHAR
STARTCHAR Ldot
ENCODING 319
SWIDTH 500 0
DWIDTH 8 0
BBX 6 10 1 0
BITMAP
930000
930000
930000
930100
930850
930850
930000
930000
930000
9CBBB9
ENDCHAR
STARTCHAR ldot
ENCODING 320
SWIDTH 314 0
DWIDTH 5 0
BBX 4 11 1 0
BITMAP
A100
B200
B200
B200
B210
B285
B285
B200
B200
B200
A100
ENDCHAR
STARTCHAR Lslash
ENCODING 321
SWIDTH 504 0
DWIDTH 8 0
BBX 7 10 0 0
BITMAP
08400000
08400000
087A1000
1BA10000
8A400000
08400000
08400000
08400000
08400000
08CBBBA0
ENDCHAR
STARTCHAR lslash
ENCODING 322
SWIDTH 296 0
DWIDTH 5 0
BBX 5 11 0 0
BITMAP
01B000
01C000
01C000
01C830
07D300
65C000
01C000
01C000
01C000
01C000
01B000
ENDCHAR
STARTCHAR Nacute
ENCODING 323
SWIDTH 579 0
DWIDTH 9 0
BBX 7 13 1 0
BITMAP
0000A500
00047000
00000000
960000B0
AD1000C0
A79000C0
A2A300C0
A22B00C0
A20760C0
A200C1C0
A20049C0
A2000AD0
920002D0
ENDCHAR
STARTCHAR nacute
ENCODING 324
SWIDTH 507 0
DWIDTH 8 0
BBX 6 11 1 0
BITMAP
0005A0
001A00
000000
B7BBC4
C4001C
C0000C
C0000C
C0000C
C0000C
C0000C
C0000B
ENDCHAR
STARTCHAR uni0145
ENCODING 325
SWIDTH 579 0
DWIDTH 9 0
BBX 7 14 1 -4
BITMAP
960000B0
AD1000C0
A79000C0
A2A300C0
A22B00C0
A20760C0
A200C1C0
A20049C0
A2000AD0
920002D0
00000000
000B1000
000A0000
00060000
ENDCHAR
STARTCHAR uni0146
ENCODING 326
SWIDTH 505 0
DWIDTH 8 0
BBX 6 12 1 -4
BITMAP
B7BBC4
C4001C
C0000C
C0000C
C0000C
C0000C
C0000C
C0000B
000000
004800
005600
004100
ENDCHAR
STARTCHAR Ncaron
ENCODING 327
SWIDTH 579 0
DWIDTH 9 0
BBX 7 13 1 0
BITMAP
00919100
001B5000
00000000
960000B0
AD1000C0
A79000C0
A2A300C0
A22B00C0
A20760C0
A200C1C0
A20049C0
A2000AD0
920002D0
ENDCHAR
STARTCHAR ncaron
ENCODING 328
SWIDTH 507 0
DWIDTH 8 0
BBX 6 11 1 0
BITMAP
037460
008A00
000000
B7BBC4
C4001C
C0000C
C0000C
C0000C
C0000C
C0000C
C0000B
ENDCHAR
STARTCHAR Eng
ENCODING 330
SWIDTH 519 0
DWIDTH 8 0
BBX 7 12 1 -2
BITMAP
960000C0
9D1000C0
979000C0
93A300C0
932B00C0
930760C0
9300C1C0
930049C0
93000AE0
930002D0
000001B0
0000AC30
ENDCHAR
STARTCHAR eng
ENCODING 331
SWIDTH 507 0
DWIDTH 8 0
BBX 6 10 1 -2
BITMAP
B7BBC4
C4001C
C0000C
C0000C
C0000C
C0000C
C0000C
C0000C
00001C
000AC4
ENDCHAR
STARTCHAR Omacron
ENCODING 332
SWIDTH 553 0
DWIDTH 9 0
BBX 7 13 1 0
BITMAP
04BBB200
00000000
00000000
2BBBBB10
A3000680
C00002A0
C00002A0
C00002A0
C00002A0
C00002A0
C00002A0
A3000680
2BBBBB10
ENDCHAR
STARTCHAR omacron
ENCODING 333
SWIDTH 496 0
DWIDTH 8 0
BBX 6 10 1 0
BITMAP
09BB80
000000
4CBBC3
C1002B
C0000C
C0000C
C0000C
C0000C
C1002B
4CBBC3
ENDCHAR
STARTCHAR Obreve
ENCODING 334
SWIDTH 553 0
DWIDTH 9 0
BBX 7 13 1 0
BITMAP
02708000
00775000
00000000
2BBBBB10
A3000680
C00002A0
C00002A0
C00002A0
C00002A0
C00002A0
C00002A0
A3000680
2BBBBB10
ENDCHAR
STARTCHAR obreve
ENCODING 335
SWIDTH 496 0
DWIDTH 8 0
BBX 6 11 1 0
BITMAP
080170
028820
000000
4CBBC3
C1002B
C0000C
C0000C
C0000C
C0000C
C1002B
4CBBC3
ENDCHAR
STARTCHAR Ohungarumlaut
ENCODING 336
SWIDTH 553 0
DWIDTH 9 0
BBX 7 13 1 0
BITMAP
002A2A00
00818100
00000000
2BBBBB10
A3000680
C00002A0
C00002A0
C00002A0
C00002A0
C00002A0
C00002A0
A3000680
2BBBBB10
ENDCHAR
STARTCHAR ohungarumlaut
ENCODING 337
SWIDTH 496 0
DWIDTH 8 0
BBX 6 11 1 0
BITMAP
006665
019180
000000
4CBBC3
C1002B
C0000C
C0000C
C0000C
C0000C
C1002B
4CBBC3
ENDCHAR
STARTCHAR OE
ENCODING 338
SWIDTH 775 0
DWIDTH 12 0
BBX 11 10 1 0
BITMAP
2BBBCEBBBB20
A4001B000000
C1001B000000
C0001B000000
C0001EBBB800
C0001B000000
C0001B000000
C1001B000000
A4001B000000
2BBBCEBBBB20
ENDCHAR
STARTCHAR oe
ENCODING 339
SWIDTH 812 0
DWIDTH 13 0
BBX 11 8 1 0
BITMAP
4CBBB4BBBC30
C1002F2002B0
C0000C0000C0
C0000C0000C0
C0000EBBBBC0
C0000C000000
C1002F100000
4CBBB5BBBB90
ENDCHAR
STARTCHAR Racute
ENCODING 340
SWIDTH 534 0
DWIDTH 9 0
BBX 7 13 1 0
BITMAP
00087000
00390000
00000000
9CBBC900
A2000940
A2000660
A2000660
A2000A40
ACBCD700
A200C100
A2006800
A2000C10
92000670
ENDCHAR
STARTCHAR racute
ENCODING 341
SWIDTH 313 0
DWIDTH 5 0
BBX 4 11 1 0
BITMAP
02C1
0920
0000
B7B6
C500
C000
C000
C000
C000
C000
C000
ENDCHAR
STARTCHAR uni0156
ENCODING 342
SWIDTH 534 0
DWIDTH 9 0
BBX 7 14 1 -4
BITMAP
9CBBC900
A2000940
A2000660
A2000660
A2000A40
ACBCD700
A200C100
A2006800
A2000C10
92000670
00000000
002A0000
00280000
00230000
ENDCHAR
STARTCHAR uni0157
ENCODING 343
SWIDTH 313 0
DWIDTH 5 0
BBX 4 12 1 -4
BITMAP
B7B6
C500
C000
C000
C000
C000
C000
C000
0000
C000
B000
6000
ENDCHAR
STARTCHAR Rcaron
ENCODING 344
SWIDTH 534 0
DWIDTH 9 0
BBX 7 13 1 0
BITMAP
04655000
00990000
00000000
9CBBC900
A2000940
A2000660
A2000660
A2000A40
ACBCD700
A200C100
A2006800
A2000C10
92000670
ENDCHAR
STARTCHAR rcaron
ENCODING 345
SWIDTH 313 0
DWIDTH 5 0
BBX 4 11 1 0
BITMAP
7382
1A70
0000
B7B6
C500
C000
C000
C000
C000
C000
C000
ENDCHAR
STARTCHAR Sacute
ENCODING 346
SWIDTH 562 0
DWIDTH 9 0
BBX 7 13 1 0
BITMAP
0002C100
00092000
00000000
1BBBBB10
95000580
B2000280
94000000
2B952000
00259B10
00000590
A10002B0
85000590
1BBBBB10
ENDCHAR
STARTCHAR sacute
ENCODING 347
SWIDTH 427 0
DWIDTH 7 0
BBX 6 11 0 0
BITMAP
000590
001A00
000000
09CBB7
2B0000
1C0000
04A820
000398
00000D
00000D
1BBBC6
ENDCHAR
STARTCHAR Scircumflex
ENCODING 348
SWIDTH 562 0
DWIDTH 9 0
BBX 7 13 1 0
BITMAP
003B3000
00A1A000
00000000
1BBBBB10
95000580
B2000280
94000000
2B952000
00259B10
00000590
A10002B0
85000590
1BBBBB10
ENDCHAR
STARTCHAR scircumflex
ENCODING 349
SWIDTH 427 0
DWIDTH 7 0
BBX 6 11 0 0
BITMAP
005B20
01A190
000000
09CBB7
2B0000
1C0000
04A820
000398
00000D
00000D
1BBBC6
ENDCHAR
STARTCHAR uni015E
ENCODING 350
SWIDTH 562 0
DWIDTH 9 0
BBX 7 13 1 -3
BITMAP
1BBBBB10
95000580
B2000280
94000000
2B952000
00259B10
00000590
A10002B0
85000590
1BBBBB10
000A0000
002C7000
001B7000
ENDCHAR
STARTCHAR uni015F
ENCODING 351
SWIDTH 427 0
DWIDTH 7 0
BBX 6 11 0 -3
BITMAP
09CBB7
2B0000
1C0000
04A820
000397
00000D
00000D
1BBBC7
001A00
004C60
002B60
ENDCHAR
STARTCHAR Scaron
ENCODING 352
SWIDTH 562 0
DWIDTH 9 0
BBX 7 13 1 0
BITMAP
00A19000
004B3000
00000000
1BBBBB10
95000580
B2000280
94000000
2B952000
00259B10
00000590
A10002B0
85000590
1BBBBB10
ENDCHAR
STARTCHAR scaron
ENCODING 353
SWIDTH 427 0
DWIDTH 7 0
BBX 6 11 0 0
BITMAP
01A190
005B20
000000
09CBB7
2B0000
1C0000
04A820
000398
00000D
00000D
1BBBC6
ENDCHAR
STARTCHAR uni0162
ENCODING 354
SWIDTH 420 0
DWIDTH 7 0
BBX 7 14 0 -4
BITMAP
8BCEBB40
001C0000
001C0000
001C0000
001C0000
001C0000
001C0000
001C0000
001C0000
001B0000
00060000
001C0000
00180000
00130000
ENDCHAR
STARTCHAR uni0163
ENCODING 355
SWIDTH 347 0
DWIDTH 6 0
BBX 5 14 0 -4
BITMAP
024000
058000
6DDB80
048000
048000
048000
048000
048000
02B000
007CA0
001600
002B00
002800
001300
ENDCHAR
STARTCHAR Tcaron
ENCODING 356
SWIDTH 420 0
DWIDTH 7 0
BBX 7 13 0 0
BITMAP
01A19000
005B2000
00000000
8BCEBB40
001C0000
001C0000
001C0000
001C0000
001C0000
001C0000
001C0000
001C0000
001B0000
ENDCHAR
STARTCHAR tcaron
ENCODING 357
SWIDTH 396 0
DWIDTH 6 0
BBX 7 10 0 0
BITMAP
02400930
05800A30
6DDB8900
04800500
04800000
04800000
04800000
04800000
02B00000
007CA000
ENDCHAR
STARTCHAR Tbar
ENCODING 358
SWIDTH 501 0
DWIDTH 8 0
BBX 7 10 0 0
BITMAP
7BBEBB60
000C0000
000C0000
000C0000
09BFB900
000C0000
000C0000
000C0000
000C0000
000C0000
ENDCHAR
STARTCHAR tbar
ENCODING 359
SWIDTH 350 0
DWIDTH 6 0
BBX 5 10 0 0
BITMAP
024000
048000
6CDB80
048000
048000
6DEB80
048000
048000
02B000
007CA0
ENDCHAR
STARTCHAR Utilde
ENCODING 360
SWIDTH 552 0
DWIDTH 9 0
BBX 7 13 1 0
BITMAP
0439B000
02B65100
00000000
A1000380
B1000480
B1000480
B1000480
B1000480
B1000480
B1000480
B1000480
94000760
2BBBBA10
ENDCHAR
STARTCHAR utilde
ENCODING 361
SWIDTH 507 0
DWIDTH 8 0
BBX 6 11 1 0
BITMAP
072C80
07B160
000000
C0000C
C0000C
C0000C
C0000C
C0000C
C0000C
B2002D
3CBB9C
ENDCHAR
STARTCHAR Umacron
ENCODING 362
SWIDTH 552 0
DWIDTH 9 0
BBX 7 13 1 0
BITMAP
04BBB200
00000000
00000000
A1000380
B1000480
B1000480
B1000480
B1000480
B1000480
B1000480
B1000480
94000760
2BBBBA10
ENDCHAR
STARTCHAR umacron
ENCODING 363
SWIDTH 507 0
DWIDTH 8 0
BBX 6 10 1 0
BITMAP
08BB90
000000
C0000C
C0000C
C0000C
C0000C
C0000C
C0000C
B2002D
3CBB9C
ENDCHAR
STARTCHAR Ubreve
ENCODING 364
SWIDTH 552 0
DWIDTH 9 0
BBX 7 13 1 0
BITMAP
02708000
00775000
00000000
A1000380
B1000480
B1000480
B1000480
B1000480
B1000480
B1000480
B1000480
94000760
2BBBBA10
ENDCHAR
STARTCHAR ubreve
ENCODING 365
SWIDTH 507 0
DWIDTH 8 0
BBX 6 11 1 0
BITMAP
081080
028820
000000
C0000C
C0000C
C0000C
C0000C
C0000C
C0000C
B2002D
3CBB9C
ENDCHAR
STARTCHAR Uring
ENCODING 366
SWIDTH 552 0
DWIDTH 9 0
BBX 7 14 1 0
BITMAP
007C5000
00808000
00919000
006B4000
A1000380
B1000480
B1000480
B1000480
B1000480
B1000480
B1000480
B1000480
94000760
2BBBBA10
ENDCHAR
STARTCHAR uring
ENCODING 367
SWIDTH 507 0
DWIDTH 8 0
BBX 6 12 1 0
BITMAP
04CA00
070710
070710
04CA00
C0000C
C0000C
C0000C
C0000C
C0000C
C0000C
B2002D
3CBB9C
ENDCHAR
STARTCHAR Uhungarumlaut
ENCODING 368
SWIDTH 552 0
DWIDTH 9 0
BBX 7 13 1 0
BITMAP
002A3900
00919100
00000000
A1000380
B1000480
B1000480
B1000480
B1000480
B1000480
B1000480
B1000480
94000760
2BBBBA10
ENDCHAR
STARTCHAR uhungarumlaut
ENCODING 369
SWIDTH 507 0
DWIDTH 8 0
BBX 6 11 1 0
BITMAP
006665
019190
000000
C0000C
C0000C
C0000C
C0000C
C0000C
C0000C
B2002D
3CBB9C
ENDCHAR
STARTCHAR Uogonek
ENCODING 370
SWIDTH 552 0
DWIDTH 9 0
BBX 7 12 1 -2
BITMAP
A1000380
B1000480
B1000480
B1000480
B1000480
B1000480
B1000480
B1000480
94000760
2BBBBA10
00170000
005B1000
ENDCHAR
STARTCHAR uogonek
ENCODING 371
SWIDTH 503 0
DWIDTH 8 0
BBX 6 10 1 -2
BITMAP
C0000C
C0000C
C0000C
C0000C
C0000C
C0000C
B2002D
3CBB9C
000062
0000B5
ENDCHAR
STARTCHAR Wcircumflex
ENCODING 372
SWIDTH 795 0
DWIDTH 13 0
BBX 13 13 0 0
BITMAP
000005B2000000
00001919000000
00000000000000
670004E0000C10
3A0008B3000D00
0D000B47003A00
0B201A0B006700
0850560A10A300
0480920650C000
01B0B00291B000
00C39000B48000
00994000994000
005E10005F1000
ENDCHAR
STARTCHAR wcircumflex
ENCODING 373
SWIDTH 682 0
DWIDTH 11 0
BBX 11 11 0 0
BITMAP
00004B300000
0000A1A00000
000000000000
84001E100570
48005C400A30
0C0094800C00
0A20A0B03900
066280A17500
02A74065B100
00BA001AB000
007B000C6000
ENDCHAR
STARTCHAR Ycircumflex
ENCODING 374
SWIDTH 493 0
DWIDTH 8 0
BBX 8 13 0 0
BITMAP
00098000
00657400
00000000
67000094
0C1002B0
06800940
00C12B00
00589400
000CB000
00075000
00075000
00075000
00075000
ENDCHAR
STARTCHAR ycircumflex
ENCODING 375
SWIDTH 459 0
DWIDTH 7 0
BBX 7 13 0 -2
BITMAP
001A7000
00738200
00000000
660001B0
1B000660
0A200B10
05802A00
00C08500
0084C000
003C9000
000A3000
002C0000
2BB20000
ENDCHAR
STARTCHAR Ydieresis
ENCODING 376
SWIDTH 493 0
DWIDTH 8 0
BBX 8 13 0 0
BITMAP
00B02900
00B02900
00000000
67000094
0C1002B0
06800940
00C12B00
00589400
000CB000
00075000
00075000
00075000
00075000
ENDCHAR
STARTCHAR Zacute
ENCODING 377
SWIDTH 482 0
DWIDTH 8 0
BBX 7 13 0 0
BITMAP
00006900
0001A000
00000000
1BBBBCD0
00000870
00002C00
0000B300
00069000
001C1000
00950000
04A00000
0C200000
4EBBBBB0
ENDCHAR
STARTCHAR zacute
ENCODING 378
SWIDTH 405 0
DWIDTH 6 0
BBX 6 11 0 0
BITMAP
0001C2
000840
000000
3BBBCC
0000A4
0004A0
001C10
009600
03B000
0C2000
5EBBBA
ENDCHAR
STARTCHAR Zdotaccent
ENCODING 379
SWIDTH 482 0
DWIDTH 8 0
BBX 7 13 0 0
BITMAP
00038000
00038000
00000000
1BBBBCD0
00000870
00002C00
0000B300
00069000
001C1000
00950000
04A00000
0C200000
4EBBBBB0
ENDCHAR
STARTCHAR zdotaccent
ENCODING 380
SWIDTH 405 0
DWIDTH 6 0
BBX 6 11 0 0
BITMAP
000C00
000B00
000000
3BBBCC
0000A4
0004A0
001C10
009600
03B000
0C2000
5EBBBA
ENDCHAR
STARTCHAR Zcaron
ENCODING 381
SWIDTH 482 0
DWIDTH 8 0
BBX 7 13 0 0
BITMAP
00374600
0008A000
00000000
1BBBBCD0
00000870
00002C00
0000B300
00069000
001C1000
00950000
04A00000
0C200000
4EBBBBB0
ENDCHAR
STARTCHAR zcaron
ENCODING 382
SWIDTH 405 0
DWIDTH 6 0
BBX 6 11 0 0
BITMAP
0091A0
002B40
000000
3BBBCC
0000A4
0004A0
001C10
009600
03B000
0C2000
5EBBBA
ENDCHAR
STARTCHAR florin
ENCODING 402
SWIDTH 494 0
DWIDTH 8 0
BBX 8 13 0 -2
BITMAP
000008B6
00005800
0000A300
0000C000
009CEB70
00057000
00084000
000B1000
000C0000
002A0000
00660000
00B20000
7C600000
ENDCHAR
STARTCHAR AEacute
ENCODING 508
SWIDTH 773 0
DWIDTH 12 0
BBX 12 13 0 0
BITMAP
0000000B4000
000000560000
000000000000
00000BFBBBB3
000049C00000
0000B1C00000
000650C00000
001A00EBBB90
008200C00000
02DBBBD00000
091000C00000
380000C00000
B10000EBBBB3
ENDCHAR
STARTCHAR aeacute
ENCODING 509
SWIDTH 795 0
DWIDTH 13 0
BBX 11 11 1 0
BITMAP
000001C20000
000008300000
000000000000
1BBBB4CBBB10
00003E100480
00000C0001A0
2BBBCC0001B0
B2000FBBBC90
C0000C000000
C1003E100000
4CBBA5CBBB70
ENDCHAR
STARTCHAR Oslashacute
ENCODING 510
SWIDTH 558 0
DWIDTH 9 0
BBX 9 13 0 0
BITMAP
00002C1000
0000920000
0000000000
02BBBBA710
0A40007A00
0B1002BB00
0C000A3B00
0C00842B00
0C04702B00
0C29002B00
0BA1002B00
0B60005900
28BBBBB200
ENDCHAR
STARTCHAR oslashacute
ENCODING 511
SWIDTH 521 0
DWIDTH 8 0
BBX 8 11 0 0
BITMAP
00003B00
0000A100
00000000
02BBBC56
094001E4
0B1009D2
0C00A3B2
0C1A30B2
0BA200B2
1D5001D0
44BCBC50
ENDCHAR
STARTCHAR uni0218
ENCODING 536
SWIDTH 562 0
DWIDTH 9 0
BBX 7 14 1 -4
BITMAP
1BBBBB10
95000580
B2000280
94000000
2B952000
00259B10
00000590
A10002B0
85000590
1BBBBB10
00000000
000B1000
000B0000
00060000
ENDCHAR
STARTCHAR uni0219
ENCODING 537
SWIDTH 427 0
DWIDTH 7 0
BBX 6 12 0 -4
BITMAP
09CBB7
2B0000
1C0000
04A820
000398
00000D
00000D
1BBBC6
000600
000C00
000900
000400
ENDCHAR
STARTCHAR circumflex
ENCODING 710
SWIDTH 326 0
DWIDTH 5 0
BBX 3 2 1 9
BITMAP
2B50
9190
ENDCHAR
STARTCHAR caron
ENCODING 711
SWIDTH 326 0
DWIDTH 5 0
BBX 3 2 1 9
BITMAP
91A0
2B40
ENDCHAR
STARTCHAR uni02C9
ENCODING 713
SWIDTH 358 0
DWIDTH 6 0
BBX 4 1 1 9
BITMAP
ABB7
ENDCHAR
STARTCHAR breve
ENCODING 728
SWIDTH 332 0
DWIDTH 5 0
BBX 4 2 1 9
BITMAP
9053
5870
ENDCHAR
STARTCHAR dotaccent
ENCODING 729
SWIDTH 183 0
DWIDTH 3 0
BBX 1 2 1 9
BITMAP
C0
B0
ENDCHAR
STARTCHAR ring
ENCODING 730
SWIDTH 297 0
DWIDTH 5 0
BBX 4 3 0 8
BITMAP
1BB3
3516
1BB3
ENDCHAR
STARTCHAR ogonek
ENCODING 731
SWIDTH 243 0
DWIDTH 4 0
BBX 2 3 1 -2
BITMAP
02
53
A6
ENDCHAR
STARTCHAR tilde
ENCODING 732
SWIDTH 369 0
DWIDTH 6 0
BBX 4 3 1 8
BITMAP
72C4
8817
9806
ENDCHAR
STARTCHAR hungarumlaut
ENCODING 733
SWIDTH 377 0
DWIDTH 6 0
BBX 4 2 1 9
BITMAP
2A29
9191
ENDCHAR
STARTCHAR Mu
ENCODING 924
SWIDTH 527 0
DWIDTH 8 0
BBX 7 11 1 -2
BITMAP
51000510
A2000A20
A2000A20
A2000A20
A2000A20
A2000A20
A3000B20
AB447E20
A5774510
A2000000
51000000
ENDCHAR
STARTCHAR Pi
ENCODING 928
SWIDTH 605 0
DWIDTH 10 0
BBX 10 10 0 0
BITMAP
4BECBBDDB1
00A2007500
00A2007500
00A2007500
00A2007500
00A2007500
00A2007500
00A2007500
00A2007500
0051003200
ENDCHAR
STARTCHAR Sigma
ENCODING 931
SWIDTH 481 0
DWIDTH 8 0
BBX 6 10 1 0
BITMAP
EBBBB8
760000
0B2000
02B000
007700
00B300
068000
2B0000
B64443
788886
ENDCHAR
STARTCHAR uni0901
ENCODING 2305
SWIDTH 0 0
DWIDTH 0 0
BBX 6 3 -5 11
BITMAP
112602
48002A
08AAA2
ENDCHAR
STARTCHAR uni0902
ENCODING 2306
SWIDTH 0 0
DWIDTH 0 0
BBX 2 1 -3 12
BITMAP
36
ENDCHAR
STARTCHAR uni0903
ENCODING 2307
SWIDTH 247 0
DWIDTH 4 0
BBX 2 6 1 1
BITMAP
54
00
00
00
00
54
ENDCHAR
STARTCHAR uni0905
ENCODING 2309
SWIDTH 598 0
DWIDTH 10 0
BBX 10 10 0 0
BITMAP
09BC500AC8
0001C00A10
0000B10A10
0001C00A10
04BE500A10
0001DBBE10
0000B10A10
0000C00A10
4BBC500A10
0000000500
ENDCHAR
STARTCHAR uni0906
ENCODING 2310
SWIDTH 828 0
DWIDTH 13 0
BBX 14 10 0 0
BITMAP
09BC400ACBBEB5
0001C00B100C00
0000B00B100C00
0001C00B100C00
05BE500B100C00
0001DBBE100C00
0000B00B100C00
0001C00B100C00
5BBC400B100C00
00000005000500
ENDCHAR
STARTCHAR uni0907
ENCODING 2311
SWIDTH 478 0
DWIDTH 8 0
BBX 9 10 -1 0
BITMAP
2BBBBBEC90
0000009300
004BBBC200
00B1000000
00B1000000
004BBBB200
0000004900
00B0002900
00D7448700
00B4775000
ENDCHAR
STARTCHAR uni0908
ENCODING 2312
SWIDTH 478 0
DWIDTH 8 0
BBX 9 14 -1 0
BITMAP
000004CB20
00000C1000
00000C0000
00000B0000
2BBBBBEC90
0000009300
004BBBC200
00B1000000
00B1000000
004BBBB200
0000004900
00B0002900
00D7448700
00B4775000
ENDCHAR
STARTCHAR uni0909
ENCODING 2313
SWIDTH 471 0
DWIDTH 8 0
BBX 9 10 -1 0
BITMAP
2BBBBCEB80
0000009300
0000006500
000000A300
0000BDA000
0000009400
0370005700
0390005600
00C645C200
0016772000
ENDCHAR
STARTCHAR uni090A
ENCODING 2314
SWIDTH 661 0
DWIDTH 11 0
BBX 12 10 -1 0
BITMAP
2BBBBCEBBBB8
000000930000
000000650000
000000920000
0000BDECBB30
0000009601C0
0380005700B0
0390005600B0
00C645C127A0
001677204600
ENDCHAR
STARTCHAR uni090B
ENCODING 2315
SWIDTH 753 0
DWIDTH 12 0
BBX 14 10 -1 0
BITMAP
2BBBBBDDBBBBB2
00000056000000
003BBB9601AA00
00B200A63C3B00
00C0006BB10B00
0050008A05AA00
000009C60C0000
0001B5560B0000
002C30560B5400
00520023016700
ENDCHAR
STARTCHAR uni090C
ENCODING 2316
SWIDTH 676 0
DWIDTH 11 0
BBX 12 13 -1 -3
BITMAP
2BBBBBBBBDDB
000000000650
002AB83BBA50
00A306C10A50
00B002A00750
00C002900650
00C000200650
00B200000650
003BB4001850
00000003C820
000000074000
000000067017
000000009BB5
ENDCHAR
STARTCHAR uni090D
ENCODING 2317
SWIDTH 521 0
DWIDTH 8 0
BBX 10 13 -1 1
BITMAP
001B000B00
0006AAA400
0000000000
0000000000
2BDCBBBDD7
0083000740
0083000740
0083000A30
008308B700
0083000000
0083000000
0067000000
0009CBB900
ENDCHAR
STARTCHAR uni090E
ENCODING 2318
SWIDTH 522 0
DWIDTH 8 0
BBX 10 13 -1 1
BITMAP
0000B00000
0000791000
000005B600
0000000A40
2BDCBBBDD7
0083000740
0083000740
0083000A30
008308B700
0083000000
0083000000
0067000000
0009CBB900
ENDCHAR
STARTCHAR uni090F
ENCODING 2319
SWIDTH 526 0
DWIDTH 8 0
BBX 10 9 -1 1
BITMAP
2BDCBBBDD7
0083000740
0083000740
0083000A30
008308B700
0083000000
0083000000
0067000000
0009CBB900
ENDCHAR
STARTCHAR uni0910
ENCODING 2320
SWIDTH 526 0
DWIDTH 8 0
BBX 10 13 -1 1
BITMAP
00000C1000
0000049000
0000008400
0000000A10
2BDCBBBDD7
0083000740
0083000740
0083000A30
008308B700
0083000000
0083000000
0067000000
0009CBB900
ENDCHAR
STARTCHAR uni0911
ENCODING 2321
SWIDTH 829 0
DWIDTH 13 0
BBX 14 14 0 0
BITMAP
0000000B000910
0000000A200B00
00000002AAA500
00000000000000
09BC500ACBBEB5
0001C00A100C00
0000B10A100C00
0001C00A100C00
04BE500A100C00
0001DBBE100C00
0000B10A100C00
0000C00A100C00
4BBC500A100C00
00000005000500
ENDCHAR
STARTCHAR uni0912
ENCODING 2322
SWIDTH 828 0
DWIDTH 13 0
BBX 14 14 0 0
BITMAP
00000005700000
00000001C30000
0000000019A200
00000000003B00
09BC500ACBBEB5
0001C00A100C00
0000B10A100C00
0001C00A100C00
04BE500A100C00
0001DBBE100C00
0000B10A100C00
0000C00A100C00
4BBC500A100C00
00000005000500
ENDCHAR
STARTCHAR uni0913
ENCODING 2323
SWIDTH 829 0
DWIDTH 13 0
BBX 14 14 0 0
BITMAP
00000000770000
000000000B2000
0000000002B000
00000000005700
09BC500ACBBEB5
0001C00A100C00
0000B10A100C00
0001C00A100C00
04BE500A100C00
0001DBBE100C00
0000B10A100C00
0000C00A100C00
4BBC500A100C00
00000005000500
ENDCHAR
STARTCHAR uni0914
ENCODING 2324
SWIDTH 829 0
DWIDTH 13 0
BBX 14 14 0 0
BITMAP
00000000840B00
000000001B1B00
00000000039A00
00000000006B00
09BC500ACBBEB5
0001C00A100C00
0000B10A100C00
0001C00A100C00
04BE500A100C00
0001DBBE100C00
0000B10A100C00
0000C00A100C00
4BBC500A100C00
00000005000500
ENDCHAR
STARTCHAR uni0915
ENCODING 2325
SWIDTH 725 0
DWIDTH 12 0
BBX 13 10 -1 0
BITMAP
2BBBBBECBBBB90
00000093000000
003BB298BB9100
00C20097006700
00B00093002900
00B00093002900
00C201C3006700
003BBAA36B9100
00000093000000
00000041000000
ENDCHAR
STARTCHAR uni0916
ENCODING 2326
SWIDTH 696 0
DWIDTH 11 0
BBX 13 10 -1 0
BITMAP
2BBBECBBBCEB30
0000A10001A000
0000A13B81A000
0000C0B201A000
06CB60C001A000
01C000B205A000
0058003BB7A000
000A300001A000
0001C00001A000
00004200005000
ENDCHAR
STARTCHAR uni0917
ENCODING 2327
SWIDTH 494 0
DWIDTH 8 0
BBX 10 10 -1 0
BITMAP
2BBEBBDDB1
000C005700
000C005700
000C005700
002C005700
07B3005700
0000005700
0000005700
0000005700
0000002300
ENDCHAR
STARTCHAR uni0918
ENCODING 2328
SWIDTH 559 0
DWIDTH 9 0
BBX 11 10 -1 0
BITMAP
2BDDBBBDDB10
00B100047000
00B100047000
003EB4047000
00A200047000
00C000057000
00B300097000
002BBBB87000
000000047000
000000023000
ENDCHAR
STARTCHAR uni0919
ENCODING 2329
SWIDTH 505 0
DWIDTH 8 0
BBX 10 10 -1 0
BITMAP
2BBBBBECB3
0000009200
003BBBC100
00B1000000
00B1000360
003BBBA200
0000005800
0090003900
00A6449600
0016775000
ENDCHAR
STARTCHAR uni091A
ENCODING 2330
SWIDTH 563 0
DWIDTH 9 0
BBX 11 10 -1 0
BITMAP
2BBBBBBCDB20
000000048000
07BCCB148000
001B00048000
004700048000
004700048000
001B10088000
0005BBB88000
000000048000
000000014000
ENDCHAR
STARTCHAR uni091B
ENCODING 2331
SWIDTH 581 0
DWIDTH 9 0
BBX 11 9 -1 1
BITMAP
2BCEBBBCEB50
00A20001B000
00C00001B000
00A3007C9000
002EB100B100
00A300009200
00C000009200
00A20000C000
003BBBBC6000
ENDCHAR
STARTCHAR uni091C
ENCODING 2332
SWIDTH 547 0
DWIDTH 9 0
BBX 10 10 -1 0
BITMAP
2BBBBBBDCA
0000000740
0000000740
009CDBBD40
0000930740
0000570740
0000570740
0000940740
05BB800740
0000000320
ENDCHAR
STARTCHAR uni091D
ENCODING 2333
SWIDTH 664 0
DWIDTH 11 0
BBX 12 10 -1 0
BITMAP
2BBBBCEBBEC9
000002900920
004BBC700920
00B100000920
00B100000920
004BBCDBBE20
00B000B10920
00D100B10920
00CBBB800920
00B000000410
ENDCHAR
STARTCHAR uni091E
ENCODING 2334
SWIDTH 592 0
DWIDTH 9 0
BBX 11 10 -1 0
BITMAP
2BBBBBBBEB70
00000000C000
00BBA200C000
00005900C000
00001EBBE000
00001A00C000
00005700C000
03BB9100C000
00000000C000
000000005000
ENDCHAR
STARTCHAR uni091F
ENCODING 2335
SWIDTH 485 0
DWIDTH 8 0
BBX 9 9 -1 1
BITMAP
2BBBBBECA0
000000B100
002ABBC100
00A3000000
00B0000000
00C0000300
00B0000B00
00B2001B00
003BBBB300
ENDCHAR
STARTCHAR uni0920
ENCODING 2336
SWIDTH 512 0
DWIDTH 8 0
BBX 10 9 -1 1
BITMAP
2BBBBBDCB4
0000008300
002ABCD200
00A3003B00
00B0000C00
00C0000C00
00C0000C00
00B2001B00
003BBBC300
ENDCHAR
STARTCHAR uni0921
ENCODING 2337
SWIDTH 475 0
DWIDTH 8 0
BBX 9 10 -1 0
BITMAP
2BBBBBEC90
0000009200
003BBBC100
00B1000000
00B1000000
003BBBA200
0000005800
0090003900
00A5339600
0016775000
ENDCHAR
STARTCHAR uni0922
ENCODING 2338
SWIDTH 485 0
DWIDTH 8 0
BBX 9 9 -1 1
BITMAP
2BBBBBECB0
0000009200
002ABBC200
00A3000000
00B0000000
00B009B700
00B0290B00
00A2010B00
003BBBC600
ENDCHAR
STARTCHAR uni0923
ENCODING 2339
SWIDTH 681 0
DWIDTH 11 0
BBX 13 10 -1 0
BITMAP
2BECBBEBBDDB10
00A100B0057000
00A100B0057000
00A100B0057000
00A100B0057000
008402B0057000
001ABB30057000
00000000057000
00000000057000
00000000023000
ENDCHAR
STARTCHAR uni0924
ENCODING 2340
SWIDTH 496 0
DWIDTH 8 0
BBX 10 10 -1 0
BITMAP
2BBBBBDDB1
0000004700
0000004700
003BBBD700
00B2004700
00C0004700
00C0004700
00C0004700
0097304700
0005602300
ENDCHAR
STARTCHAR uni0925
ENCODING 2341
SWIDTH 593 0
DWIDTH 9 0
BBX 9 10 1 0
BITMAP
3CBA00BC70
930840B000
100930B000
CBB800B000
B00000B000
C00000C000
A40003E000
1ABBB8B000
000000B000
0000005000
ENDCHAR
STARTCHAR uni0926
ENCODING 2342
SWIDTH 489 0
DWIDTH 8 0
BBX 9 10 -1 0
BITMAP
2BBBBBDDB0
0000006600
002ABBC500
00B3000000
00C0000000
00C0001400
00B2004900
002ABB9900
0000002900
0000001400
ENDCHAR
STARTCHAR uni0927
ENCODING 2343
SWIDTH 560 0
DWIDTH 9 0
BBX 11 10 -1 0
BITMAP
2BDD709CDB10
00B000047000
00B100047000
003EB4047000
00A200047000
00C000047000
00B300097000
002BBBB87000
000000047000
000000023000
ENDCHAR
STARTCHAR uni0928
ENCODING 2344
SWIDTH 473 0
DWIDTH 8 0
BBX 9 10 -1 0
BITMAP
2BBBBBEC80
000000A100
000000A100
00ACBBE100
039000A100
029000A100
002000A100
000000A100
000000A100
0000005000
ENDCHAR
STARTCHAR uni0928093C
ENCODING 2345
SWIDTH 473 0
DWIDTH 8 0
BBX 9 10 -1 0
BITMAP
2BBBBBEC80
000000A100
000000A100
00ABBBE100
039000A100
029000A100
002000A100
000000A100
000000A100
0007205000
ENDCHAR
STARTCHAR uni092A
ENCODING 2346
SWIDTH 503 0
DWIDTH 8 0
BBX 10 10 -1 0
BITMAP
2BECBBCEB3
00A1003900
00A1003900
00A1003900
00A1003900
0085007900
0019BB8900
0000003900
0000003900
0000001400
ENDCHAR
STARTCHAR uni092B
ENCODING 2347
SWIDTH 739 0
DWIDTH 12 0
BBX 13 10 -1 0
BITMAP
2BECBBDDBBBBB0
00A10066000000
00A10069BBA200
00A1006A003A00
00A10066000C00
008500A6000C00
0019BB96003A00
000000664BA200
00000066000000
00000033000000
ENDCHAR
STARTCHAR uni092C
ENCODING 2348
SWIDTH 491 0
DWIDTH 8 0
BBX 9 10 -1 0
BITMAP
2BBBBBDDB0
0000006600
003BB46600
00C9006600
00C3916600
00C0197600
00C201D600
003BBB9600
0000006600
0000003300
ENDCHAR
STARTCHAR uni092D
ENCODING 2349
SWIDTH 491 0
DWIDTH 8 0
BBX 9 10 -1 0
BITMAP
2C700BDDB0
00C0006600
00B1006600
00B1006600
00BCBBD600
00B1006600
0080006600
0000006600
0000006600
0000003300
ENDCHAR
STARTCHAR uni092E
ENCODING 2350
SWIDTH 490 0
DWIDTH 8 0
BBX 9 10 -1 0
BITMAP
2BECBBDDB0
00B0006600
00B0006600
00B0006600
00BCBBD600
00B0006600
0080006600
0000006600
0000006600
0000003300
ENDCHAR
STARTCHAR uni092F
ENCODING 2351
SWIDTH 564 0
DWIDTH 9 0
BBX 11 10 -1 0
BITMAP
2BBCEBBCEB20
000092038000
0000A3038000
00BB80038000
00C000038000
00B000048000
009400098000
0019BBB78000
000000038000
000000014000
ENDCHAR
STARTCHAR uni0930
ENCODING 2352
SWIDTH 337 0
DWIDTH 5 0
BBX 7 10 -1 0
BITMAP
2BBBEC60
0000A100
0000A100
0000C000
06CB6000
01C00000
00580000
000A3000
0002B000
00004200
ENDCHAR
STARTCHAR uni0930093C
ENCODING 2353
SWIDTH 347 0
DWIDTH 6 0
BBX 7 10 -1 0
BITMAP
2BBBDC80
00008400
00008400
0000A200
04DB7000
01C10000
003A0000
00085000
0001C100
08103300
ENDCHAR
STARTCHAR uni0932
ENCODING 2354
SWIDTH 676 0
DWIDTH 11 0
BBX 12 10 -1 0
BITMAP
2BBBBBBBBDDB
000000000650
002AB83BBA50
00A306C10A50
00B002900750
00C002900650
00C000200650
00B200000650
003BB4000650
000000000320
ENDCHAR
STARTCHAR uni0933
ENCODING 2355
SWIDTH 672 0
DWIDTH 11 0
BBX 12 9 -1 1
BITMAP
2BBBBBBCEBBA
00000001B000
002AB916D700
00A205D20760
00B001B00290
00B001B00290
00B001B00290
00B104E10570
003BBB5CBA10
ENDCHAR
STARTCHAR uni0933093C
ENCODING 2356
SWIDTH 672 0
DWIDTH 11 0
BBX 12 11 -1 -1
BITMAP
2BBBBBBCEBBA
00000001B000
002AB916D700
00A205D20760
00B001B00290
00B001B00290
00B001B00290
00B104E10570
003BBB5CBA10
000000000000
000180000000
ENDCHAR
STARTCHAR uni0935
ENCODING 2357
SWIDTH 484 0
DWIDTH 8 0
BBX 9 10 -1 0
BITMAP
2BBBBBDCA0
0000007400
003BB37400
00C2007400
00C0007400
00C0007400
00C200B400
003BBAA400
0000007400
0000003200
ENDCHAR
STARTCHAR uni0936
ENCODING 2358
SWIDTH 614 0
DWIDTH 10 0
BBX 10 10 0 0
BITMAP
05CBA106DB
0B10750650
0600650650
0000940650
3DBB800650
0C10000650
03A0000650
0095000650
001C100650
0003300320
ENDCHAR
STARTCHAR uni0937
ENCODING 2359
SWIDTH 505 0
DWIDTH 8 0
BBX 10 10 -1 0
BITMAP
2BECBBCEB3
00AA002900
00A3902900
00A1392900
00A103A900
0085008900
0019BB8900
0000002900
0000002900
0000001400
ENDCHAR
STARTCHAR uni0938
ENCODING 2360
SWIDTH 575 0
DWIDTH 9 0
BBX 11 10 -1 0
BITMAP
2BBCEBBCEB40
0000C001B000
0000B001B000
00039001B000
06CDCBBCB000
01B00001B000
00760001B000
000C1001B000
00058001B000
000060005000
ENDCHAR
STARTCHAR uni0939
ENCODING 2361
SWIDTH 481 0
DWIDTH 8 0
BBX 9 11 -1 -1
BITMAP
2BBBBBDCA0
0000008400
002ABBC300
0094000000
00B1000000
0094000000
002ECBA100
00A3006700
00C0001400
00A4000000
002ABBB300
ENDCHAR
STARTCHAR uni093C
ENCODING 2364
SWIDTH 0 0
DWIDTH 0 0
BBX 2 1 -3 -2
BITMAP
63
ENDCHAR
STARTCHAR uni093D
ENCODING 2365
SWIDTH 529 0
DWIDTH 8 0
BBX 7 10 1 0
BITMAP
08CBB400
0C000000
0C000000
06A10000
003B8100
00004B00
00000B10
42000B10
2B646C00
01676100
ENDCHAR
STARTCHAR uni093E
ENCODING 2366
SWIDTH 231 0
DWIDTH 4 0
BBX 5 10 -1 0
BITMAP
2BDCA0
008400
008400
008400
008400
008400
008400
008400
008400
004100
ENDCHAR
STARTCHAR uni093F
ENCODING 2367
SWIDTH 231 0
DWIDTH 4 0
BBX 11 14 -1 0
BITMAP
001BBBBBBC50
0076000000C0
0084000000A0
008400000000
2BDCA0000000
008400000000
008400000000
008400000000
008400000000
008400000000
008400000000
008400000000
008400000000
004100000000
ENDCHAR
STARTCHAR uni0940
ENCODING 2368
SWIDTH 231 0
DWIDTH 4 0
BBX 7 14 -3 0
BITMAP
08BC8000
3A00A200
37008300
00008400
002BDCA0
00008400
00008400
00008400
00008400
00008400
00008400
00008400
00008400
00004100
ENDCHAR
STARTCHAR uni0941
ENCODING 2369
SWIDTH 0 0
DWIDTH 0 0
BBX 7 4 -6 -4
BITMAP
00018910
66000460
0B200560
02BBBB10
ENDCHAR
STARTCHAR uni0942
ENCODING 2370
SWIDTH 0 0
DWIDTH 0 0
BBX 7 4 -5 -4
BITMAP
07BB9100
1B004A00
2A000930
09B50380
ENDCHAR
STARTCHAR uni0943
ENCODING 2371
SWIDTH 0 0
DWIDTH 0 0
BBX 6 4 -5 -4
BITMAP
09B500
480000
480043
0ABB91
ENDCHAR
STARTCHAR uni0945
ENCODING 2373
SWIDTH 0 0
DWIDTH 0 0
BBX 6 3 -5 11
BITMAP
240006
2A0048
07BBA1
ENDCHAR
STARTCHAR uni0946
ENCODING 2374
SWIDTH 0 0
DWIDTH 0 0
BBX 5 5 -6 9
BITMAP
920000
4A2000
03B800
000770
000690
ENDCHAR
STARTCHAR uni0947
ENCODING 2375
SWIDTH 0 0
DWIDTH 0 0
BBX 4 5 -5 9
BITMAP
A300
2C00
0780
00C3
0029
ENDCHAR
STARTCHAR uni0948
ENCODING 2376
SWIDTH 0 0
DWIDTH 0 0
BBX 4 5 -5 9
BITMAP
B238
4A38
0978
01C8
0039
ENDCHAR
STARTCHAR uni0949
ENCODING 2377
SWIDTH 231 0
DWIDTH 4 0
BBX 6 14 -1 0
BITMAP
910064
740092
19AA70
000000
2BDCA0
008400
008400
008400
008400
008400
008400
008400
008400
004100
ENDCHAR
STARTCHAR uni094A
ENCODING 2378
SWIDTH 231 0
DWIDTH 4 0
BBX 6 14 -2 0
BITMAP
B00000
970000
05B500
000B20
02BDCA
000840
000840
000840
000840
000840
000840
000840
000840
000410
ENDCHAR
STARTCHAR uni094B
ENCODING 2379
SWIDTH 231 0
DWIDTH 4 0
BBX 6 14 -2 0
BITMAP
1C0000
058000
009300
001A10
02BDCA
000840
000840
000840
000840
000840
000840
000840
000840
000410
ENDCHAR
STARTCHAR uni094C
ENCODING 2380
SWIDTH 231 0
DWIDTH 4 0
BBX 6 14 -2 0
BITMAP
2A0830
076840
00A840
001C40
02BDCA
000840
000840
000840
000840
000840
000840
000840
000840
000410
ENDCHAR
STARTCHAR uni094D
ENCODING 2381
SWIDTH 0 0
DWIDTH 0 0
BBX 3 3 -3 -3
BITMAP
1400
0A30
01B0
ENDCHAR
STARTCHAR uni0950
ENCODING 2384
SWIDTH 847 0
DWIDTH 14 0
BBX 13 12 0 1
BITMAP
00000000900000
00000000000000
00000000001910
00ABC5009BA400
00001C00000000
00000B109BB600
00001C00000B10
004BE500000840
00001DBC700840
18000B11A00840
0C001C00C00930
05CBC5008CB900
ENDCHAR
STARTCHAR uni0951
ENCODING 2385
SWIDTH 0 0
DWIDTH 0 0
BBX 2 3 -3 11
BITMAP
38
48
38
ENDCHAR
STARTCHAR uni0952
ENCODING 2386
SWIDTH 0 0
DWIDTH 0 0
BBX 6 1 -7 -2
BITMAP
7BBBB6
ENDCHAR
STARTCHAR uni0953
ENCODING 2387
SWIDTH 0 0
DWIDTH 0 0
BBX 3 3 -4 11
BITMAP
B100
4900
0840
ENDCHAR
STARTCHAR uni0954
ENCODING 2388
SWIDTH 0 0
DWIDTH 0 0
BBX 4 3 -3 11
BITMAP
00A2
0670
1B00
ENDCHAR
STARTCHAR uni0915093C
ENCODING 2392
SWIDTH 725 0
DWIDTH 12 0
BBX 13 10 -1 0
BITMAP
2BBBBBECBBBB90
00000093000000
003BB298BB9100
00C20097006700
00B00093002900
00B00093002900
00C201C3006700
003BBAA36B9100
00000093000000
00071041000000
ENDCHAR
STARTCHAR uni0916093C
ENCODING 2393
SWIDTH 696 0
DWIDTH 11 0
BBX 13 10 -1 0
BITMAP
2BBBECBBBCEB30
0000A10001A000
0000A13B81A000
0000C0B201A000
06CB60C001A000
01C000B205A000
0058003BB7A000
000A300001A000
0001C00001A000
03604200005000
ENDCHAR
STARTCHAR uni0917093C
ENCODING 2394
SWIDTH 494 0
DWIDTH 8 0
BBX 10 10 -1 0
BITMAP
2BBEBBDDB1
000C005700
000C005700
000C005700
002C005700
07B3005700
0000005700
0000005700
0000005700
0044002300
ENDCHAR
STARTCHAR uni091C093C
ENCODING 2395
SWIDTH 547 0
DWIDTH 9 0
BBX 10 10 -1 0
BITMAP
2BBBBBBDCA
0000000740
0000000740
009CDBBD40
0000930740
0000570740
0000570740
0000940740
05BB800740
0072000320
ENDCHAR
STARTCHAR uni0921093C
ENCODING 2396
SWIDTH 475 0
DWIDTH 8 0
BBX 9 12 -1 -2
BITMAP
2BBBBBEC90
0000009200
003BBBC100
00B1000000
00B1000000
003BBBA200
0000005800
0090003900
00A5339600
0016775000
0000000000
0000630000
ENDCHAR
STARTCHAR uni0922093C
ENCODING 2397
SWIDTH 485 0
DWIDTH 8 0
BBX 9 11 -1 -1
BITMAP
2BBBBBECB0
0000009200
002ABBC200
00A3000000
00B0000000
00B009B700
00B0290B00
00A2010B00
003BBBC600
0000000000
0000440000
ENDCHAR
STARTCHAR uni092B093C
ENCODING 2398
SWIDTH 739 0
DWIDTH 12 0
BBX 13 10 -1 0
BITMAP
2BECBBDDBBBBB0
00A10066000000
00A10069BBA200
00A1006A003A00
00A10066000C00
008500A6000C00
0019BB96003A00
000000664BA200
00000066000000
00090033000000
ENDCHAR
STARTCHAR uni092F093C
ENCODING 2399
SWIDTH 564 0
DWIDTH 9 0
BBX 11 10 -1 0
BITMAP
2BBCEBBCEB20
000092038000
0000A3038000
00BB80038000
00C000038000
00B000048000
009400098000
0019BBB78000
000000038000
003500014000
ENDCHAR
STARTCHAR uni0960
ENCODING 2400
SWIDTH 753 0
DWIDTH 12 0
BBX 14 12 -1 -2
BITMAP
2BBBBBDDBBBBB2
00000056000000
002ABB9601AA00
00B200B61B4B00
00B00067B40B00
00B0006E45AA00
000003D70C0000
00007B760C0000
001A705608DB00
005200230C1000
000000000C0000
0000000006BB20
ENDCHAR
STARTCHAR uni0961
ENCODING 2401
SWIDTH 676 0
DWIDTH 11 0
BBX 12 14 -1 -4
BITMAP
2BBBBBBBBDDB
000000000650
000000000650
002BB94BBA50
00B206C10A50
00C002900650
00C001600650
00B10001AC40
004CB4066000
000000066000
00000001EC60
000000066000
000000075000
00000002BB80
ENDCHAR
STARTCHAR uni0964
ENCODING 2404
SWIDTH 286 0
DWIDTH 5 0
BBX 2 10 2 0
BITMAP
A1
B1
B1
B1
B1
B1
B1
B1
B1
50
ENDCHAR
STARTCHAR uni0965
ENCODING 2405
SWIDTH 518 0
DWIDTH 8 0
BBX 5 10 2 0
BITMAP
A100B0
B100C0
B100C0
B100C0
B100C0
B100C0
B100C0
B100C0
B100C0
500050
ENDCHAR
STARTCHAR uni0966
ENCODING 2406
SWIDTH 519 0
DWIDTH 8 0
BBX 7 10 1 0
BITMAP
3CBBC600
B2000B10
C0000930
C0000930
C0000930
C0000930
C0000930
C0000920
98446C00
05776100
ENDCHAR
STARTCHAR uni0967
ENCODING 2407
SWIDTH 288 0
DWIDTH 5 0
BBX 4 10 0 0
BITMAP
05D5
8875
1075
0075
0075
0075
0075
0075
0075
0032
ENDCHAR
STARTCHAR uni0968
ENCODING 2408
SWIDTH 453 0
DWIDTH 7 0
BBX 7 10 0 0
BITMAP
06CBBB10
1B000670
38000390
00000750
00007800
002A4000
04910000
0C000000
2C444420
17888850
ENDCHAR
STARTCHAR uni0969
ENCODING 2409
SWIDTH 489 0
DWIDTH 8 0
BBX 7 10 0 0
BITMAP
06CBBB20
1B000390
160001B0
00000480
0008CC10
00000580
150001A0
2A0001A0
0B644A50
01677400
ENDCHAR
STARTCHAR uni096A
ENCODING 2410
SWIDTH 453 0
DWIDTH 7 0
BBX 8 10 0 0
BITMAP
00008D00
00039B00
000B1B00
00760B00
02A00B00
0A200B00
47000B00
9CBBBEB3
00000B00
00000500
ENDCHAR
STARTCHAR uni096B
ENCODING 2411
SWIDTH 480 0
DWIDTH 8 0
BBX 6 10 1 0
BITMAP
DBBBB7
C00000
C00000
C9BBA2
82003A
00000C
50000C
C0000C
884497
057750
ENDCHAR
STARTCHAR uni096C
ENCODING 2412
SWIDTH 495 0
DWIDTH 8 0
BBX 7 10 1 0
BITMAP
3BBBB600
B1000000
C0000000
C8BBB300
D3002C00
C0000B10
C0000B10
C0000B10
99447A00
05776000
ENDCHAR
STARTCHAR uni096D
ENCODING 2413
SWIDTH 380 0
DWIDTH 6 0
BBX 6 10 0 0
BITMAP
8BBBCB
000067
0000C1
000390
000A30
001C00
007600
00C100
049000
042000
ENDCHAR
STARTCHAR uni096E
ENCODING 2414
SWIDTH 523 0
DWIDTH 8 0
BBX 7 10 1 0
BITMAP
4CBBC700
C1000A20
C0000840
B2000B20
3ECBE800
B3000B10
C0000840
C0000830
88445C10
05786100
ENDCHAR
STARTCHAR uni096F
ENCODING 2415
SWIDTH 493 0
DWIDTH 8 0
BBX 7 10 0 0
BITMAP
06CBBB20
1B0003A0
390000B0
390000C0
1C1000C0
05BBBBC0
000000C0
000000B0
02444970
05887400
ENDCHAR
STARTCHAR uni0970
ENCODING 2416
SWIDTH 391 0
DWIDTH 6 0
BBX 6 5 0 2
BITMAP
07BB91
3A0067
560039
3A0067
07BB91
ENDCHAR
STARTCHAR uni0972
ENCODING 2418
SWIDTH 598 0
DWIDTH 10 0
BBX 11 14 0 0
BITMAP
00000B000820
000009300B10
000002AAA500
000000000000
09BC500AC800
0001C00A1000
0000B10A1000
0001C00A1000
04BE500A1000
0001DBBE1000
0000B10A1000
0000C00A1000
4BBC500A1000
000000050000
ENDCHAR
STARTCHAR Wgrave
ENCODING 7808
SWIDTH 795 0
DWIDTH 13 0
BBX 13 13 0 0
BITMAP
00004B00000000
00000650000000
00000000000000
670004E0000C10
3A0008B3000D00
0D000B47003A00
0B201A0B006700
0850560A10A300
0480920650C000
01B0B00291B000
00C39000B48000
00994000994000
005E10005F1000
ENDCHAR
STARTCHAR wgrave
ENCODING 7809
SWIDTH 682 0
DWIDTH 11 0
BBX 11 11 0 0
BITMAP
0003C0000000
000057000000
000000000000
84001E100570
48005C400A30
0C0094800C00
0A20A0B03900
066280A17500
02A74065B100
00BA001AB000
007B000C6000
ENDCHAR
STARTCHAR Wacute
ENCODING 7810
SWIDTH 795 0
DWIDTH 13 0
BBX 13 13 0 0
BITMAP
0000001C100000
00000093000000
00000000000000
670004E0000C10
3A0008B3000D00
0D000B47003A00
0B201A0B006700
0850560A10A300
0480920650C000
01B0B00291B000
00C39000B48000
00994000994000
005E10005F1000
ENDCHAR
STARTCHAR wacute
ENCODING 7811
SWIDTH 682 0
DWIDTH 11 0
BBX 11 11 0 0
BITMAP
000001C20000
000008400000
000000000000
84001E100570
48005C400A30
0C0094800C00
0A20A0B03900
066280A17500
02A74065B100
00BA001AB000
007B000C6000
ENDCHAR
STARTCHAR Wdieresis
ENCODING 7812
SWIDTH 795 0
DWIDTH 13 0
BBX 13 13 0 0
BITMAP
0000560B100000
0000560B100000
00000000000000
670004E0000C10
3A0008B3000D00
0D000B47003A00
0B201A0B006700
0850560A10A300
0480920650C000
01B0B00291B000
00C39000B48000
00994000994000
005E10005F1000
ENDCHAR
STARTCHAR wdieresis
ENCODING 7813
SWIDTH 682 0
DWIDTH 11 0
BBX 11 11 0 0
BITMAP
000380920000
000380920000
000000000000
84001E100570
48005C400A30
0C0094800C00
0A20A0B03900
066280A17500
02A74065B100
00BA001AB000
007B000C6000
ENDCHAR
STARTCHAR uni1E9E
ENCODING 7838
SWIDTH 542 0
DWIDTH 9 0
BBX 7 10 1 0
BITMAP
1BBBBD60
95000B10
B1005700
B100B000
B103DB20
B10005A0
B10001B0
B10001B0
B1000490
A11BBB20
ENDCHAR
STARTCHAR Ygrave
ENCODING 7922
SWIDTH 493 0
DWIDTH 8 0
BBX 8 13 0 0
BITMAP
00870000
000A2000
00000000
67000094
0C1002B0
06800940
00C12B00
00589400
000CB000
00075000
00075000
00075000
00075000
ENDCHAR
STARTCHAR ygrave
ENCODING 7923
SWIDTH 459 0
DWIDTH 7 0
BBX 7 13 0 -2
BITMAP
00960000
000A1000
00000000
660001B0
1B000660
0A200B10
05802A00
00C08500
0084C000
003C9000
000A3000
002C0000
2BB20000
ENDCHAR
STARTCHAR uni200B
ENCODING 8203
SWIDTH 0 0
DWIDTH 0 0
BBX 1 1 0 0
BITMAP
00
ENDCHAR
STARTCHAR uni200C
ENCODING 8204
SWIDTH 0 0
DWIDTH 0 0
BBX 2 17 -1 -4
BITMAP
33
66
66
66
66
66
66
66
66
66
66
66
66
66
66
66
66
ENDCHAR
STARTCHAR uni200D
ENCODING 8205
SWIDTH 0 0
DWIDTH 0 0
BBX 4 17 -2 -4
BITMAP
3003
9769
0CC0
7DD7
5665
0660
0660
0660
0660
0660
0660
0660
0660
0660
0660
0660
0660
ENDCHAR
STARTCHAR endash
ENCODING 8211
SWIDTH 408 0
DWIDTH 7 0
BBX 6 1 0 5
BITMAP
3BBBBA
ENDCHAR
STARTCHAR emdash
ENCODING 8212
SWIDTH 537 0
DWIDTH 9 0
BBX 8 1 0 5
BITMAP
3BBBBBBA
ENDCHAR
STARTCHAR quoteleft
ENCODING 8216
SWIDTH 179 0
DWIDTH 3 0
BBX 1 4 1 6
BITMAP
40
90
C0
C0
ENDCHAR
STARTCHAR quoteright
ENCODING 8217
SWIDTH 179 0
DWIDTH 3 0
BBX 1 4 1 6
BITMAP
C0
C0
90
40
ENDCHAR
STARTCHAR quotesinglbase
ENCODING 8218
SWIDTH 187 0
DWIDTH 3 0
BBX 1 4 1 -2
BITMAP
C0
C0
90
50
ENDCHAR
STARTCHAR quotedblleft
ENCODING 8220
SWIDTH 329 0
DWIDTH 5 0
BBX 4 4 1 6
BITMAP
4013
9054
C084
C094
ENDCHAR
STARTCHAR quotedblright
ENCODING 8221
SWIDTH 329 0
DWIDTH 5 0
BBX 4 4 1 6
BITMAP
C094
C093
9080
4040
ENDCHAR
STARTCHAR quotedblbase
ENCODING 8222
SWIDTH 337 0
DWIDTH 5 0
BBX 4 4 1 -2
BITMAP
C084
C084
9081
4050
ENDCHAR
STARTCHAR dagger
ENCODING 8224
SWIDTH 427 0
DWIDTH 7 0
BBX 7 10 0 0
BITMAP
000B0000
000A0000
299D9910
000B0000
000C0000
000C0000
000B0000
000A0000
00090000
00070000
ENDCHAR
STARTCHAR daggerdbl
ENCODING 8225
SWIDTH 427 0
DWIDTH 7 0
BBX 7 10 0 0
BITMAP
000B0000
000A0000
299D9910
000B0000
000C0000
000B0000
3BBEBB10
00090000
000B0000
000B0000
ENDCHAR
STARTCHAR bullet
ENCODING 8226
SWIDTH 273 0
DWIDTH 4 0
BBX 2 3 1 4
BITMAP
6B
8D
8D
ENDCHAR
STARTCHAR ellipsis
ENCODING 8230
SWIDTH 591 0
DWIDTH 9 0
BBX 8 3 1 0
BITMAP
20010011
D00B3086
D00B3086
ENDCHAR
STARTCHAR perthousand
ENCODING 8240
SWIDTH 1027 0
DWIDTH 16 0
BBX 16 10 0 0
BITMAP
09BC500810000000
2800A01900000000
3700A07300000000
2901A0A000000000
07BB464000000000
00000A0899206994
000046460291900A
0000A16400A2800A
000380560191900A
0008101BBC309BC6
ENDCHAR
STARTCHAR guilsinglleft
ENCODING 8249
SWIDTH 290 0
DWIDTH 5 0
BBX 3 6 1 1
BITMAP
0150
1A20
A200
9300
0930
0040
ENDCHAR
STARTCHAR guilsinglright
ENCODING 8250
SWIDTH 290 0
DWIDTH 5 0
BBX 3 6 1 1
BITMAP
6000
6700
0660
0850
8500
4000
ENDCHAR
STARTCHAR fraction
ENCODING 8260
SWIDTH 117 0
DWIDTH 2 0
BBX 8 10 -3 0
BITMAP
00000029
000000A1
00000830
00005700
0002A000
000A1000
00930000
05600000
29000000
A1000000
ENDCHAR
STARTCHAR Euro
ENCODING 8364
SWIDTH 523 0
DWIDTH 8 0
BBX 8 10 0 0
BITMAP
006CBC60
01B000B2
04800084
04800000
4CDBB200
4CDBB200
04800000
04800084
01B000B2
006CBC70
ENDCHAR
STARTCHAR uni20B9
ENCODING 8377
SWIDTH 414 0
DWIDTH 7 0
BBX 7 10 0 0
BITMAP
4BCEBB10
00084000
4BBDDB10
00094000
5CB80000
1C100000
04A00000
00860000
000B2000
00024000
ENDCHAR
STARTCHAR trademark
ENCODING 8482
SWIDTH 591 0
DWIDTH 9 0
BBX 8 4 1 6
BITMAP
ADB49066
0804B297
08045B47
07044116
ENDCHAR
STARTCHAR uni2126
ENCODING 8486
SWIDTH 629 0
DWIDTH 10 0
BBX 10 10 0 0
BITMAP
009CBBBA00
0580000760
0750000470
0750000480
0750000480
0750000480
0750000480
0660000560
14B5115B51
2888338883
ENDCHAR
STARTCHAR partialdiff
ENCODING 8706
SWIDTH 481 0
DWIDTH 8 0
BBX 7 11 0 0
BITMAP
00A94000
00139A00
00000940
00000390
03BBB7A0
0C2006B0
1C0001B0
1C0001B0
0C0002A0
0A744A60
00677400
ENDCHAR
STARTCHAR uni2206
ENCODING 8710
SWIDTH 594 0
DWIDTH 10 0
BBX 9 10 0 0
BITMAP
0000D60000
00058C0000
000B194000
002A03A000
008400B100
00C0006700
0570001C00
0B10000940
3C444446A0
3888888870
ENDCHAR
STARTCHAR minus
ENCODING 8722
SWIDTH 523 0
DWIDTH 8 0
BBX 7 1 1 5
BITMAP
9BBBBB20
ENDCHAR
STARTCHAR approxequal
ENCODING 8776
SWIDTH 523 0
DWIDTH 8 0
BBX 7 4 1 3
BITMAP
7BBBBA20
00000000
00000000
7BBBBA20
ENDCHAR
STARTCHAR notequal
ENCODING 8800
SWIDTH 523 0
DWIDTH 8 0
BBX 7 8 1 1
BITMAP
00005000
00055000
9AADBA20
001A0000
00550000
9BECBB20
01900000
01200000
ENDCHAR
STARTCHAR lessequal
ENCODING 8804
SWIDTH 523 0
DWIDTH 8 0
BBX 7 7 1 2
BITMAP
00000210
0038B910
8A830000
6A951000
0026AA20
00000110
9BBBBB20
ENDCHAR
STARTCHAR greaterequal
ENCODING 8805
SWIDTH 523 0
DWIDTH 8 0
BBX 7 7 1 2
BITMAP
20000000
7B951000
0026AA20
0037A910
8B830000
10000000
9BBBBB20
ENDCHAR
STARTCHAR uni25CC
ENCODING 9676
SWIDTH 701 0
DWIDTH 11 0
BBX 10 9 1 1
BITMAP
0004C4C000
02C0101B50
7900000100
11000000D2
A600000010
10000002D1
0C40000010
0101014C00
004D4D0100
ENDCHAR
STARTCHAR commaaccent
ENCODING 63171
SWIDTH 0 0
DWIDTH 0 0
BBX 2 3 3 -4
BITMAP
C1
B0
60
ENDCHAR
STARTCHAR .notdef
ENCODING -1
SWIDTH 600 0
DWIDTH 10 0
BBX 7 10 1 0
BITMAP
1DBBBC90
1B0002A0
1B0002A0
1B0002A0
1B0002A0
1B0002A0
1B0002A0
1B0002A0
1B0002A0
1DBBBC90
ENDCHAR
STARTCHAR .null
ENCODING -1
SWIDTH 0 0
DWIDTH 0 0
BBX 1 1 0 0
BITMAP
00
ENDCHAR
STARTCHAR nonmarkingreturn
ENCODING -1
SWIDTH 333 0
DWIDTH 5 0
BBX 1 1 0 0
BITMAP
00
ENDCHAR
STARTCHAR uni0915094D
ENCODING -1
SWIDTH 519 0
DWIDTH 8 0
BBX 12 10 -1 0
BITMAP
2BBBBBECBBB4
000000930000
003BB298BB80
00C200970052
00B000930000
00B000930000
00C201C30000
003BBAA30000
000000930000
000000410000
ENDCHAR
STARTCHAR uni0916094D
ENCODING -1
SWIDTH 468 0
DWIDTH 7 0
BBX 11 10 -1 0
BITMAP
2BBBECBBBB20
0000A1000000
0000A13B8000
0000C0B20000
06CB60C00000
01C000B20320
0058003BB800
000A30000000
0001C0000000
000042000000
ENDCHAR
STARTCHAR uni0917094D
ENCODING -1
SWIDTH 264 0
DWIDTH 4 0
BBX 6 7 -1 3
BITMAP
2BBFB4
000C00
000C00
000C00
000C00
002B00
07B200
ENDCHAR
STARTCHAR uni0918094D
ENCODING -1
SWIDTH 321 0
DWIDTH 5 0
BBX 9 9 -1 1
BITMAP
2BDEBBBB10
00A1000000
00B0000000
00A2000000
002EB40000
00A2000000
00C0000000
00B3000710
002BBBC500
ENDCHAR
STARTCHAR uni0919094D
ENCODING -1
SWIDTH 505 0
DWIDTH 8 0
BBX 10 13 -1 -3
BITMAP
2BBBBBECB3
0000009200
003BBBC100
00B1000000
00B1000360
003BBBA200
0000005800
0090003900
00A6449600
0016775000
0000430000
00001B1000
0000048000
ENDCHAR
STARTCHAR uni091A094D
ENCODING -1
SWIDTH 330 0
DWIDTH 5 0
BBX 9 9 -1 1
BITMAP
2BBBBBBB20
0000000000
0000000000
07BCCB1000
001B000000
0047000000
0047000000
001B100810
0005BBC600
ENDCHAR
STARTCHAR uni091B094D
ENCODING -1
SWIDTH 581 0
DWIDTH 9 0
BBX 11 9 -1 1
BITMAP
2BCEBBBBBB50
00A200000000
00C0007B6000
00A30000C100
002EB1009200
00A300009200
00C000009200
00A20000C000
003BBBBC5000
ENDCHAR
STARTCHAR uni091C094D
ENCODING -1
SWIDTH 309 0
DWIDTH 5 0
BBX 8 9 -1 1
BITMAP
2BBBBBB7
00000000
00000000
009CDBB7
00009300
00005700
00005700
00009400
05BB8000
ENDCHAR
STARTCHAR uni091D094D
ENCODING -1
SWIDTH 432 0
DWIDTH 7 0
BBX 10 10 -1 0
BITMAP
2BBBBCEBB6
0000029000
003BBC7000
00B1000000
00B1000000
003BBCDBB6
00B000B100
00D100B100
00CBBB8000
00B0000000
ENDCHAR
STARTCHAR uni091E094D
ENCODING -1
SWIDTH 359 0
DWIDTH 6 0
BBX 9 9 -1 1
BITMAP
2BBBBBBB40
0000000000
00BB910000
0000670000
0000190000
00001EBB40
00001A0000
0000670000
03BB910000
ENDCHAR
STARTCHAR uni091F094D
ENCODING -1
SWIDTH 485 0
DWIDTH 8 0
BBX 9 13 -1 -3
BITMAP
2BBBBBECA0
000000B100
002ABBC100
00A3000000
00B0000000
00C0000300
00B0000B00
00B2001B00
003BBBB300
0000000000
0000290000
0000086000
0000006000
ENDCHAR
STARTCHAR uni0920094D
ENCODING -1
SWIDTH 512 0
DWIDTH 8 0
BBX 10 13 -1 -3
BITMAP
2BBBBBDCB4
0000008300
002ABCD200
00A3003B00
00B0000C00
00C0000C00
00C0000C00
00B2001B00
003BBBC300
0000000000
0000480000
0000094000
0000015000
ENDCHAR
STARTCHAR uni0921094D
ENCODING -1
SWIDTH 475 0
DWIDTH 8 0
BBX 9 13 -1 -3
BITMAP
2BBBBBEC90
0000009200
003BBBC100
00B1000000
00B1000000
003BBBA200
0000005800
0090003900
00A5339600
0016775000
0000350000
00000B1000
0000039000
ENDCHAR
STARTCHAR uni0922094D
ENCODING -1
SWIDTH 485 0
DWIDTH 8 0
BBX 9 13 -1 -3
BITMAP
2BBBBBECB0
0000009200
002ABBC200
00A3000000
00B0000000
00B009B700
00B0290B00
00A2010B00
003BBBC600
0000000000
0000380000
0000085000
0000005000
ENDCHAR
STARTCHAR uni0923094D
ENCODING -1
SWIDTH 454 0
DWIDTH 7 0
BBX 9 7 -1 3
BITMAP
2BECBBEB50
00A100B000
00A100B000
00A100B000
00A100B000
008402B000
001ABB3000
ENDCHAR
STARTCHAR uni0924094D
ENCODING -1
SWIDTH 263 0
DWIDTH 4 0
BBX 7 10 -1 0
BITMAP
2BBBBB90
00000000
00000000
003BBB90
00B20000
00C00000
00C00000
00C00000
00A73000
00055000
ENDCHAR
STARTCHAR uni0925094D
ENCODING -1
SWIDTH 359 0
DWIDTH 6 0
BBX 7 9 1 1
BITMAP
2BB90000
84093000
61074000
000B2000
CBB70000
B0000000
C0000000
A4000570
1ABBC910
ENDCHAR
STARTCHAR uni0926094D
ENCODING -1
SWIDTH 489 0
DWIDTH 8 0
BBX 9 12 -1 -2
BITMAP
2BBBBBDDB0
0000006600
002ABBC500
00B3000000
00C0000000
00C0001400
00B2004900
002ABB9900
0000002900
0000431400
00001B1000
0000058000
ENDCHAR
STARTCHAR uni0927094D
ENCODING -1
SWIDTH 321 0
DWIDTH 5 0
BBX 9 9 -1 1
BITMAP
2BDE90BB20
00A1000000
00B0000000
00A2000000
002EB40000
00A2000000
00C0000000
00B3000710
002BBBC500
ENDCHAR
STARTCHAR uni0928094D
ENCODING -1
SWIDTH 233 0
DWIDTH 4 0
BBX 7 7 -1 3
BITMAP
2BBBBB30
00000000
00000000
00000000
01BBBB30
05700000
02500000
ENDCHAR
STARTCHAR uni092A094D
ENCODING -1
SWIDTH 269 0
DWIDTH 4 0
BBX 8 7 -1 3
BITMAP
2BECBBB4
00A10000
00A10000
00A10000
00A10000
00850063
0019BB70
ENDCHAR
STARTCHAR uni092B094D
ENCODING -1
SWIDTH 530 0
DWIDTH 8 0
BBX 12 10 -1 0
BITMAP
2BECBBDDBBB6
00A100660000
00A10069BBA1
00A1006A0045
00A100660000
008500A60000
0019BB960000
000000660000
000000660000
000000330000
ENDCHAR
STARTCHAR uni092C094D
ENCODING -1
SWIDTH 265 0
DWIDTH 4 0
BBX 8 9 -1 1
BITMAP
2BBBBBB2
00000000
002AB400
00B80000
00B65000
00B07400
00B00884
00B200C2
002BBB60
ENDCHAR
STARTCHAR uni092D094D
ENCODING -1
SWIDTH 261 0
DWIDTH 4 0
BBX 7 8 -1 2
BITMAP
2C600B90
00C00000
00B10000
00B10000
00B10000
00BCBB90
00B10000
00200000
ENDCHAR
STARTCHAR uni092E094D
ENCODING -1
SWIDTH 261 0
DWIDTH 4 0
BBX 7 8 -1 2
BITMAP
2BECBB90
00B00000
00B00000
00B00000
00B00000
00BCBB90
00B00000
00200000
ENDCHAR
STARTCHAR uni092F094D
ENCODING -1
SWIDTH 323 0
DWIDTH 5 0
BBX 9 9 -1 1
BITMAP
2BBCEBB800
0000A10000
0000830000
0000B10000
00BB600000
00C0000000
00B0000000
0094001810
0019BBB400
ENDCHAR
STARTCHAR uni0930094D
ENCODING -1
SWIDTH 337 0
DWIDTH 5 0
BBX 7 13 -1 -3
BITMAP
2BBBEC60
0000A100
0000A100
0000C000
06CB6000
01C00000
00580000
000A3000
0002B000
00004200
00082000
0001B000
00003300
ENDCHAR
STARTCHAR uni0932094D
ENCODING -1
SWIDTH 431 0
DWIDTH 7 0
BBX 10 9 -1 1
BITMAP
2BBBBBBBBB
0000000000
002AB83BB5
00A306C105
00B0029000
00C0029000
00C0002000
00B2000000
003BB40000
ENDCHAR
STARTCHAR uni0933094D
ENCODING -1
SWIDTH 677 0
DWIDTH 11 0
BBX 12 9 -1 1
BITMAP
2BBBBBBBBBBB
000000000000
002AB93BB800
00A205E20760
00B001B00290
00B001B00290
00B001B00290
00B104E10570
003BBB5CBA10
ENDCHAR
STARTCHAR uni0935094D
ENCODING -1
SWIDTH 255 0
DWIDTH 4 0
BBX 8 9 -1 1
BITMAP
2BBBBBB2
00000000
002AB400
00B20000
00B00000
00B00000
00B00054
00B20092
002BBB60
ENDCHAR
STARTCHAR uni0936094D
ENCODING -1
SWIDTH 378 0
DWIDTH 6 0
BBX 6 10 0 0
BITMAP
05CBA1
0B1075
060065
000094
3DBB80
0C1000
03A000
009500
001C10
000330
ENDCHAR
STARTCHAR uni0937094D
ENCODING -1
SWIDTH 282 0
DWIDTH 5 0
BBX 8 7 -1 3
BITMAP
2BECBBB6
00AA0000
00A49000
00A13900
00A10380
00850087
0019BC70
ENDCHAR
STARTCHAR uni0938094D
ENCODING -1
SWIDTH 338 0
DWIDTH 5 0
BBX 9 10 -1 0
BITMAP
2BBCEBBB20
0000C00000
0000B00000
0003900000
06CDCBBB20
01B0000000
0076000000
000C100000
0005800000
0000600000
ENDCHAR
STARTCHAR uni0939094D
ENCODING -1
SWIDTH 457 0
DWIDTH 7 0
BBX 10 11 -1 -1
BITMAP
2BBBBBDC90
0000008400
002ABBC300
0094000000
00B1000000
0084000000
002ECBBBBA
00A3000000
00C0000000
00A3000000
002ABBB300
ENDCHAR
STARTCHAR uni0915093C094D
ENCODING -1
SWIDTH 519 0
DWIDTH 8 0
BBX 12 10 -1 0
BITMAP
2BBBBBECBBB4
000000930000
003BB298BB80
00C200970052
00B000930000
00B000930000
00C201C30000
003BBAA30000
000000930000
002700410000
ENDCHAR
STARTCHAR uni0916093C094D
ENCODING -1
SWIDTH 463 0
DWIDTH 7 0
BBX 11 10 -1 0
BITMAP
2BBBECBBBB20
0000A1000000
0000A13B8000
0000C0B20000
06CB60C00000
01C000B20320
0058003BB800
000A30000000
0001C0000000
009042000000
ENDCHAR
STARTCHAR uni0917093C094D
ENCODING -1
SWIDTH 264 0
DWIDTH 4 0
BBX 6 10 -1 0
BITMAP
2BBEB4
000C00
000C00
000C00
002C00
07B300
000000
000000
001200
003300
ENDCHAR
STARTCHAR uni091C093C094D
ENCODING -1
SWIDTH 314 0
DWIDTH 5 0
BBX 8 11 -1 -1
BITMAP
2BBBBBB7
00000000
00000000
009CDBB7
00009300
00005700
00005700
00009400
05BB8000
00000000
00630000
ENDCHAR
STARTCHAR uni0928093C094D
ENCODING -1
SWIDTH 241 0
DWIDTH 4 0
BBX 7 11 -1 -1
BITMAP
1BBBBB50
00000000
00000000
00000000
00ABBB50
03900000
02900000
00300000
00000000
00000000
00090000
ENDCHAR
STARTCHAR uni092B093C094D
ENCODING -1
SWIDTH 530 0
DWIDTH 8 0
BBX 12 10 -1 0
BITMAP
2BECBBDDBBB6
00A100660000
00A10069BBA1
00A1006A0045
00A100660000
008500A60000
0019BB960000
000000660000
000000660000
000810330000
ENDCHAR
STARTCHAR uni092F093C094D
ENCODING -1
SWIDTH 325 0
DWIDTH 5 0
BBX 9 11 -1 -1
BITMAP
2BBCEBB800
0000A10000
0000830000
0000B10000
00BB600000
00C0000000
00B0000000
0094001810
0019BBB400
0000000000
0007200000
ENDCHAR
STARTCHAR uni09080902
ENCODING -1
SWIDTH 478 0
DWIDTH 8 0
BBX 9 14 -1 0
BITMAP
000004CB20
00000C1000
00000C0800
00000B0000
2BBBBBEC90
0000009300
004BBBC200
00B1000000
00B1000000
004BBBB200
0000004900
00B0002900
00D7448700
00B4775000
ENDCHAR
STARTCHAR uni09300941
ENCODING -1
SWIDTH 533 0
DWIDTH 9 0
BBX 10 10 -1 0
BITMAP
2BBBECBBB8
0000A10000
0000ACBA10
0000C00660
06CB600470
01C0000750
0058007A00
000A315000
0002B00000
0000420000
ENDCHAR
STARTCHAR uni09300942
ENCODING -1
SWIDTH 645 0
DWIDTH 10 0
BBX 12 10 -1 0
BITMAP
2BBBECBBBBB6
0000A1000000
0000A13BB800
0000C0A20930
06CC60900640
01B000000920
005800019800
000A300A3000
0002B0000000
000042000000
ENDCHAR
STARTCHAR uni09390941
ENCODING -1
SWIDTH 495 0
DWIDTH 8 0
BBX 10 14 -1 -4
BITMAP
2BBBBBDCB1
0000008400
003BBBC300
00A3000000
0093000000
002ECBA100
0095007600
00C0003800
00B0000100
0085000000
0019BBB500
0040001C00
00A5001B00
0018CBB400
ENDCHAR
STARTCHAR uni09390942
ENCODING -1
SWIDTH 492 0
DWIDTH 8 0
BBX 9 14 -1 -4
BITMAP
2BBBBBDDA0
0000008400
0000008400
003BBBC300
00A3000000
0093000000
003EBBB200
00B2004700
0087420000
002C899000
0065008400
0074001A00
0065000B10
001BB10630
ENDCHAR
STARTCHAR uni09260943
ENCODING -1
SWIDTH 390 0
DWIDTH 6 0
BBX 8 9 -1 1
BITMAP
2BBBBEB5
00000C00
003BBC00
00B20000
00A20000
003EB500
00A10000
00B10000
004CBB50
ENDCHAR
STARTCHAR uni09390943
ENCODING -1
SWIDTH 519 0
DWIDTH 8 0
BBX 10 12 -1 -2
BITMAP
2BBBBBDCB5
0000008400
004BBBC300
00C1000000
00B1000000
003ECDBB20
00B2470480
00C0560010
00C03B4410
00C0047810
00B3000000
002ABBB300
ENDCHAR
STARTCHAR uni094D0930
ENCODING -1
SWIDTH 0 0
DWIDTH 0 0
BBX 6 3 -7 -3
BITMAP
00BA00
086770
3A00A3
ENDCHAR
STARTCHAR uni0930094D.1
ENCODING -1
SWIDTH 192 0
DWIDTH 3 0
BBX 7 5 -2 5
BITMAP
02BBB300
00000000
00000000
18000270
05BBBA20
ENDCHAR
STARTCHAR uni0930094D.2
ENCODING -1
SWIDTH 0 0
DWIDTH 0 0
BBX 4 5 -3 9
BITMAP
09B3
3A00
4800
4800
1200
ENDCHAR
STARTCHAR uni0930094D0902
ENCODING -1
SWIDTH 0 0
DWIDTH 0 0
BBX 4 5 -3 9
BITMAP
09C3
2A00
3861
4800
3700
ENDCHAR
STARTCHAR uni093E0930094D
ENCODING -1
SWIDTH 231 0
DWIDTH 4 0
BBX 5 14 -1 0
BITMAP
001BB0
007500
008400
008400
2BDCA0
008400
008400
008400
008400
008400
008400
008400
008400
004100
ENDCHAR
STARTCHAR uni093E0930094D0902
ENCODING -1
SWIDTH 231 0
DWIDTH 4 0
BBX 6 14 -1 0
BITMAP
002BB0
007571
008400
008400
2BDCA0
008400
008400
008400
008400
008400
008400
008400
008400
004100
ENDCHAR
STARTCHAR uni0930094D.aMatraI
ENCODING -1
SWIDTH 0 0
DWIDTH 0 0
BBX 3 3 -1 10
BITMAP
3B90
B200
C000
ENDCHAR
STARTCHAR uni0902.aMatraI
ENCODING -1
SWIDTH 0 0
DWIDTH 0 0
BBX 2 1 0 12
BITMAP
36
ENDCHAR
STARTCHAR uni0930094D0902.aMatraI
ENCODING -1
SWIDTH 0 0
DWIDTH 0 0
BBX 3 3 -1 10
BITMAP
3B90
B370
C000
ENDCHAR
STARTCHAR uni09400930094D
ENCODING -1
SWIDTH 231 0
DWIDTH 4 0
BBX 8 14 -3 0
BITMAP
08BB7AB1
3A00A500
37008400
00008400
002BDCA0
00008400
00008400
00008400
00008400
00008400
00008400
00008400
00008400
00004100
ENDCHAR
STARTCHAR uni09400902
ENCODING -1
SWIDTH 231 0
DWIDTH 4 0
BBX 7 14 -3 0
BITMAP
09BC8000
3900A290
25008300
00008400
002BDCA0
00008400
00008400
00008400
00008400
00008400
00008400
00008400
00008400
00004100
ENDCHAR
STARTCHAR uni09400930094D0902
ENCODING -1
SWIDTH 231 0
DWIDTH 4 0
BBX 8 14 -3 0
BITMAP
0ABB8AB1
4800A571
01008400
00008400
002BDCA0
00008400
00008400
00008400
00008400
00008400
00008400
00008400
00008400
00004100
ENDCHAR
STARTCHAR uni0940.aLong
ENCODING -1
SWIDTH 231 0
DWIDTH 4 0
BBX 11 14 -7 0
BITMAP
07CBBBBC8000
1B000000A200
280000008300
000000008400
0000002BDCA0
000000008400
000000008400
000000008400
000000008400
000000008400
000000008400
000000008400
000000008400
000000004100
ENDCHAR
STARTCHAR uni09400930094D.aLong
ENCODING -1
SWIDTH 231 0
DWIDTH 4 0
BBX 11 14 -7 0
BITMAP
07CBBBBB7AB0
1B000000A500
280000008400
000000008400
0000002BDCA0
000000008400
000000008400
000000008400
000000008400
000000008400
000000008400
000000008400
000000008400
000000004100
ENDCHAR
STARTCHAR uni09400902.aLong
ENCODING -1
SWIDTH 231 0
DWIDTH 4 0
BBX 12 14 -7 0
BITMAP
08BBBBBC8000
2A000000A272
150000008300
000000008400
0000002BDCA0
000000008400
000000008400
000000008400
000000008400
000000008400
000000008400
000000008400
000000008400
000000004100
ENDCHAR
STARTCHAR uni09400930094D0902.aLong
ENCODING -1
SWIDTH 231 0
DWIDTH 4 0
BBX 12 14 -7 0
BITMAP
09BBBBBB8BB0
2A000000A571
010000008400
000000008400
0000002BDCA0
000000008400
000000008400
000000008400
000000008400
000000008400
000000008400
000000008400
000000008400
000000004100
ENDCHAR
STARTCHAR uni09470930094D
ENCODING -1
SWIDTH 0 0
DWIDTH 0 0
BBX 6 4 -5 10
BITMAP
A409B3
1C3900
03B800
004800
ENDCHAR
STARTCHAR uni09470902
ENCODING -1
SWIDTH 0 0
DWIDTH 0 0
BBX 5 5 -5 9
BITMAP
B30000
3C0000
088090
00C300
002900
ENDCHAR
STARTCHAR uni09470901
ENCODING -1
SWIDTH 0 0
DWIDTH 0 0
BBX 9 5 -5 9
BITMAP
A302080200
2C0B000920
078A100B00
00C6AAA400
0029000000
ENDCHAR
STARTCHAR uni09470930094D0902
ENCODING -1
SWIDTH 0 0
DWIDTH 0 0
BBX 6 4 -5 10
BITMAP
A409B3
1B2900
039862
004900
ENDCHAR
STARTCHAR uni09480930094D
ENCODING -1
SWIDTH 0 0
DWIDTH 0 0
BBX 7 4 -6 10
BITMAP
1B0B4B40
058B8000
007A7000
00088000
ENDCHAR
STARTCHAR uni09480902
ENCODING -1
SWIDTH 0 0
DWIDTH 0 0
BBX 6 4 -5 10
BITMAP
B23800
2B3854
049800
006800
ENDCHAR
STARTCHAR uni09480901
ENCODING -1
SWIDTH 0 0
DWIDTH 0 0
BBX 10 4 -5 10
BITMAP
C238206211
3B38920075
05882AAA90
0068000000
ENDCHAR
STARTCHAR uni09480930094D0902
ENCODING -1
SWIDTH 0 0
DWIDTH 0 0
BBX 7 4 -6 10
BITMAP
1B1B4B40
059A8620
007B7000
00098000
ENDCHAR
STARTCHAR uni094B0930094D
ENCODING -1
SWIDTH 231 0
DWIDTH 4 0
BBX 6 14 -2 0
BITMAP
1C11BB
059650
009A40
001C40
02BDCA
000840
000840
000840
000840
000840
000840
000840
000840
000410
ENDCHAR
STARTCHAR uni094B0902
ENCODING -1
SWIDTH 231 0
DWIDTH 4 0
BBX 6 14 -2 0
BITMAP
1B0000
058063
009300
001A10
02BDCA
000840
000840
000840
000840
000840
000840
000840
000840
000410
ENDCHAR
STARTCHAR uni094B0930094D0902
ENCODING -1
SWIDTH 231 0
DWIDTH 4 0
BBX 7 14 -2 0
BITMAP
1D22CB00
05D85710
009F4000
000C4000
02BDCA00
00084000
00084000
00084000
00084000
00084000
00084000
00084000
00084000
00041000
ENDCHAR
STARTCHAR uni094C0930094D
ENCODING -1
SWIDTH 231 0
DWIDTH 4 0
BBX 7 14 -2 0
BITMAP
581B7B10
0A3B8000
01AB4000
003D4000
02BDCA00
00084000
00084000
00084000
00084000
00084000
00084000
00084000
00084000
00041000
ENDCHAR
STARTCHAR uni094C0902
ENCODING -1
SWIDTH 231 0
DWIDTH 4 0
BBX 6 14 -2 0
BITMAP
2A0830
066849
00A840
001C40
02BDCA
000840
000840
000840
000840
000840
000840
000840
000840
000410
ENDCHAR
STARTCHAR uni094C0930094D0902
ENCODING -1
SWIDTH 231 0
DWIDTH 4 0
BBX 7 14 -2 0
BITMAP
581B7B10
0A4B8710
01BB4000
003E4000
02BDCA00
00084000
00084000
00084000
00084000
00084000
00084000
00084000
00084000
00041000
ENDCHAR
STARTCHAR uni0915094D0937
ENCODING -1
SWIDTH 656 0
DWIDTH 11 0
BBX 10 10 1 0
BITMAP
08CB900CB7
1B00920C00
1A00910C00
4CCCDBBE00
C100000C00
C000410C00
C100B30C00
4BBBB30C00
0000930C00
0000410500
ENDCHAR
STARTCHAR uni0915094D0937094D
ENCODING -1
SWIDTH 429 0
DWIDTH 7 0
BBX 8 10 1 0
BITMAP
08CB9000
1B009200
1A009100
4CCCDBB7
C1000000
C0004100
C100B300
4BBBB300
00009300
00004100
ENDCHAR
STARTCHAR uni0915094D0937094D092E
ENCODING -1
SWIDTH 933 0
DWIDTH 15 0
BBX 15 10 1 0
BITMAP
08CB906ECBBDDB10
1B00920A20047000
1A00910A20047000
4CCCDBBE20047000
C100000ACBBD7000
C000410A20047000
C100B30300047000
4BBBB30000047000
0000930000047000
0000410000023000
ENDCHAR
STARTCHAR uni0915094D0937094D092E094D
ENCODING -1
SWIDTH 717 0
DWIDTH 11 0
BBX 13 10 1 0
BITMAP
08CB906ECBBB20
1B00920A200000
1A00910A200000
4CCCDBBE200000
C100000ACBBB20
C000410A200000
C100B303000000
4BBBB300000000
00009300000000
00004100000000
ENDCHAR
STARTCHAR uni0915094D0937094D092E094D092F
ENCODING -1
SWIDTH 1283 0
DWIDTH 21 0
BBX 20 10 1 0
BITMAP
08CB906ECBBBBECBBEC8
1B00920A200002A00B10
1A00910A200003A00B10
4CCCDBBE2005CB300B10
C100000ACBBD50000B10
C000410A200660000B10
C100B3061002B1003E10
4BBCD30000005BBB9B10
00009300000000000B10
00004100000000000500
ENDCHAR
STARTCHAR uni0915094D0937094D092F
ENCODING -1
SWIDTH 989 0
DWIDTH 16 0
BBX 15 10 1 0
BITMAP
08CB906BDDBBDDB0
1B0092000B006600
1A0091000C006600
4CCCDBBDB6006600
C100002A00006600
C000411B00007600
C100B30B2001C600
4BBCD302ABBA8600
0000930000006600
0000410000003300
ENDCHAR
STARTCHAR uni0915094D0937094D0935
ENCODING -1
SWIDTH 936 0
DWIDTH 15 0
BBX 15 10 1 0
BITMAP
08CB906BBBBCDB20
1B0092009B648000
1A00910660048000
4CCCDBBE10048000
C100000B00048000
C000410B10048000
C100B30950088000
4BBBC301ABB88000
0000930000048000
0000410000023000
ENDCHAR
STARTCHAR uni091C094D091E
ENCODING -1
SWIDTH 629 0
DWIDTH 10 0
BBX 12 10 -1 0
BITMAP
2BBBBBBBCDB2
000000003800
004BBBBBC800
00C200003800
00B100003800
003BBBA13800
00B000663800
00D100563800
00CBBBB13800
00B000001400
ENDCHAR
STARTCHAR uni091C094D091E094D
ENCODING -1
SWIDTH 398 0
DWIDTH 6 0
BBX 9 10 -1 0
BITMAP
2BBBBBBBB0
0000000000
004BBBBBB0
00C2000000
00B1000000
003BBBA100
00B0006600
00D1005600
00CBBBB100
00B0000000
ENDCHAR
STARTCHAR uni091C094D091E094D092F
ENCODING -1
SWIDTH 975 0
DWIDTH 16 0
BBX 17 10 -1 0
BITMAP
2BBBBBBBBBDCBBEC90
00000000001A00A200
004BBBBBB21B00A200
00C200008DB400A200
00B10000660000A200
003BBBA1670000A200
00B000662C1002E200
00D1005605BBB9A200
00CBBBB1000000A200
00B000000000004100
ENDCHAR
STARTCHAR uni0915094D0928
ENCODING -1
SWIDTH 1003 0
DWIDTH 16 0
BBX 18 10 -1 0
BITMAP
2BBBBBECBBBBBBCEB2
000000930000003900
003BB298BBA2003900
00C20097006DBBC900
00B0009300B2003900
00B0009300A1003900
00C201C30010003900
003BBAA30000003900
000000930000003900
000000410000001400
ENDCHAR
STARTCHAR uni0916094D0928
ENCODING -1
SWIDTH 958 0
DWIDTH 15 0
BBX 17 10 -1 0
BITMAP
2BBBECBBBBBBBBEB60
0000A100000000C000
0000A12AB90000C000
0000C0A2056000C000
06CB60C005EBBBD000
01C000B2076000C000
0058002BBD6000C000
000A3000014000C000
0001C000000000C000
000042000000005000
ENDCHAR
STARTCHAR uni0917094D0928
ENCODING -1
SWIDTH 736 0
DWIDTH 12 0
BBX 13 10 -1 0
BITMAP
2BBEBBBBBBDDB0
000C0000007500
000C0000007500
000C007CBBD500
002C00C0007500
07B300B0007500
00000020007500
00000000007500
00000000007500
00000000003200
ENDCHAR
STARTCHAR uni0918094D0928
ENCODING -1
SWIDTH 814 0
DWIDTH 13 0
BBX 15 10 -1 0
BITMAP
2BDDBBBBBBBCEB20
00B1000000038000
0082000000038000
005EB404CBBC8000
00B1000B10038000
00A2001D00038000
002ABBB930038000
0000000000038000
0000000000038000
0000000000014000
ENDCHAR
STARTCHAR uni091A094D0928
ENCODING -1
SWIDTH 829 0
DWIDTH 13 0
BBX 15 10 -1 0
BITMAP
2BBBBBBBBBBBEB50
000000000000C000
07BCCB100000C000
001A0002BBBBC000
004700085000C000
002B000A4000C000
0006BBB76000C000
000000000000C000
000000000000C000
0000000000005000
ENDCHAR
STARTCHAR uni091B094D0928
ENCODING -1
SWIDTH 977 0
DWIDTH 16 0
BBX 17 10 -1 0
BITMAP
2BCEBBBBBBBBBBEC90
00A200000000009200
00C0007B6000009200
00730000C19BBBE200
004EB10094A0009200
00B300009490009200
00C000009250009200
00A20000C000009200
002BBBBC5000009200
000000000000004100
ENDCHAR
STARTCHAR uni091C094D0928
ENCODING -1
SWIDTH 831 0
DWIDTH 13 0
BBX 15 10 -1 0
BITMAP
2BBBBBBBBBBBEB50
000000000000C000
000000000000C000
009CDBBCDBBBC000
000093075000C000
000056075000C000
000057012000C000
000085000000C000
05BCA0000000C000
0000000000005000
ENDCHAR
STARTCHAR uni091D094D0928
ENCODING -1
SWIDTH 935 0
DWIDTH 15 0
BBX 17 10 -1 0
BITMAP
2BBBBCEBBBBBBCDB10
000002900000047000
005BBC700000047000
00C1000005BBBD7000
005BBCDBBD10047000
000000C00B00047000
00B000A10300047000
00D100C00000047000
00CBBC700000047000
00B000000000023000
ENDCHAR
STARTCHAR uni091F094D0928
ENCODING -1
SWIDTH 494 0
DWIDTH 8 0
BBX 10 14 -1 -4
BITMAP
2BBBBBECB1
0000009300
0000009300
002ABBC200
00A3000000
00B0000400
00B0000B10
00A3001B00
002ABBD500
0000008400
005CBBE400
00C1008400
00A0008400
0000008300
ENDCHAR
STARTCHAR uni0920094D0928
ENCODING -1
SWIDTH 516 0
DWIDTH 8 0
BBX 10 14 -1 -4
BITMAP
2BBBBBDDB5
0000007500
0000009300
002ABCD200
00B3002C00
00C0000B10
00C0000B10
00B3002C00
002ABBD500
0000008400
005CBBE400
00C1008400
00A0008400
0000008300
ENDCHAR
STARTCHAR uni0921094D0928
ENCODING -1
SWIDTH 481 0
DWIDTH 8 0
BBX 9 14 -1 -4
BITMAP
2BBBBBDCA0
0000008300
003BBBC200
00B2000000
00B2000000
003BBBB200
0040003A00
00B1003900
004BBBE400
0000008300
004CBBE300
00B1008300
00A1008300
0010008300
ENDCHAR
STARTCHAR uni0924094D0928
ENCODING -1
SWIDTH 756 0
DWIDTH 12 0
BBX 14 10 -1 0
BITMAP
2BBBBBBBBBCEB3
00000000002A00
00000000002A00
0032007CBBCA00
00A000B2002A00
00B00092002A00
00C00010002A00
00C00000002A00
00A83000002A00
00055000001500
ENDCHAR
STARTCHAR uni0925094D0928
ENCODING -1
SWIDTH 855 0
DWIDTH 14 0
BBX 13 10 1 0
BITMAP
3CBA08BBBBDCA0
93084000008300
200A3000008300
CBB8009CBBE300
B00002B0008300
B20005B0008300
2ABBB860008300
00000000008300
00000000008300
00000000004100
ENDCHAR
STARTCHAR uni0926094D0928
ENCODING -1
SWIDTH 955 0
DWIDTH 15 0
BBX 17 13 -1 -3
BITMAP
2BBBBBDDBBBBBBEB50
00000066000000C000
002ABBC5000000C000
00B3000002BBBBC000
00C00000085000C000
00C00014064000C000
00B20049011000C000
002ABB99000000C000
00000029000000C000
000000140000005000
000000080000000000
000000085000000000
00000000B100000000
ENDCHAR
STARTCHAR uni0927094D0928
ENCODING -1
SWIDTH 814 0
DWIDTH 13 0
BBX 15 10 -1 0
BITMAP
2BDDB01BBBBCEB20
00B1000000038000
0082000000038000
005EB404CBBC8000
00B1000B10038000
00A2001D10038000
002ABBA720038000
0000000000038000
0000000000038000
0000000000014000
ENDCHAR
STARTCHAR uni0928094D0928
ENCODING -1
SWIDTH 738 0
DWIDTH 12 0
BBX 13 10 -1 0
BITMAP
2BBBBBBBBBDDB0
00000000007500
00000000007500
00ACBBDCBBD500
049000C0007500
029000B0007500
00200020007500
00000000007500
00000000007500
00000000003200
ENDCHAR
STARTCHAR uni092A094D0928
ENCODING -1
SWIDTH 782 0
DWIDTH 13 0
BBX 14 10 -1 0
BITMAP
2BECBBBBBBBEC8
00A10000000B10
00A10000000B10
00A1001ACBBE10
00940078000B10
001ABB98000B10
00000001000B10
00000000000B10
00000000000B10
00000000000500
ENDCHAR
STARTCHAR uni092B094D0928
ENCODING -1
SWIDTH 1013 0
DWIDTH 16 0
BBX 18 10 -1 0
BITMAP
2BECBBDDBBBBBBBEB4
00A100660000000B00
00A10069BBB2000B00
00A1006A005EBBCB00
00A100660094000B00
008500A60083000B00
0019BB960043000B00
000000660000000B00
000000660000000B00
000000330000000500
ENDCHAR
STARTCHAR uni092C094D0928
ENCODING -1
SWIDTH 810 0
DWIDTH 13 0
BBX 15 10 -1 0
BITMAP
2BBBBBBBBBBCDB10
0000000000047000
003AB40000047000
00A61005CBBD7000
00B0720C10047000
00B0082A00047000
00C201C100047000
003BBC5000047000
0000000000047000
0000000000023000
ENDCHAR
STARTCHAR uni092D094D0928
ENCODING -1
SWIDTH 757 0
DWIDTH 12 0
BBX 14 10 -1 0
BITMAP
2C700BBBBBCEB3
00C00000002A00
00B10000002A00
00B1002BBBCA00
00BCBBD2002A00
00B100A1002A00
00800031002A00
00000000002A00
00000000002A00
00000000001500
ENDCHAR
STARTCHAR uni092E094D0928
ENCODING -1
SWIDTH 757 0
DWIDTH 12 0
BBX 14 10 -1 0
BITMAP
2BECBBBBBBCEB3
00B00000002A00
00B00000002A00
00B0002BBBCA00
00BCBBD2002A00
00B000A1002A00
00800031002A00
00000000002A00
00000000002A00
00000000001500
ENDCHAR
STARTCHAR uni092F094D0928
ENCODING -1
SWIDTH 829 0
DWIDTH 13 0
BBX 15 10 -1 0
BITMAP
2BBCEBBBBBBBEB50
000092000000C000
0000A3000000C000
00BB8002BBBBC000
00B000084000C000
00A3001C4000C000
0019BBA55000C000
000000000000C000
000000000000C000
0000000000005000
ENDCHAR
STARTCHAR uni0935094D0928
ENCODING -1
SWIDTH 798 0
DWIDTH 13 0
BBX 14 10 -1 0
BITMAP
2BBBBBBBBBBDDA
00000000000740
003BB400000740
00B20008CBBD40
00B0001C000740
00B0000B000740
00C20191000740
003BBC50000740
00000000000740
00000000000320
ENDCHAR
STARTCHAR uni0936094D0928
ENCODING -1
SWIDTH 845 0
DWIDTH 14 0
BBX 14 10 0 0
BITMAP
05CBA14BBBBEC8
0B007500000B10
05006500000B10
0000940ACBBE10
3DBB8049000B10
0C100038000B10
03A00001000B10
00950000000B10
001C1000000B10
00033000000500
ENDCHAR
STARTCHAR uni0938094D0928
ENCODING -1
SWIDTH 831 0
DWIDTH 13 0
BBX 15 10 -1 0
BITMAP
2BBCEBBBBBBBEB50
0000C0000000C000
0000B0000000C000
00039001BBBBD000
06CDCBBD5000C000
01B000065000C000
007600012000C000
000C10000000C000
000580000000C000
0000600000005000
ENDCHAR
STARTCHAR uni0939094D0928
ENCODING -1
SWIDTH 500 0
DWIDTH 8 0
BBX 10 11 -1 -1
BITMAP
2BBBBBCEB2
0000002A00
003BBBC800
00A3000000
0093000000
002ECBCD20
009402BB30
00C01B1830
00C02A0820
00A4060000
002ABBB300
ENDCHAR
STARTCHAR uni0915094D0930
ENCODING -1
SWIDTH 725 0
DWIDTH 12 0
BBX 13 10 -1 0
BITMAP
2BBBBBECBBBB90
00000093000000
003BB298BB9100
00C20097006700
00B00093002900
00B00093002900
00C201C3006700
004BCDB36B9100
00019393000000
001A2041000000
ENDCHAR
STARTCHAR uni0916094D0930
ENCODING -1
SWIDTH 698 0
DWIDTH 11 0
BBX 13 10 -1 0
BITMAP
2BBBECBBBCEB40
0000A10001B000
0000A12A81B000
0000C0B201B000
06CB60C001B000
01C000B205B000
0058003BCBB000
000A3001A2B000
0001C00A31B000
00004266005000
ENDCHAR
STARTCHAR uni0917094D0930
ENCODING -1
SWIDTH 494 0
DWIDTH 8 0
BBX 10 10 -1 0
BITMAP
2BBEBBDDB1
000C005700
000C005700
000C005700
002C006700
07B303D700
00002A6700
0001B15700
000A305700
0034002300
ENDCHAR
STARTCHAR uni0918094D0930
ENCODING -1
SWIDTH 559 0
DWIDTH 9 0
BBX 11 11 -1 -1
BITMAP
2BDDBBBDDB10
00B100047000
00B100047000
003EB4047000
00A200047000
00B000057000
00A300097000
002ABCE97000
00001B447000
0001B4023000
000430000000
ENDCHAR
STARTCHAR uni0919094D0930
ENCODING -1
SWIDTH 505 0
DWIDTH 8 0
BBX 10 12 -1 -2
BITMAP
2BBBBBECB3
0000009200
003BBBC100
00B1000000
00B1000360
003BBBA200
0000005800
00B0003900
00A6449600
0017EE5000
000A486000
006800B200
ENDCHAR
STARTCHAR uni091A094D0930
ENCODING -1
SWIDTH 563 0
DWIDTH 9 0
BBX 11 10 -1 0
BITMAP
2BBBBBBCDB20
000000048000
07BCCB148000
001B00048000
004700048000
004700048000
002B10088000
0005BBE98000
00001A448000
0003B2014000
ENDCHAR
STARTCHAR uni091B094D0930
ENCODING -1
SWIDTH 581 0
DWIDTH 9 0
BBX 11 12 -1 -2
BITMAP
2BCEBBBCEB50
00A20001B000
00C00001B000
00A3007C9000
002EB100B100
00A300009200
00C000009200
00A20000C000
003BBBBC6000
000087C10000
0004A0590000
000510060000
ENDCHAR
STARTCHAR uni091C094D0930
ENCODING -1
SWIDTH 547 0
DWIDTH 9 0
BBX 10 10 -1 0
BITMAP
2BBBBBBDCA
0000000740
0000000740
009CDBBD40
0000840740
0000570740
0000850B40
05BB909A40
0000095740
0000770320
ENDCHAR
STARTCHAR uni091D094D0930
ENCODING -1
SWIDTH 684 0
DWIDTH 11 0
BBX 13 10 -1 0
BITMAP
2BBBBCEBBCDB10
003BBC80047000
00B10000047000
00B10000047000
003BBCDBBD7000
000000C0047000
00B000A1097000
00D100C07C7000
00CBBC76A47000
00B0004B023000
ENDCHAR
STARTCHAR uni091E094D0930
ENCODING -1
SWIDTH 598 0
DWIDTH 10 0
BBX 11 10 -1 0
BITMAP
2BBBBBBBEC80
00000000A200
00BBA200A200
00005900A200
00001EBBE200
00001A00B200
00005707E200
03BB9169A200
00000590A200
000006005100
ENDCHAR
STARTCHAR uni091F094D0930
ENCODING -1
SWIDTH 485 0
DWIDTH 8 0
BBX 9 11 -1 -1
BITMAP
2BBBBBECA0
000000B100
002ABBC100
00A3000000
00B0000000
00C0000000
00C0000B00
00B2001B00
003CBBC400
0003A77000
001B109500
ENDCHAR
STARTCHAR uni0920094D0930
ENCODING -1
SWIDTH 512 0
DWIDTH 8 0
BBX 10 12 -1 -2
BITMAP
2BBBBBDCB4
0000008300
002ABCD200
00A3003B00
00B0000C00
00C0000C00
00C0000C00
00B2001B00
003CBBC300
0002B86000
000B30C200
0015002400
ENDCHAR
STARTCHAR uni0921094D0930
ENCODING -1
SWIDTH 475 0
DWIDTH 8 0
BBX 9 12 -1 -2
BITMAP
2BBBBBEC90
0000009200
003BBBC100
00B1000000
00B1000000
003BBBA200
0000005800
00B0003900
00A6449600
0017EE5000
0009568000
004900A300
ENDCHAR
STARTCHAR uni0922094D0930
ENCODING -1
SWIDTH 485 0
DWIDTH 8 0
BBX 9 12 -1 -2
BITMAP
2BBBBBECB0
0000009200
002ABBC200
00A3000000
00B0000000
00B009B700
00B0290B00
00B2010B00
003BBBC600
0002C96000
000B30C200
0015002400
ENDCHAR
STARTCHAR uni0923094D0930
ENCODING -1
SWIDTH 681 0
DWIDTH 11 0
BBX 13 10 -1 0
BITMAP
2BECBBEBBDDB10
00A100B0057000
00A100B0057000
00A100B0057000
00A100B0057000
008402B00B7000
001ABB30A87000
00000009457000
00000085057000
00000240023000
ENDCHAR
STARTCHAR uni0924094D0930
ENCODING -1
SWIDTH 493 0
DWIDTH 8 0
BBX 10 10 -1 0
BITMAP
2BBBBBDDB1
0000005600
003BBB9600
00B200A600
00C0006600
0060007600
000008D600
0001A65600
002B405600
0052002300
ENDCHAR
STARTCHAR uni0925094D0930
ENCODING -1
SWIDTH 593 0
DWIDTH 9 0
BBX 9 10 1 0
BITMAP
3CBA00BC70
930840B000
100930B000
CBB800B000
B00000B000
C00000C000
B40003F000
2ABBD9C000
001860B000
02A3005000
ENDCHAR
STARTCHAR uni0926094D0930
ENCODING -1
SWIDTH 489 0
DWIDTH 8 0
BBX 9 10 -1 0
BITMAP
2BBBBBDDB0
0000006600
002ABBC500
00B3000000
00C0000000
00C0001400
00B2004900
002ABDB900
00004B2900
0002B11400
ENDCHAR
STARTCHAR uni0927094D0930
ENCODING -1
SWIDTH 560 0
DWIDTH 9 0
BBX 11 10 -1 0
BITMAP
2BDD709CDB10
00B000047000
00B100047000
003EB4047000
00A200047000
00C000047000
00A300097000
002ABBE97000
00001A447000
0001B3023000
ENDCHAR
STARTCHAR uni0928094D0930
ENCODING -1
SWIDTH 473 0
DWIDTH 8 0
BBX 9 10 -1 0
BITMAP
2BBBBBEC80
000000A100
000000A100
00ACBBE100
039000C100
029009D100
002077A100
000490A100
003B00A100
0051005000
ENDCHAR
STARTCHAR uni092A094D0930
ENCODING -1
SWIDTH 503 0
DWIDTH 8 0
BBX 10 10 -1 0
BITMAP
2BECBBCEB3
00A1003900
00A1003900
00A1003900
0094006900
002ABDA900
00002A3900
0001B13900
000A203900
0034001400
ENDCHAR
STARTCHAR uni092B094D0930
ENCODING -1
SWIDTH 741 0
DWIDTH 12 0
BBX 13 10 -1 0
BITMAP
2BECBBDDBBBBB0
00A10059BBA100
00A1005B004900
00A10057000C00
00940097000C00
002ABEB7000C00
00005857004900
0003A0574BA100
001B1057000000
00420023000000
ENDCHAR
STARTCHAR uni092C094D0930
ENCODING -1
SWIDTH 491 0
DWIDTH 8 0
BBX 9 10 -1 0
BITMAP
2BBBBBDDB0
0000006600
003BB46600
00C9006600
00B3916600
00B0197600
00C201D600
003BBEA600
0000946600
0009403300
ENDCHAR
STARTCHAR uni092D094D0930
ENCODING -1
SWIDTH 491 0
DWIDTH 8 0
BBX 9 10 -1 0
BITMAP
2C700BDDB0
00C0006600
00B1006600
00B1006600
00BCBBD600
00B101C600
00801A8600
0000A36600
0009406600
0024003300
ENDCHAR
STARTCHAR uni092E094D0930
ENCODING -1
SWIDTH 490 0
DWIDTH 8 0
BBX 9 10 -1 0
BITMAP
2BECBBDDB0
00B0006600
00B0006600
00B0006600
00BCBBD600
00B002D600
00801B8600
0001B36600
000A406600
0034003300
ENDCHAR
STARTCHAR uni092F094D0930
ENCODING -1
SWIDTH 564 0
DWIDTH 9 0
BBX 11 10 -1 0
BITMAP
2BBCEBBCEB20
000092038000
0000A3038000
00BB80038000
00C000038000
00C000048000
00A400098000
0019BCE88000
00003A238000
0004A1014000
ENDCHAR
STARTCHAR uni0935094D0930
ENCODING -1
SWIDTH 484 0
DWIDTH 8 0
BBX 9 10 -1 0
BITMAP
2BBBBBDCA0
0000007400
003BB37400
00C2007400
00C0007400
00C0007400
00C200B400
003BCDA400
0001A37400
000A303200
ENDCHAR
STARTCHAR uni0936094D0930
ENCODING -1
SWIDTH 558 0
DWIDTH 9 0
BBX 10 10 0 0
BITMAP
05CBA04DB1
0C00845700
0C00755700
0861C15700
00BE505700
1A94B67700
43002DB700
0005B35700
0078005700
0000002300
ENDCHAR
STARTCHAR uni0938094D0930
ENCODING -1
SWIDTH 604 0
DWIDTH 10 0
BBX 11 10 -1 0
BITMAP
2BBCEBBBEC90
0000C0009300
0000B0009300
000390009300
06CDCBBCE300
01B0001BA300
007600A49300
000C14609300
000580009300
000060004100
ENDCHAR
STARTCHAR uni0939094D0930
ENCODING -1
SWIDTH 505 0
DWIDTH 8 0
BBX 10 11 -1 -1
BITMAP
2BBBBBCDB3
0000004700
004BBBC600
00C1000000
00B1000000
004EBBCC00
00B201CB10
00C00B3A10
00C0860910
00B2000000
002ABBB300
ENDCHAR
STARTCHAR uni0915093C094D0930
ENCODING -1
SWIDTH 725 0
DWIDTH 12 0
BBX 13 11 -1 -1
BITMAP
2BBBBBECBBBB90
00000093000000
003BB298BB9100
00C20097006700
00B00093002900
00B00093002900
00C201C3006700
004BCDB36B9100
00019393000000
001A2041000000
00006200000000
ENDCHAR
STARTCHAR uni0916093C094D0930
ENCODING -1
SWIDTH 698 0
DWIDTH 11 0
BBX 13 11 -1 -1
BITMAP
2BBBECBBBCEB40
0000A10001B000
0000A12A81B000
0000C0B201B000
06CB60C001B000
01C000B205B000
0058003BCBB000
000A3001A2B000
0001C00A31B000
00004266005000
00000001800000
ENDCHAR
STARTCHAR uni0917093C094D0930
ENCODING -1
SWIDTH 494 0
DWIDTH 8 0
BBX 10 11 -1 -1
BITMAP
2BBEBBDDB1
000C005700
000C005700
000C005700
002C006700
07B303D700
00002A6700
0001B15700
000A305700
0034002300
0000720000
ENDCHAR
STARTCHAR uni091C093C094D0930
ENCODING -1
SWIDTH 547 0
DWIDTH 9 0
BBX 10 10 -1 0
BITMAP
2BBBBBBDCA
0000000740
0000000740
009CDBBD40
0000840740
0000570740
0000860B40
05BB919940
00000A3740
0630640320
ENDCHAR
STARTCHAR uni0921093C094D0930
ENCODING -1
SWIDTH 475 0
DWIDTH 8 0
BBX 9 12 -1 -2
BITMAP
2BBBBBEC90
0000009200
003BBBC100
00B1000000
00B1000000
003BBBA200
0000005800
00B0003900
00A6449600
0017EE5000
0909578000
004900A300
ENDCHAR
STARTCHAR uni0922093C094D0930
ENCODING -1
SWIDTH 485 0
DWIDTH 8 0
BBX 9 12 -1 -2
BITMAP
2BBBBBECB0
0000009200
002ABBC200
00A3000000
00B0000000
00B009B700
00B0290B00
00B2010B00
003BBBC600
0902B86000
000B30B200
0015002400
ENDCHAR
STARTCHAR uni0928093C094D0930
ENCODING -1
SWIDTH 473 0
DWIDTH 8 0
BBX 9 11 -1 -1
BITMAP
2BBBBBEC80
000000A100
000000A100
00ACBBE100
039000C100
029009D100
002077A100
000490A100
003B00A100
0051005000
0003600000
ENDCHAR
STARTCHAR uni092B093C094D0930
ENCODING -1
SWIDTH 741 0
DWIDTH 12 0
BBX 13 11 -1 -1
BITMAP
2BECBBDDBBBBB0
00A10059BBA100
00A1005B004900
00A10057000C00
00940097000C00
002ABEB7000C00
00005857004900
0003A0574BA100
001B1057000000
00420023000000
00008100000000
ENDCHAR
STARTCHAR uni092F093C094D0930
ENCODING -1
SWIDTH 564 0
DWIDTH 9 0
BBX 11 11 -1 -1
BITMAP
2BBCEBBCEB20
000092038000
0000A3038000
00BB80038000
00C000038000
00C000048000
00A400098000
0019BCE88000
00003B338000
0004B1014000
000007200000
ENDCHAR
STARTCHAR uni0915094D0930094D
ENCODING -1
SWIDTH 518 0
DWIDTH 8 0
BBX 12 10 -1 0
BITMAP
2BBBBBECBBB4
000000930000
003BB298BB80
00C200970052
00B000930000
00B000930000
00C201C30000
004BCDB30000
000192930000
001A20410000
ENDCHAR
STARTCHAR uni0916094D0930094D
ENCODING -1
SWIDTH 469 0
DWIDTH 8 0
BBX 11 10 -1 0
BITMAP
2BBBECBBBB20
0000A1000000
0000A12A8000
0000C0B20000
06CB60C00000
01C000B20640
0058003BDB00
000A3001B100
0001C00A3000
000042660000
ENDCHAR
STARTCHAR uni0917094D0930094D
ENCODING -1
SWIDTH 264 0
DWIDTH 4 0
BBX 8 10 -1 0
BITMAP
2BBEB400
000C0000
000C0000
000C0000
002C0041
07B303A0
00002B10
0001B200
000B3000
00340000
ENDCHAR
STARTCHAR uni0918094D0930094D
ENCODING -1
SWIDTH 319 0
DWIDTH 5 0
BBX 9 11 -1 -1
BITMAP
2BDEBBB800
00A1000000
00B0000000
00A2000000
002EB40000
00A2000000
00B0000000
00A3001810
002ABCD300
0000492000
0004700000
ENDCHAR
STARTCHAR uni091A094D0930094D
ENCODING -1
SWIDTH 331 0
DWIDTH 5 0
BBX 9 11 -1 -1
BITMAP
2BBBBBB600
0000000000
0000000000
07BCCB1000
001B000000
0047000000
0047000000
002B100720
0005BBD500
0000671000
0001200000
ENDCHAR
STARTCHAR uni091C094D0930094D
ENCODING -1
SWIDTH 312 0
DWIDTH 5 0
BBX 9 11 -1 -1
BITMAP
2BBBBBB700
0000000000
0000000000
009CDBB700
0000930000
0000570000
0000570310
0000944A00
05BB84A000
00004B0000
0000210000
ENDCHAR
STARTCHAR uni091D094D0930094D
ENCODING -1
SWIDTH 441 0
DWIDTH 7 0
BBX 10 10 -1 0
BITMAP
2BBBBCEBB8
0000029000
003BBC7000
00B1000000
00B1000000
003BBCDBBC
00B000B10B
00D100B179
00CBBB85A0
00B0003B00
ENDCHAR
STARTCHAR uni091E094D0930094D
ENCODING -1
SWIDTH 374 0
DWIDTH 6 0
BBX 9 10 -1 0
BITMAP
2BBBBBBB50
0000000000
00BBA20000
0000590000
00001EBBC0
00001A00A0
0000570480
03BB913A00
000003B100
0000061000
ENDCHAR
STARTCHAR uni091F094D0930094D
ENCODING -1
SWIDTH 485 0
DWIDTH 8 0
BBX 9 14 -1 -4
BITMAP
2BBBBBECA0
000000B100
000000B100
002BBBC000
00B2000000
00C0000000
00C0000B00
00C1001B00
004CBBC400
0003A77000
001B109500
0000190000
0000084000
000001B000
ENDCHAR
STARTCHAR uni0920094D0930094D
ENCODING -1
SWIDTH 512 0
DWIDTH 8 0
BBX 10 14 -1 -4
BITMAP
2BBBBBDCB4
0000008400
000000A200
003BBCD200
00B2002C00
00C0000C00
00C0000C00
00C1001C00
004CBBC400
0002B86000
000B20B300
0013161300
0000093000
000001B000
ENDCHAR
STARTCHAR uni0921094D0930094D
ENCODING -1
SWIDTH 475 0
DWIDTH 8 0
BBX 9 15 -1 -5
BITMAP
2BBBBBEC90
0000009200
003BBBC100
00B1000000
00B1000000
003BBBA200
0000005800
00B0003900
00A6449700
0017EE6000
0009577000
004900B300
0000380000
0000085000
0000006000
ENDCHAR
STARTCHAR uni0922094D0930094D
ENCODING -1
SWIDTH 485 0
DWIDTH 8 0
BBX 9 14 -1 -4
BITMAP
2BBBBBECB0
0000009200
002ABBC200
00A3000000
00B0000000
00B009B700
00B0290B00
00A2010B00
003BBBC600
0002C87000
000B30B300
0013161300
0000094000
000001B000
ENDCHAR
STARTCHAR uni0923094D0930094D
ENCODING -1
SWIDTH 457 0
DWIDTH 7 0
BBX 11 10 -1 0
BITMAP
2BECBBEB5000
00A100B00000
00A100B00000
00A100B00000
00A100B00100
008402B01A20
001ABB30A300
000000094000
000000950000
000002400000
ENDCHAR
STARTCHAR uni0924094D0930094D
ENCODING -1
SWIDTH 268 0
DWIDTH 4 0
BBX 8 10 -1 0
BITMAP
2BBBBBB7
00000000
003BBB50
00B20091
00C00064
00600073
00000880
0001A600
002B4000
00520000
ENDCHAR
STARTCHAR uni0925094D0930094D
ENCODING -1
SWIDTH 358 0
DWIDTH 6 0
BBX 7 11 1 -1
BITMAP
2BB90000
84093000
61074000
000B2000
CBB70000
B0000000
C0000000
B4000450
2ABBD900
00284000
02810000
ENDCHAR
STARTCHAR uni0926094D0930094D
ENCODING -1
SWIDTH 489 0
DWIDTH 8 0
BBX 9 13 -1 -3
BITMAP
2BBBBBDDB0
0000006600
002ABBC500
00B3000000
00C0000000
00C0001400
00B2004900
002ABDB900
00004B2900
0001B11400
0000057000
000000A300
0000001500
ENDCHAR
STARTCHAR uni0927094D0930094D
ENCODING -1
SWIDTH 322 0
DWIDTH 5 0
BBX 9 11 -1 -1
BITMAP
2BDE70A800
00A1000000
00B0000000
00A2000000
002EB40000
00A2000000
00B0000000
00A3000810
002ABCE500
00002A3000
0001910000
ENDCHAR
STARTCHAR uni0928094D0930094D
ENCODING -1
SWIDTH 247 0
DWIDTH 4 0
BBX 7 10 -1 0
BITMAP
2BBBBBB0
00000000
00000000
00ACBBC0
039000A0
02900670
00205900
0003A000
002B1000
00510000
ENDCHAR
STARTCHAR uni092A094D0930094D
ENCODING -1
SWIDTH 270 0
DWIDTH 4 0
BBX 8 10 -1 0
BITMAP
2BECBB40
00A10000
00A10000
00A10000
00940073
002ABD90
00003A00
0002B100
001B3000
00340000
ENDCHAR
STARTCHAR uni092B094D0930094D
ENCODING -1
SWIDTH 523 0
DWIDTH 8 0
BBX 12 10 -1 0
BITMAP
4BEBBBDCBBB3
00C00088BC90
00C000880053
00C000840000
00C200B40000
003BBEB40000
000075840000
000580840000
002A00840000
005100410000
ENDCHAR
STARTCHAR uni092C094D0930094D
ENCODING -1
SWIDTH 267 0
DWIDTH 4 0
BBX 8 11 -1 -1
BITMAP
2BBBBBB1
00000000
002BB400
00B80000
00B75000
00B07500
00B00863
00B200C1
002BBE40
00019300
00082000
ENDCHAR
STARTCHAR uni092D094D0930094D
ENCODING -1
SWIDTH 257 0
DWIDTH 4 0
BBX 8 10 -1 0
BITMAP
2C700BB1
00C00000
00B10000
00B10000
00BCBBC1
00B102A0
00701B10
0001B200
000A3000
00240000
ENDCHAR
STARTCHAR uni092E094D0930094D
ENCODING -1
SWIDTH 261 0
DWIDTH 4 0
BBX 8 10 -1 0
BITMAP
2BECBBB1
00B00000
00B00000
00B00000
00BCBBC1
00B002A0
00701B10
0001B200
000A3000
00240000
ENDCHAR
STARTCHAR uni092F094D0930094D
ENCODING -1
SWIDTH 323 0
DWIDTH 5 0
BBX 9 11 -1 -1
BITMAP
2BBCEBB200
0000A10000
0000830000
0000B10000
00BB600000
00C0000000
00C0000000
00A4001910
0019BCD300
0000491000
0004700000
ENDCHAR
STARTCHAR uni0935094D0930094D
ENCODING -1
SWIDTH 255 0
DWIDTH 4 0
BBX 7 11 -1 -1
BITMAP
2BBBBB20
00000000
002AB300
00B20000
00C00000
00C00000
00C00000
00B20180
002BCE30
00019200
00082000
ENDCHAR
STARTCHAR uni0938094D0930094D
ENCODING -1
SWIDTH 347 0
DWIDTH 6 0
BBX 9 10 -1 0
BITMAP
2BBCEBBA00
0000C00000
0000B00000
0003900000
06CDCBBC50
01B0001B10
007600B300
000C195000
0005800000
0000600000
ENDCHAR
STARTCHAR uni0915093C094D0930094D
ENCODING -1
SWIDTH 518 0
DWIDTH 8 0
BBX 12 11 -1 -1
BITMAP
2BBBBBECBBB4
000000930000
003BB298BB80
00C200970052
00B000930000
00B000930000
00C201C30000
004BCDB30000
000193930000
001A30410000
000072000000
ENDCHAR
STARTCHAR uni0916093C094D0930094D
ENCODING -1
SWIDTH 466 0
DWIDTH 7 0
BBX 11 11 -1 -1
BITMAP
2BBBECBBBB20
0000A1000000
0000A12A8000
0000C0B20000
06CB60C00000
01C000B20640
0058003BDB00
000A3001B100
0001C00A4000
000042670000
000000109000
ENDCHAR
STARTCHAR uni0917093C094D0930094D
ENCODING -1
SWIDTH 264 0
DWIDTH 4 0
BBX 8 11 -1 -1
BITMAP
2BBEB400
000C0000
000C0000
000C0000
002C0041
07B303A0
00002B10
0001B200
000B3000
00340000
00006300
ENDCHAR
STARTCHAR uni091C093C094D0930094D
ENCODING -1
SWIDTH 320 0
DWIDTH 5 0
BBX 9 11 -1 -1
BITMAP
2BBBBBB700
0000000000
0000000000
009CDBB700
0000930000
0000570000
0000570510
0000945900
05BB859000
0000590000
0630100000
ENDCHAR
STARTCHAR uni0928093C094D0930094D
ENCODING -1
SWIDTH 247 0
DWIDTH 4 0
BBX 7 11 -1 -1
BITMAP
2BBBBBB0
00000000
00000000
00ACBBC0
039000A0
02900670
00205900
0003A000
002B1000
00510000
00018000
ENDCHAR
STARTCHAR uni092B093C094D0930094D
ENCODING -1
SWIDTH 523 0
DWIDTH 8 0
BBX 12 11 -1 -1
BITMAP
4BEBBBDCBBB3
00C00088BC90
00C000880053
00C000840000
00C200B40000
003BBEB40000
000075840000
000580840000
002A00840000
005100410000
000180000000
ENDCHAR
STARTCHAR uni092F093C094D0930094D
ENCODING -1
SWIDTH 323 0
DWIDTH 5 0
BBX 9 12 -1 -2
BITMAP
2BBCEBB200
0000A10000
0000830000
0000B10000
00BB600000
00C0000000
00C0000000
00A4001910
0019BCE400
00003A2000
0005A10000
0000062000
ENDCHAR
STARTCHAR uni0915094D0915
ENCODING -1
SWIDTH 1255 0
DWIDTH 20 0
BBX 22 10 -1 0
BITMAP
2BBBBBECBBBBBBCEBBBBB3
000000930000001A000000
003BB298BB88B81BABB400
00C200970088001D101C00
00B000930083001A000A20
00B000930083001A000A20
00C201C30068005A001C00
003BBAA30008BB7A1BB400
000000930000001A000000
0000004100000005000000
ENDCHAR
STARTCHAR uni0915094D0916
ENCODING -1
SWIDTH 1256 0
DWIDTH 20 0
BBX 22 10 -1 0
BITMAP
2BBBBBECBBBBBECBBBCEB3
0000009300000B10002900
003BB298BB600B13B72900
00C2009700B20C0B202900
00B00093007DB50C002900
00B00093002C000B206900
00C201C300068003BB7900
003BBAA30000B300002900
0000009300002B00002900
0000004100000420001400
ENDCHAR
STARTCHAR uni0915094D091A
ENCODING -1
SWIDTH 1086 0
DWIDTH 17 0
BBX 19 10 -1 0
BITMAP
2BBBBBECBBBBBBBBEB60
0000009300000000C000
0032009914BCDB50C000
00A00093000A3000C000
00B00093000B0000C000
00C00093000B0000C000
00C201C3000A3003D000
003BBAA30002ABB8C000
0000009300000000C000
00000041000000005000
ENDCHAR
STARTCHAR uni0915094D091C
ENCODING -1
SWIDTH 1071 0
DWIDTH 17 0
BBX 19 10 -1 0
BITMAP
2BBBBBECBBBBBBBCEB30
0000009300000002A000
00320098BB0BDCBCA000
00A0009700004802A000
00B0009300000B02A000
00C0009300000C02A000
00C201C300000B02A000
003BBAA300004902A000
0000009301BBA202A000
00000041000000015000
ENDCHAR
STARTCHAR uni0915094D091F
ENCODING -1
SWIDTH 984 0
DWIDTH 16 0
BBX 17 10 -1 0
BITMAP
2BBBBBECBBBBBBECA0
00000093000000B100
003BB298BB87BBC000
00C2009700A3000000
00B0009300B0000000
00B0009300C0000500
00C201C300C0000B00
003BBAA300B2002B00
00000093003BBBB300
000000410000000000
ENDCHAR
STARTCHAR uni0915094D0923
ENCODING -1
SWIDTH 1183 0
DWIDTH 19 0
BBX 21 10 -1 0
BITMAP
2BBBBBECBBECBBEBBCDB10
0000009300A200C0047000
003BB298BBE200C0047000
00C2009700A200C0047000
00B00093009200C0047000
00B00093007501C0047000
00C201C30019BB40047000
003BBAA300000000047000
0000009300000000047000
0000004100000000023000
ENDCHAR
STARTCHAR uni0915094D0924
ENCODING -1
SWIDTH 761 0
DWIDTH 12 0
BBX 14 10 -1 0
BITMAP
2BBBBBBEBBBBB4
0000000C000000
00BDCBBC9BB300
001B100E201C00
0039000C000920
0038000C000930
0029000C000920
000C100C001C00
0004B80C09B300
00000005000000
ENDCHAR
STARTCHAR uni0915094D0925
ENCODING -1
SWIDTH 1118 0
DWIDTH 18 0
BBX 20 10 -1 0
BITMAP
2BBBBBECB609BB305DB1
00000093002902905600
003BB293001304805600
00C20098BBCCBA205600
00B00097009200005600
00B00093009300006600
00C201C300580001B600
003BBAA30007BBBB8600
00000093000000005600
00000041000000002300
ENDCHAR
STARTCHAR uni0915094D0926
ENCODING -1
SWIDTH 1009 0
DWIDTH 16 0
BBX 18 10 -1 0
BITMAP
2BBBBBECBBBBBBCEB4
000000930000001B00
003BB298BB87BBB900
00C200970077000000
00B000930093000000
00B000930093000500
00C201C30077001D00
003BBAA30009BBAC00
000000930000000B00
000000410000000500
ENDCHAR
STARTCHAR uni0915094D092A
ENCODING -1
SWIDTH 1007 0
DWIDTH 16 0
BBX 18 10 -1 0
BITMAP
2BBBBBECBBECBBCEB3
0000009300A2002A00
003BB298BBE2002A00
00C2009700A2002A00
00B000930092002A00
00B000930066006A00
00C201C30009BB8A00
003BBAA30000002A00
000000930000002A00
000000410000001500
ENDCHAR
STARTCHAR uni0915094D092B
ENCODING -1
SWIDTH 1242 0
DWIDTH 20 0
BBX 22 10 -1 0
BITMAP
2BBBBBECBBECBBDDBBBBB1
0000009300A20057000000
003BB298BBE2005ABBA200
00C2009700A2005B003B00
00B0009300920057000C00
00B0009300660097000C00
00C201C30008BB87003B00
003BBAA3000000574BA200
0000009300000057000000
0000004100000023000000
ENDCHAR
STARTCHAR uni0915094D092E
ENCODING -1
SWIDTH 994 0
DWIDTH 16 0
BBX 18 10 -1 0
BITMAP
2BBBBBECBBECBBDDB1
0000009300A1005700
003BB298BBE1005700
00C2009700A1005700
00B0009300ACBBD700
00B0009300A1005700
00C201C30061005700
003BBAA30000005700
000000930000005700
000000410000002300
ENDCHAR
STARTCHAR uni0915094D092F
ENCODING -1
SWIDTH 1076 0
DWIDTH 17 0
BBX 19 10 -1 0
BITMAP
2BBBBBECBBBCEBBCEB40
0000009300006500B000
003BB29300007500B000
00C20098BBDB9000B000
00B0009700B10000B000
00B0009300A10001B000
00C201C300770007B000
003BBAA30008BBB6B000
0000009300000000B000
00000041000000005000
ENDCHAR
STARTCHAR uni0915094D0932
ENCODING -1
SWIDTH 1178 0
DWIDTH 19 0
BBX 20 10 -1 0
BITMAP
2BBBBBECBBBBBBBBBDDB
00000093000000000660
003BB298BB87B93BB960
00C2009700A306C10A60
00B0009300C002A00660
00B0009300C002A00660
00C201C300C000000660
003BBAA300A200000660
00000093002BB5000660
00000041000000000330
ENDCHAR
STARTCHAR uni0915094D0935
ENCODING -1
SWIDTH 1013 0
DWIDTH 16 0
BBX 18 10 -1 0
BITMAP
2BBBBBECBBBBBBBEB4
000000930000000B00
003BB298BB87B80B00
00C200970088000B00
00B000930084000B00
00B000930084000B00
00C201C30068004B00
003BBAA30008BB7B00
000000930000000B00
000000410000000500
ENDCHAR
STARTCHAR uni0915094D0936
ENCODING -1
SWIDTH 1194 0
DWIDTH 19 0
BBX 21 10 -1 0
BITMAP
2BBBBBECBB22BBB302EB30
0000009300074039029000
003BB298BB81002A029000
00C2009700850058029000
00B00093004DBBA1029000
00B00093000B2000029000
00C201C30002B000029000
003BBAA300007700029000
0000009300000B30029000
0000004100000240014000
ENDCHAR
STARTCHAR uni0915094D0938
ENCODING -1
SWIDTH 1143 0
DWIDTH 18 0
BBX 20 10 -1 0
BITMAP
2BBBBBECBBBBBEBBBEB5
0000009300000C000C00
003BB298BB800C000C00
00C2009700942A000C00
00B00093006DDCBBBC00
00B00093001C10000C00
00C201C3000670000C00
003BBAA30000B2000C00
0000009300004A000C00
00000041000006000500
ENDCHAR
STARTCHAR uni0916094D0916
ENCODING -1
SWIDTH 1223 0
DWIDTH 20 0
BBX 21 10 -1 0
BITMAP
2BBBECBBBBBBCDBBBBEC80
0000A1000000480000A100
0000A13B80004808B1A100
0000C0B20000675800A100
06CB60C000DBA17500A100
01C000B201C5005801D100
0058003BBA2A1009BAB100
000A30000003900000A100
0001C0000000850000A100
0000420000001500005000
ENDCHAR
STARTCHAR uni0916094D0924
ENCODING -1
SWIDTH 984 0
DWIDTH 16 0
BBX 17 10 -1 0
BITMAP
2BBBECBBBBBBBBDCA0
0000A1000000008400
0000A13B8000008400
0000C0B2006BBBD400
06CB60C001C1008400
01C000B20290008400
0058003BBC90008400
000A300001A0008400
0001C00000A6208400
000042000016403200
ENDCHAR
STARTCHAR uni0916094D092E
ENCODING -1
SWIDTH 965 0
DWIDTH 15 0
BBX 17 10 -1 0
BITMAP
2BBBECBBBCEBBBEB70
0000A100029000C000
0000A13B829000C000
0000C0B2029000C000
06CB60C002EBBBE000
01C000B2049000C000
0058002BBB2000C000
000A3000000000C000
0001C000000000C000
000042000000005000
ENDCHAR
STARTCHAR uni0916094D092F
ENCODING -1
SWIDTH 1047 0
DWIDTH 17 0
BBX 18 10 -1 0
BITMAP
2BBBECBBBBBDDBBDDA
0000A1000000B00740
0000A13B8001C00740
0000C0B202CB500740
06CB60C00390000740
01C000B20590000740
0058003BB892001C40
000A3000001ABBA940
0001C0000000000740
000042000000000320
ENDCHAR
STARTCHAR uni0916094D0935
ENCODING -1
SWIDTH 975 0
DWIDTH 16 0
BBX 17 10 -1 0
BITMAP
2BBBECBBBBBBBBEC90
0000A100000000A200
0000A12A804BB1A200
0000C0A300C100A200
06CB60C002A000A200
02C000C002A000A200
005800A305D101D200
000A302BB86BBAB200
0001C000000000A200
000042000000004100
ENDCHAR
STARTCHAR uni0916094D0936
ENCODING -1
SWIDTH 1123 0
DWIDTH 18 0
BBX 20 10 -1 0
BITMAP
2BBBECBBB13CBB203DB1
0000A100009205704800
0000A13B805104704800
0000C0B2000007604800
06CB60C009CBB9004800
01C000B2079000004800
0058003BB88400004800
000A3000000B10004800
0001B000000480004800
00004200000060002300
ENDCHAR
STARTCHAR uni0917094D0917
ENCODING -1
SWIDTH 744 0
DWIDTH 12 0
BBX 14 10 -1 0
BITMAP
2BBEBBBEBBDDB1
000C000C005700
000C000C005700
000C000C005700
002C002C005700
07B307B3005700
00000000005700
00000000005700
00000000005700
00000000002300
ENDCHAR
STARTCHAR uni0917094D0918
ENCODING -1
SWIDTH 823 0
DWIDTH 13 0
BBX 15 10 -1 0
BITMAP
2BBEBBCEBBBCEB40
000C00830001B000
000C00840001B000
000C002DC701B000
002C00750001B000
07B300920001B000
000000760006B000
0000001ABBB7B000
000000000001B000
0000000000005000
ENDCHAR
STARTCHAR uni0917094D091C
ENCODING -1
SWIDTH 801 0
DWIDTH 13 0
BBX 14 10 -1 0
BITMAP
2BBEBBBBBBBDDB
000C0000000650
000C0000000650
000C008CDBBD50
002C0000840650
07B30000480650
00000000480650
00000000850650
000005BB900650
00000000000320
ENDCHAR
STARTCHAR uni0917094D0923
ENCODING -1
SWIDTH 945 0
DWIDTH 15 0
BBX 17 10 -1 0
BITMAP
2BBEBBDCBBECBCEB30
000C0074009202A000
000C0074009202A000
000C0074009202A000
002C0074009202A000
07B3005700C002A000
00000009BB5002A000
00000000000002A000
00000000000002A000
000000000000015000
ENDCHAR
STARTCHAR uni0917094D0926
ENCODING -1
SWIDTH 748 0
DWIDTH 12 0
BBX 14 10 -1 0
BITMAP
2BBEBBBBBBCDB1
000C0000004800
000C001ABBC600
000C0094000000
002C00B0000000
07B300B0000500
00000094002B00
0000001ABB9B00
00000000000B00
00000000000500
ENDCHAR
STARTCHAR uni0917094D0927
ENCODING -1
SWIDTH 823 0
DWIDTH 13 0
BBX 15 10 -1 0
BITMAP
2BBEBBCEA07CEB40
000C00830001B000
000C00840001B000
000C002DC701B000
002C00750001B000
07B300920001B000
000000760006B000
00000019BBB7B000
000000000001B000
0000000000005000
ENDCHAR
STARTCHAR uni0917094D092C
ENCODING -1
SWIDTH 755 0
DWIDTH 12 0
BBX 14 10 -1 0
BITMAP
2BBEBBBBBBCEB3
000C0000002900
000C001AB72900
000C009A102900
002C00B1922900
07B300B0086900
0000009400A900
0000001ABB8900
00000000002900
00000000001400
ENDCHAR
STARTCHAR uni0917094D092D
ENCODING -1
SWIDTH 755 0
DWIDTH 12 0
BBX 14 10 -1 0
BITMAP
2BBEBBA008CEB3
000C0093002900
000C0084002900
000C0084002900
002C008DBBC900
07B30084002900
00000042002900
00000000002900
00000000002900
00000000001400
ENDCHAR
STARTCHAR uni0917094D092E
ENCODING -1
SWIDTH 754 0
DWIDTH 12 0
BBX 14 10 -1 0
BITMAP
2BBEBBDCBBCEB3
000C0084003900
000C0084003900
000C0084003900
002C008DBBC900
07B30084003900
00000052003900
00000000003900
00000000003900
00000000001400
ENDCHAR
STARTCHAR uni0917094D092F
ENCODING -1
SWIDTH 828 0
DWIDTH 13 0
BBX 15 10 -1 0
BITMAP
2BBEBBBCEBBBEB50
000C00006500C000
000C00007600C000
000C009BA100C000
002C00A10000C000
07B300A20000C000
000000680006C000
00000007BBB6C000
000000000000C000
0000000000005000
ENDCHAR
STARTCHAR uni0917094D0932
ENCODING -1
SWIDTH 924 0
DWIDTH 15 0
BBX 16 10 -1 0
BITMAP
2BBEBBBBBBBBBDDB
000C000000000750
000C002AB84BBA50
000C00A307B10B50
002C00B003900750
07B300C003900750
000000C000100750
000000B200000750
0000003BB4000750
0000000000000320
ENDCHAR
STARTCHAR uni0917094D0935
ENCODING -1
SWIDTH 747 0
DWIDTH 12 0
BBX 14 10 -1 0
BITMAP
2BBEBBBBBBCDB1
000C0000004800
000C001AB64800
000C0094004800
002C00B0004800
07B300B0004800
00000094008800
0000001ABB8800
00000000004800
00000000002300
ENDCHAR
STARTCHAR uni0917094D0938
ENCODING -1
SWIDTH 839 0
DWIDTH 13 0
BBX 15 10 -1 0
BITMAP
2BBEBBBBEBBBEB70
000C0000C000C000
000C0000C000C000
000C0001B000C000
002C03DDCBBBE000
07B300B20000C000
000000490000C000
0000000A3000C000
00000002B000C000
0000000051005000
ENDCHAR
STARTCHAR uni0918094D092E
ENCODING -1
SWIDTH 818 0
DWIDTH 13 0
BBX 15 10 -1 0
BITMAP
2BDDBBBDCBBCEB30
00B0000740029000
00B1000740029000
004EB40740029000
00920007DBBC9000
00B0000740029000
00B3000A30029000
003BBBB700029000
0000000000029000
0000000000014000
ENDCHAR
STARTCHAR uni0918094D092F
ENCODING -1
SWIDTH 867 0
DWIDTH 14 0
BBX 16 10 -1 0
BITMAP
2BDDBBBBDEBBDDB1
00B100000B006600
00B100000C106600
004EB41CB6006600
0092001B00006600
00B0000B00006600
00B3000B3001B600
003BBBB68BBA8600
0000000000006600
0000000000003300
ENDCHAR
STARTCHAR uni091A094D091A
ENCODING -1
SWIDTH 868 0
DWIDTH 14 0
BBX 16 10 -1 0
BITMAP
2BBBBBBBBBBBDDB1
0000000000006600
07BCC53BDCB06600
001B0003A0006600
0047000650006600
0047000650006600
001B1009A000A600
0005BBB57BBB9600
0000000000006600
0000000000003300
ENDCHAR
STARTCHAR uni091A094D091B
ENCODING -1
SWIDTH 922 0
DWIDTH 15 0
BBX 16 9 -1 1
BITMAP
2BBBBBBBECBBBECA
0000000390000920
0000000570000920
07BCCB13A002BE10
002A0000BD600570
00470003A0000390
003B000870000390
0006BBB990000570
000000009BBBBA10
ENDCHAR
STARTCHAR uni091A094D092E
ENCODING -1
SWIDTH 830 0
DWIDTH 13 0
BBX 15 10 -1 0
BITMAP
2BBBBBBDDBBBEB50
000000047000C000
07BCCB147000C000
001B00047000C000
00470004DBBBC000
004700057000C000
001B00095000C000
0005BBB80000C000
000000000000C000
0000000000005000
ENDCHAR
STARTCHAR uni091A094D092F
ENCODING -1
SWIDTH 904 0
DWIDTH 14 0
BBX 16 10 -1 0
BITMAP
2BBBBBBBBECBBEB7
0000000003900C00
07BCCB1004900C00
001B0006CB200C00
0047000740000C00
0047000750000C00
001B1008A0003E00
0005BBB55BBB8C00
0000000000000C00
0000000000000500
ENDCHAR
STARTCHAR uni091B094D092F
ENCODING -1
SWIDTH 1068 0
DWIDTH 17 0
BBX 19 10 -1 0
BITMAP
2BCEBBBBBBBBBBBCEB30
00A20000000000029000
00C0007CDBBBB3029000
00A30000B1002B029000
002EB10092002A029000
00A30000925CB3039000
00C00000923900089000
00A20000C006BBB79000
003BBBBC500000029000
00000000000000014000
ENDCHAR
STARTCHAR uni091B094D0935
ENCODING -1
SWIDTH 581 0
DWIDTH 9 0
BBX 11 12 -1 -2
BITMAP
2BCEBBBCEB50
00A20002A000
00C0007C9000
00930000C000
002EB1009200
00A20000A100
00B20001B000
003ECBBBA000
003A0002A000
005700029000
002B00085000
0006BBB80000
ENDCHAR
STARTCHAR uni091C094D0915
ENCODING -1
SWIDTH 1054 0
DWIDTH 17 0
BBX 19 10 -1 0
BITMAP
2BBBBBBBBBBDDBBBBB10
00000000000570000000
000000019B559BBA2000
009CDBBD4005A003B000
0000930B00057000C000
0000570B00057000C000
0000570940097003B000
00009402ABB873BA2000
05BB8000000570000000
00000000000230000000
ENDCHAR
STARTCHAR uni091C094D091C
ENCODING -1
SWIDTH 903 0
DWIDTH 14 0
BBX 16 10 -1 0
BITMAP
2BBBBBBBBBBBBEB7
0000000000000C00
0000000000000C00
009CDBB18CCBBE00
0000830001B00C00
0000570000920C00
0000570000920C00
0000950001C10C00
05BB800BBB500C00
0000000000000500
ENDCHAR
STARTCHAR uni091C094D091D
ENCODING -1
SWIDTH 990 0
DWIDTH 16 0
BBX 17 10 -1 0
BITMAP
2BBBBBBBBBBEBBDDB0
00000000000C006600
00000002BBBA006600
009CDBBD4000006600
000093084000006600
00005702ABCDBBD600
0000570A1008406600
0000940B4008406600
05BB800BCBBB106600
0000000A1000003300
ENDCHAR
STARTCHAR uni091C094D091F
ENCODING -1
SWIDTH 815 0
DWIDTH 13 0
BBX 15 9 -1 1
BITMAP
2BBBBBBBBBBDDB20
0000000000065000
000000008BBC4000
00ACDBBE70000000
0000A20920000000
0000650A20000000
0000650A20006300
0000A3086000A200
06BC8001BBBC7000
ENDCHAR
STARTCHAR uni091C094D0921
ENCODING -1
SWIDTH 797 0
DWIDTH 13 0
BBX 14 10 -1 0
BITMAP
2BBBBBBBBBBDCA
00000000000740
000000009BBC30
00ACDBBD300000
00009309300000
00006603BBBB30
000094020003A0
06BB900B1001B0
00000007844880
00000000577600
ENDCHAR
STARTCHAR uni091C094D0924
ENCODING -1
SWIDTH 830 0
DWIDTH 13 0
BBX 15 10 -1 0
BITMAP
2BBBBBBBBBBBEB50
000000000000C000
000000000000C000
00ACDBBB9BBBC000
0000A2086000C000
000065092000C000
000065092000C000
0000A3093000C000
059A6005B400C000
0000000047105000
ENDCHAR
STARTCHAR uni091C094D0926
ENCODING -1
SWIDTH 817 0
DWIDTH 13 0
BBX 15 10 -1 0
BITMAP
2BBBBBBBBBBCEB30
0000000000029000
000000007BBC8000
009CDBBC60000000
0000930920000000
0000570A20005000
000057086001C000
000094019BBCC000
05BB80000000B000
0000000000005000
ENDCHAR
STARTCHAR uni091C094D092C
ENCODING -1
SWIDTH 820 0
DWIDTH 13 0
BBX 15 10 -1 0
BITMAP
2BBBBBBBBBBCEB30
000000000002A000
000000019B72A000
009CDBBDB202A000
0000930B2922A000
0000570B1085A000
00005709500AA000
00009401ABB8A000
05BB80000002A000
0000000000015000
ENDCHAR
STARTCHAR uni091C094D092E
ENCODING -1
SWIDTH 813 0
DWIDTH 13 0
BBX 15 10 -1 0
BITMAP
2BBBBBBECBBCDB20
0000000830048000
0000000830048000
009CDBBD30048000
00009308CBBC8000
0000570830048000
0000570830048000
0000940000048000
05BB800000048000
0000000000014000
ENDCHAR
STARTCHAR uni091C094D092F
ENCODING -1
SWIDTH 893 0
DWIDTH 14 0
BBX 16 10 -1 0
BITMAP
2BBBBBBBCEBBBEB5
0000000005600C00
00ACDBB806700C00
0000A20ACA100C00
0000650920000C00
0000660930000C00
0000650580005C00
0000B3007BBB7C00
06BC700000000C00
0000000000000500
ENDCHAR
STARTCHAR uni091C094D0935
ENCODING -1
SWIDTH 813 0
DWIDTH 13 0
BBX 15 10 -1 0
BITMAP
2BBBBBBBBBBCDB20
0000000000038000
000000009B638000
009CDBBD50038000
0000930B10038000
0000570B10038000
0000570950078000
00009401ABB88000
05BB800000038000
0000000000014000
ENDCHAR
STARTCHAR uni091D094D092E
ENCODING -1
SWIDTH 936 0
DWIDTH 15 0
BBX 17 10 -1 0
BITMAP
2BBBBCEBBECBBCDB20
000002900930048000
005BBC700930048000
00C100000930048000
005BBCDBBECBBD8000
000000C00930048000
00B000A10510048000
00D100C00000048000
00CBBC700000048000
00B000000000023000
ENDCHAR
STARTCHAR uni091D094D092F
ENCODING -1
SWIDTH 1000 0
DWIDTH 16 0
BBX 18 10 -1 0
BITMAP
2BBBBCEBBBCEBBCDB2
000002900009203800
005BBC70000A303800
00C100000CB8003800
005BBCDBBC00003800
000000C00B00004800
00B000A10840009800
00D100C0019BBB7800
00CBBC700000003800
00B000000000001400
ENDCHAR
STARTCHAR uni091E094D091B
ENCODING -1
SWIDTH 913 0
DWIDTH 15 0
BBX 16 9 -1 1
BITMAP
2BBBBBBBFCBBBEB9
0000000660000C00
01BBA10750000B00
000068037004BD00
00002EBCEC500750
0000280680000570
0000660750000570
04BB900570000850
00000000ABBBB900
ENDCHAR
STARTCHAR uni091E094D091C
ENCODING -1
SWIDTH 932 0
DWIDTH 15 0
BBX 17 10 -1 0
BITMAP
2BBBBBBBBBBBBDDB10
000000000000057000
000000000000057000
00BBA1007CDBBD7000
000048000066057000
00001EB70029057000
000048000029057000
03BBA1000067057000
00000003BBA1057000
000000000000023000
ENDCHAR
STARTCHAR uni091E094D0936
ENCODING -1
SWIDTH 975 0
DWIDTH 16 0
BBX 17 10 -1 0
BITMAP
2BBBBB807CB8009C90
00000000C00B10A200
00BBB200900920A200
00005900000C10A200
00001EBCCBB600A200
00001A02B00000A200
00005700670000A200
03BB91000B2000A200
0000000002B000A200
000000000051005100
ENDCHAR
STARTCHAR uni091F094D091F
ENCODING -1
SWIDTH 494 0
DWIDTH 8 0
BBX 10 14 -1 -4
BITMAP
2BBBBBECB1
000000B100
002ABBC000
00B2000000
00B0000000
00B0000A00
00B2002A00
002ABBE200
000244C100
007B887000
00C0000000
00C0000700
00B2002B00
003BBBA200
ENDCHAR
STARTCHAR uni091F094D0920
ENCODING -1
SWIDTH 495 0
DWIDTH 8 0
BBX 10 14 -1 -4
BITMAP
2BBBBBECB1
000000B100
002ABBC000
00B2000000
00B0000000
00B0000A00
00B2002A00
002ABBE400
000144B100
006B88A600
00C0000C00
00C0000B00
00B2002B00
002BBBB300
ENDCHAR
STARTCHAR uni091F094D092F
ENCODING -1
SWIDTH 990 0
DWIDTH 16 0
BBX 18 10 -1 0
BITMAP
2BBBBBECBBBBBBDDB1
000000B10000005700
002ABBDBBBBA105700
00A300000005805700
00B000000005705700
00C0000507CA105700
00B0000B0740006700
00B2002B049000A700
003BBBB3008CBB8700
000000000000002300
ENDCHAR
STARTCHAR uni091F094D0935
ENCODING -1
SWIDTH 501 0
DWIDTH 8 0
BBX 10 12 -1 -2
BITMAP
2BBBBBECB2
0000009300
0000009300
002ABBC200
00B3000000
00C0000200
00C0000B10
00B3001C00
003ECBBB00
00A2000B00
00A3004900
002BBBA200
ENDCHAR
STARTCHAR uni0920094D092F
ENCODING -1
SWIDTH 998 0
DWIDTH 16 0
BBX 18 10 -1 0
BITMAP
2BBBBBDCBBBBBBCDB2
000000930000004800
002ABCD2ABBA204800
00A3003E4003904800
00B0000C0003904800
00C0000C06CA204800
00C0000C0650004800
00B2001B03A0009800
003BBBC3007CBB8800
000000000000002400
ENDCHAR
STARTCHAR uni0921094D0921
ENCODING -1
SWIDTH 493 0
DWIDTH 8 0
BBX 10 15 -1 -5
BITMAP
2BBBBBECB1
0000008300
003BBBC200
00B1000000
00B1000000
003BBBB300
0030003A00
00B1003A00
006EBBB200
00B2000000
00B2000000
003BBBB300
0030003A00
00B1003A00
004BBBB200
ENDCHAR
STARTCHAR uni0921094D0922
ENCODING -1
SWIDTH 493 0
DWIDTH 8 0
BBX 10 14 -1 -4
BITMAP
2BBBBBECB1
0000008300
003BBBC200
00B1000000
00B1000000
003BBBB300
0030003A00
00B1003900
004EAAC200
00A20B8900
00B0290B00
00B0150B00
00A2001B00
002BBBC400
ENDCHAR
STARTCHAR uni0921094D092F
ENCODING -1
SWIDTH 973 0
DWIDTH 16 0
BBX 17 10 -1 0
BITMAP
2BBBBBECBBBBBBEC80
00000092000000A100
003BBBDCBBB800A100
00B10000000930A100
00B10000000A20A100
003BBBA20BB700A100
002000580B2002E100
00B0003902ABB9B100
00964496000000A100
001677500000005000
ENDCHAR
STARTCHAR uni0921094D0935
ENCODING -1
SWIDTH 493 0
DWIDTH 8 0
BBX 10 12 -1 -2
BITMAP
2BBBBBECB1
0000008300
003BBBC200
00B1000000
00B1000000
003BBBB300
0030003A00
00B1003B00
004EBBAB00
0093001A00
0094004800
002ABBA100
ENDCHAR
STARTCHAR uni0922094D092F
ENCODING -1
SWIDTH 981 0
DWIDTH 16 0
BBX 17 10 -1 0
BITMAP
2BBBBBECBBBBBBDCA0
000000920000008300
002ABBDCBBB9008300
00A300000008508300
00B000000008408300
00B00AB70AB9008300
00B0280B0B10009300
00A2000B076001D300
003BBBC601ABBAA300
000000000000004100
ENDCHAR
STARTCHAR uni0923094D091F
ENCODING -1
SWIDTH 908 0
DWIDTH 15 0
BBX 16 9 -1 1
BITMAP
2BECBBEBBBBBBEB8
00A100B000000C00
00A100B004BBBA00
00A100B00C100000
00A100B029000000
008402B029000010
001ABB30290001B0
000000000C000490
0000000005CBBB20
ENDCHAR
STARTCHAR uni0923094D0920
ENCODING -1
SWIDTH 936 0
DWIDTH 15 0
BBX 17 9 -1 1
BITMAP
2BECBBEBBBBBBECB20
00A100B000000C1000
00A100B003BBCC1000
00A100B00C10058000
00A100B02A0000B000
008402B0290000C000
001ABB30290000B000
000000000C00049000
0000000005CBBB2000
ENDCHAR
STARTCHAR uni0923094D0921
ENCODING -1
SWIDTH 892 0
DWIDTH 14 0
BBX 16 10 -1 0
BITMAP
2BECBBEBBBBBBEB5
00A100B000000C00
00A100B007BBBA00
00A100B01B000000
00A100B01B000000
008402B007BBB800
001ABB3000000A30
0000000025000840
000000001C444C20
0000000003787300
ENDCHAR
STARTCHAR uni0923094D0922
ENCODING -1
SWIDTH 908 0
DWIDTH 15 0
BBX 16 9 -1 1
BITMAP
2BECBBEBBBBBBEB8
00A100B000000C00
00A100B004BBBC00
00A100B00C100000
00A100B02A000000
008402B02901BB40
001ABB302A0651B0
000000000C0001A0
0000000005CBBC30
ENDCHAR
STARTCHAR uni0923094D0923
ENCODING -1
SWIDTH 1127 0
DWIDTH 18 0
BBX 20 10 -1 0
BITMAP
2BECBBEBBECBBECBCEB2
00A100B008300B103900
00A100B008300B103900
00A100B008300B103900
00A100B008300B103900
008402B006601C003900
001ABB30019BB4003900
00000000000000003900
00000000000000003900
00000000000000001400
ENDCHAR
STARTCHAR uni0923094D092E
ENCODING -1
SWIDTH 932 0
DWIDTH 15 0
BBX 17 10 -1 0
BITMAP
2BECBBEBBECBBDDB10
00A100B00A20057000
00A100B00A20057000
00A100B00A20057000
00A100B00ACBBD7000
008402B00A20057000
001ABB300810057000
000000000000057000
000000000000057000
000000000000023000
ENDCHAR
STARTCHAR uni0923094D092F
ENCODING -1
SWIDTH 998 0
DWIDTH 16 0
BBX 18 10 -1 0
BITMAP
2BECBBEBBBCEBBCDB1
00A100B0000A104800
00A100B0000B204800
00A100B00CB7004800
00A100B00C00004800
008402B00B00004800
001ABB300A4000A800
00000000019BBB8800
000000000000004800
000000000000002300
ENDCHAR
STARTCHAR uni0923094D0935
ENCODING -1
SWIDTH 923 0
DWIDTH 15 0
BBX 16 10 -1 0
BITMAP
2BECBBEBBBBBBDDA
00A100B000000740
00A100B003BB3740
00A100B00B200740
00A100B00C000740
008402B00C000740
001ABB300C200B40
0000000003BBB940
0000000000000740
0000000000000320
ENDCHAR
STARTCHAR uni0924094D0915
ENCODING -1
SWIDTH 992 0
DWIDTH 16 0
BBX 18 10 -1 0
BITMAP
2BBBBBBBBBDDBBBBB1
000000000047000000
00000019B549BBA200
003BBBD4004B003B00
00B200B00047000C00
00C000B00057000C00
00C000940087003B00
00C0002ABB873BA200
00A730000047000000
000550000023000000
ENDCHAR
STARTCHAR uni0924094D0916
ENCODING -1
SWIDTH 1014 0
DWIDTH 16 0
BBX 18 10 -1 0
BITMAP
2BBBBBBBBECBBBBEB4
000000000930000B00
003BBB800932A90B00
00B200820B2A300B00
00C0006DB70C000B00
00C0001C100A304B00
00C00004A002BB7B00
00C000009500000B00
009830001C10000B00
000550000330000500
ENDCHAR
STARTCHAR uni0924094D0924
ENCODING -1
SWIDTH 542 0
DWIDTH 9 0
BBX 10 10 -1 0
BITMAP
2BBBBBBEC9
0000000830
0000000830
05BDCBBE30
001B000830
0039000830
0038000830
0039000830
000C520830
0001640410
ENDCHAR
STARTCHAR uni0924094D0925
ENCODING -1
SWIDTH 869 0
DWIDTH 14 0
BBX 16 10 -1 0
BITMAP
2BBBB60ABC405DB1
0000002902A05700
0000000004905700
003BBBCCBA205700
00B2009200005700
00C0009300006700
00C000590001B700
00C00007BBBB8700
0097300000005700
0005500000002300
ENDCHAR
STARTCHAR uni0924094D092A
ENCODING -1
SWIDTH 757 0
DWIDTH 12 0
BBX 14 10 -1 0
BITMAP
2BBBBBECBBCEB3
000000A2002A00
000000A2002A00
003BBBE2002A00
00C100A2002A00
00C00076006A00
00C00019BB8A00
00C00000002A00
00A73000002A00
00065000001500
ENDCHAR
STARTCHAR uni0924094D092B
ENCODING -1
SWIDTH 992 0
DWIDTH 16 0
BBX 18 10 -1 0
BITMAP
2BBBBBECBBDDBBBBB1
000000A20057000000
000000A20059BBA200
003BBBE2005B003B00
00C100A20057000C00
00C000760097000C00
00C00019BB87003B00
00C0000000574BA200
00A730000057000000
000650000023000000
ENDCHAR
STARTCHAR uni0924094D092E
ENCODING -1
SWIDTH 764 0
DWIDTH 12 0
BBX 14 10 -1 0
BITMAP
2BBBBBDDBBBEB4
00000056000B00
00000056000B00
003BBBD6000B00
00B2005DBBCB00
00C00056000B00
00C00044000B00
00C00000000B00
00973000000B00
00056000000500
ENDCHAR
STARTCHAR uni0924094D092F
ENCODING -1
SWIDTH 830 0
DWIDTH 13 0
BBX 15 10 -1 0
BITMAP
2BBBBBBCEBBBEB50
000000005600C000
000000006700C000
003BBBDBA100C000
00B200A20000C000
00C000920000C000
00C000580005C000
00C00007BBB6C000
009730000000C000
0005500000005000
ENDCHAR
STARTCHAR uni0924094D0932
ENCODING -1
SWIDTH 957 0
DWIDTH 15 0
BBX 17 10 -1 0
BITMAP
2BBBBBBBBBBBBBEB50
00000000000000C000
003BBB66BB39B9C000
00B2009A01C603D000
00C0006600A200C000
00C0006600A200C000
00C00056002000C000
00C00039000000C000
00983008CA0000C000
000550000000005000
ENDCHAR
STARTCHAR uni0924094D0935
ENCODING -1
SWIDTH 751 0
DWIDTH 12 0
BBX 14 10 -1 0
BITMAP
2BBBBBBBBBCDB2
00000000003800
00000009B63800
003BBBD5003800
00B200B1003800
00C000B1003800
00C00095007800
00C0001ABB8800
00A73000003800
00055000001400
ENDCHAR
STARTCHAR uni0924094D0938
ENCODING -1
SWIDTH 876 0
DWIDTH 14 0
BBX 16 10 -1 0
BITMAP
2BBBBBBBCEBBCEB2
0000000039003800
003BBB5039003800
00B200B066003800
00C000ACDBBBC800
00C0003A00003800
00C0000A30003800
00C00002B0003800
0098300085003800
0005500015001400
ENDCHAR
STARTCHAR uni0925094D092F
ENCODING -1
SWIDTH 931 0
DWIDTH 15 0
BBX 15 10 1 0
BITMAP
3BBA05BDEBBDDB10
83084000B0056000
31093000C1056000
CBB801CB60056000
B00001B000056000
C00000B000066000
A40004E3001B6000
1ABBB82ABBA86000
0000000000056000
0000000000023000
ENDCHAR
STARTCHAR uni0925094D0935
ENCODING -1
SWIDTH 862 0
DWIDTH 14 0
BBX 13 10 1 0
BITMAP
2BBA05BBBBDDB0
83084000007500
5109302AB47500
CBB800B2007500
B00000C0007500
C00000C0007500
A40003E200A500
1ABBB83ABB9500
00000000007500
00000000003200
ENDCHAR
STARTCHAR uni0926094D0917
ENCODING -1
SWIDTH 489 0
DWIDTH 8 0
BBX 9 11 -1 -1
BITMAP
2BBBBBDDB0
0000006600
002ABBC500
00B3000000
00C0001400
00C0002900
00B3006900
002BDB9900
0002902900
0006801400
00BA100000
ENDCHAR
STARTCHAR uni0926094D0918
ENCODING -1
SWIDTH 686 0
DWIDTH 11 0
BBX 13 10 -1 0
BITMAP
2BBBBBBBBCDB20
00000000038000
000001ABBC6000
007BBE50000000
02A00B00000000
02A00B00005000
00AD795002C000
02A001CCB9B000
02A000B000B000
007BBB50005000
ENDCHAR
STARTCHAR uni0926094D0926
ENCODING -1
SWIDTH 506 0
DWIDTH 8 0
BBX 10 10 -1 0
BITMAP
2BBBBBCEB3
0000003800
003BBBC700
00A2000000
00A2000000
003EBA0000
00A2000B00
00B1001D00
004CBBBD00
0000000B00
ENDCHAR
STARTCHAR uni0926094D0927
ENCODING -1
SWIDTH 686 0
DWIDTH 11 0
BBX 13 10 -1 0
BITMAP
2BBBBBBBBCDB20
00000000038000
000001ABBC6000
007B2950000000
02A00B00000000
02A00B00005000
00AD795002C000
02A001CCB9B000
02A000B000B000
007BBB50005000
ENDCHAR
STARTCHAR uni0926094D092C
ENCODING -1
SWIDTH 481 0
DWIDTH 8 0
BBX 9 12 -1 -2
BITMAP
2BBBBBDDA0
0000006600
002ABBC500
00A4000000
00B0000000
00C0000100
00B0002900
00A3005900
003FCB9900
00A5921900
00A2089700
003BBB9100
ENDCHAR
STARTCHAR uni0926094D092D
ENCODING -1
SWIDTH 499 0
DWIDTH 8 0
BBX 10 13 -1 -3
BITMAP
2BBBBBCDB2
0000004700
001ABBC600
0095000000
00B0000000
00B0004700
0095008700
001ABBA700
03B4004700
001B004700
000DBBC700
000B004700
0001003500
ENDCHAR
STARTCHAR uni0926094D092E
ENCODING -1
SWIDTH 706 0
DWIDTH 11 0
BBX 13 10 -1 0
BITMAP
2BBBBBEBBBEB50
004BBBC000C000
00D2000000C000
02A0000000C000
01A000A100C000
005101D100C000
000001BCBCC000
000000A100C000
000000A100C000
00000000005000
ENDCHAR
STARTCHAR uni0926094D092F
ENCODING -1
SWIDTH 583 0
DWIDTH 9 0
BBX 11 10 -1 0
BITMAP
2BBBBEBBEB60
003BBA00C000
00B20000C000
00A20000C000
003EB300C000
00920000C000
00B00000C000
00A20001D000
003BBBBAC000
000000005000
ENDCHAR
STARTCHAR uni0926094D0935
ENCODING -1
SWIDTH 483 0
DWIDTH 8 0
BBX 9 12 -1 -2
BITMAP
2BBBBBDDA0
0000006600
002ABBC500
00A4000000
00B0000000
00C0000100
00B0002900
00A3005900
002FCB9900
0093002900
00A3005700
002BBB9100
ENDCHAR
STARTCHAR uni0927094D092E
ENCODING -1
SWIDTH 817 0
DWIDTH 13 0
BBX 15 10 -1 0
BITMAP
2BDD904DDBBCEB30
00B100075002A000
00B100075002A000
003EB4075002A000
00A20007DBBCA000
00C000075002A000
00B3000A3002A000
002BBBB80002A000
000000000002A000
0000000000015000
ENDCHAR
STARTCHAR uni0927094D092F
ENCODING -1
SWIDTH 886 0
DWIDTH 14 0
BBX 16 10 -1 0
BITMAP
2BDD904BCEBBCEB4
00B1000007401B00
00B1000008501B00
004EB40AB9001B00
0092000C00001B00
00B0000B10001B00
00B3000970007B00
003BBBB77BBB6B00
0000000000001B00
0000000000000500
ENDCHAR
STARTCHAR uni0927094D0935
ENCODING -1
SWIDTH 810 0
DWIDTH 13 0
BBX 15 10 -1 0
BITMAP
2BDD904BBBBCDB10
00B1000000047000
00B10001AB647000
003EB40940047000
00A2000B00047000
00C0000B00047000
00B3000A40087000
002BBBB69BB87000
0000000000047000
0000000000023000
ENDCHAR
STARTCHAR uni0928094D0915
ENCODING -1
SWIDTH 973 0
DWIDTH 16 0
BBX 17 10 -1 0
BITMAP
2BBBBBBBBBECBBBB80
000000000092000000
0000006CB298BB9000
01BBBBD10096007600
057001B00092003900
047001B00092003900
001000C101D2007600
0000003BBAB27B9000
000000000092000000
000000000041000000
ENDCHAR
STARTCHAR uni0928094D091A
ENCODING -1
SWIDTH 820 0
DWIDTH 13 0
BBX 15 10 -1 0
BITMAP
2BBBBBBBBBBCEB30
000000000002A000
000001BCDB22A000
0000000B1002A000
01ACBB390002A000
058000390002A000
0470001C1006A000
00100004BBB7A000
000000000002A000
0000000000015000
ENDCHAR
STARTCHAR uni0928094D091B
ENCODING -1
SWIDTH 781 0
DWIDTH 13 0
BBX 14 9 -1 1
BITMAP
2BBBBCECBBBEB8
00000750000C00
00000830000C00
0000076005BC00
01ACBCEC400940
04900460000650
01600830000650
00000750000930
000001BBBBC800
ENDCHAR
STARTCHAR uni0928094D091F
ENCODING -1
SWIDTH 715 0
DWIDTH 11 0
BBX 13 9 -1 1
BITMAP
2BBBBBBBBBEB70
0000000000B000
0000005BBB9000
01ABBCC1000000
05700480000000
04700480000400
01200380002900
000001B0006700
0000006CBBA100
ENDCHAR
STARTCHAR uni0928094D0921
ENCODING -1
SWIDTH 705 0
DWIDTH 11 0
BBX 13 10 -1 0
BITMAP
2BBBBBBBBBEB50
0000000000B000
0000008CBBA000
01ABBCB0000000
057001B0000000
0460006BBB8000
01300000009300
00000270008400
000001C444C200
00000027873000
ENDCHAR
STARTCHAR uni0928094D0924
ENCODING -1
SWIDTH 717 0
DWIDTH 11 0
BBX 13 10 -1 0
BITMAP
2BBBBBBBBBEB70
0000000000C000
0000000000C000
01BBBCDCBBE000
0570069000C000
0470065000C000
0010065000C000
0000056000C000
000001C510C000
00000027205000
ENDCHAR
STARTCHAR uni0928094D0925
ENCODING -1
SWIDTH 804 0
DWIDTH 13 0
BBX 15 10 -1 0
BITMAP
2BBB60ABC305DB10
0000038029066000
0000001049066000
01ABBDCBA2066000
06700A2000066000
0560093000066000
01300590001B6000
0000007BBBA86000
0000000000066000
0000000000033000
ENDCHAR
STARTCHAR uni0928094D0926
ENCODING -1
SWIDTH 724 0
DWIDTH 12 0
BBX 13 10 -1 0
BITMAP
2BBBBBBBBBEC90
00000000009200
0000006CBBC100
01ABBCD1000000
05700290000000
04700290002300
002000C1008600
0000004BBBA600
00000000005600
00000000002300
ENDCHAR
STARTCHAR uni0928094D0927
ENCODING -1
SWIDTH 753 0
DWIDTH 12 0
BBX 14 10 -1 0
BITMAP
2BBBBCE909CEB3
00000A20003900
00000920003900
01BBBDEB503900
05700930003900
03700B10003900
00000940007900
000002ABBB8900
00000000003900
00000000001400
ENDCHAR
STARTCHAR uni0928094D092A
ENCODING -1
SWIDTH 742 0
DWIDTH 12 0
BBX 14 10 -1 0
BITMAP
2BBBBBEBBBDDB1
000000C0005600
000000C0005600
000000C0005600
00ACBBD0006600
049000B300A600
0180002ABB9600
00000000005600
00000000005600
00000000002300
ENDCHAR
STARTCHAR uni0928094D092B
ENCODING -1
SWIDTH 970 0
DWIDTH 16 0
BBX 17 10 -1 0
BITMAP
2BBBBBEBBBECBBBB80
000000C000A1000000
000000C000A8BB8000
01ABBBC000A6008600
057000B000A1004800
056000A201D1004800
0250002ABAB1008600
0000000000A18B8000
0000000000A1000000
000000000050000000
ENDCHAR
STARTCHAR uni0928094D092D
ENCODING -1
SWIDTH 739 0
DWIDTH 12 0
BBX 13 10 -1 0
BITMAP
2BBBBC700BDDB0
000000C0006500
000000B0006500
000000B0006500
01ACBBECBBD500
049000B0006500
01700080006500
00000000006500
00000000006500
00000000003200
ENDCHAR
STARTCHAR uni0928094D092E
ENCODING -1
SWIDTH 735 0
DWIDTH 12 0
BBX 13 10 -1 0
BITMAP
2BBBBBEBBBDDA0
000000C0007400
000000C0007400
000000C0007400
01ACBBEBBBD400
049000C0007400
01700080007400
00000000007400
00000000007400
00000000003200
ENDCHAR
STARTCHAR uni0928094D092F
ENCODING -1
SWIDTH 801 0
DWIDTH 13 0
BBX 14 10 -1 0
BITMAP
2BBBBBBDDBBDDB
00000000B00650
00000000C00650
01BBBCCB600650
057002A0000650
047001A0000750
000000C2001C50
0000002ABBA850
00000000000650
00000000000320
ENDCHAR
STARTCHAR uni0928094D0935
ENCODING -1
SWIDTH 732 0
DWIDTH 12 0
BBX 13 10 -1 0
BITMAP
2BBBBBBBBBDCA0
00000000008400
0000006CB38400
01BBBBE2008400
057000C0008400
047000C0008400
001000B100B400
0000003BBAA400
00000000008400
00000000004100
ENDCHAR
STARTCHAR uni0928094D0938
ENCODING -1
SWIDTH 867 0
DWIDTH 14 0
BBX 16 10 -1 0
BITMAP
2BBBBBBBDDBBDDB1
0000000056006600
0000000056006600
01BBBB5084006600
057000CCDBBBD600
0370005700006600
0000000B20006600
00000003A0006600
00000000A3006600
0000000024003300
ENDCHAR
STARTCHAR uni0928094D0939
ENCODING -1
SWIDTH 714 0
DWIDTH 11 0
BBX 13 11 -1 -1
BITMAP
2BBBBBBBBBEB70
0000000000C000
0000004BBBC000
000000B1000000
00ABBBC0000000
039000B1000000
0380005EBB8000
003000C100A300
000001B0004200
000000C1000000
0000004BBBB000
ENDCHAR
STARTCHAR uni092A094D091F
ENCODING -1
SWIDTH 489 0
DWIDTH 8 0
BBX 9 10 -1 0
BITMAP
2BEBBBCEB0
00B0002A00
00B0002A00
0094002A00
003ECBC600
00B2000000
00C0000500
00C0000B00
0088448900
0005775000
ENDCHAR
STARTCHAR uni092A094D0920
ENCODING -1
SWIDTH 506 0
DWIDTH 8 0
BBX 10 10 -1 0
BITMAP
2BECBBBEB3
00B0000C00
00B0000C00
0094003A00
002ECBE400
00A2002C00
00B0000C00
00C0000C00
0088447900
0005775000
ENDCHAR
STARTCHAR uni092A094D0924
ENCODING -1
SWIDTH 495 0
DWIDTH 8 0
BBX 10 10 -1 0
BITMAP
2BEBBBDDB1
00C0005700
00C0005700
00A3005700
004ECBD700
00C2005700
00C0005700
00C0005700
00A7305700
0006502300
ENDCHAR
STARTCHAR uni092A094D092A
ENCODING -1
SWIDTH 770 0
DWIDTH 12 0
BBX 14 10 -1 0
BITMAP
2BECBBDDBBBEB6
00A10065000C00
00A10065000C00
00A10065000C00
00A10065000C00
00850089003D00
0019BB76BB8C00
00000000000C00
00000000000C00
00000000000500
ENDCHAR
STARTCHAR uni092A094D092B
ENCODING -1
SWIDTH 1003 0
DWIDTH 16 0
BBX 18 10 -1 0
BITMAP
2BECBBDDBBCEBBBBB2
00A100740029000000
00A10074002BABB400
00A10074002D101C00
00A100750029000B10
008500890079000B10
0019BB76BB79001C00
0000000000292BB400
000000000029000000
000000000014000000
ENDCHAR
STARTCHAR uni092A094D092E
ENCODING -1
SWIDTH 774 0
DWIDTH 12 0
BBX 14 10 -1 0
BITMAP
2BECBBCEBBBEB6
00A10039000C00
00A10039000C00
00A10039000C00
0095004EBBBD00
001ABB99000C00
00000014000C00
00000000000C00
00000000000C00
00000000000500
ENDCHAR
STARTCHAR uni092A094D092F
ENCODING -1
SWIDTH 855 0
DWIDTH 14 0
BBX 15 10 -1 0
BITMAP
2BECBBBBDDBBECA0
00A100000B008300
00A100001C008300
00A1003CB4008300
00A1004800008300
0085008800009300
0019BB8C1002D300
00000004BBBAA300
0000000000008300
0000000000004100
ENDCHAR
STARTCHAR uni092A094D0932
ENCODING -1
SWIDTH 960 0
DWIDTH 15 0
BBX 17 10 -1 0
BITMAP
2BECBBBBBBBBBBEB60
00A10000000000C000
00A10006BB38B9C000
00A1002B01C702D000
00A10047009300C000
00850087009200C000
0019BCB7004100C000
0000003A000000C000
00000008CA0000C000
000000000000005000
ENDCHAR
STARTCHAR uni092A094D0935
ENCODING -1
SWIDTH 780 0
DWIDTH 12 0
BBX 14 10 -1 0
BITMAP
2BECBBBBBBBEB7
00A10000000C00
00A10005BB0C00
00A1001B000C00
00A10048000C00
00850078000C00
0019BB9B002E00
00000006BB9C00
00000000000C00
00000000000500
ENDCHAR
STARTCHAR uni092A094D0938
ENCODING -1
SWIDTH 880 0
DWIDTH 14 0
BBX 16 10 -1 0
BITMAP
2BECBBBBCEBBCEB3
00A1000029003900
00A1000029003900
00A1000057003900
00A1007CDBBBC900
008500AB00003900
0019BB7B40003900
00000002C0003900
0000000086003900
0000000006001400
ENDCHAR
STARTCHAR uni092B094D091C
ENCODING -1
SWIDTH 1100 0
DWIDTH 18 0
BBX 19 10 -1 0
BITMAP
2BECBBDDBBBBBBBBEC90
00A1006600000000A200
00A10069BB44CCBBE200
00A1006A00000A10A200
00A1006600000740A200
008500A600000740A200
0019BB9600000740A200
0000006600000B20A200
00000066009BB600A200
00000033000000005100
ENDCHAR
STARTCHAR uni092B094D091F
ENCODING -1
SWIDTH 1006 0
DWIDTH 16 0
BBX 18 10 -1 0
BITMAP
2BECBBDDBBBBBBDDB3
00A100660000006600
00A10069BBA5BBC500
00A1006A0058000000
00A100660093000000
008500A60093000000
0019BBA60093000640
000000660066000A30
00000066000ABBC800
000000330000000000
ENDCHAR
STARTCHAR uni092B094D0924
ENCODING -1
SWIDTH 1034 0
DWIDTH 17 0
BBX 18 10 -1 0
BITMAP
2BECBBDDBBBBBBBEC8
00A100660000000B10
00A10069BBA1000B10
00A1006A005CCBBE10
00A10066003A000B10
008500A60057000B10
0019BB960057000B10
000000660057000B10
00000066001C510B10
000000330002730500
ENDCHAR
STARTCHAR uni092B094D092A
ENCODING -1
SWIDTH 1021 0
DWIDTH 16 0
BBX 18 10 -1 0
BITMAP
2BECBBDDBBDDBBBEB6
00A100660065000C00
00A10069BBD5000C00
00A1006A0065000C00
00A100660065000C00
008500A60039003D00
0019BB960006BB9C00
000000660000000C00
000000660000000C00
000000330000000500
ENDCHAR
STARTCHAR uni092B094D092B
ENCODING -1
SWIDTH 1256 0
DWIDTH 20 0
BBX 22 10 -1 0
BITMAP
2BECBBDDBBDDBBCEBBBBB3
00A100660065001A000000
00A10069BBD5001BABB400
00A1006A0065001D101C00
00A100660066002A000A20
008500A60039006A000A20
0019BB960006BB7A001C00
000000660000001A1BB400
000000660000001A000000
0000003300000005000000
ENDCHAR
STARTCHAR uni092B094D092F
ENCODING -1
SWIDTH 1120 0
DWIDTH 18 0
BBX 19 10 -1 0
BITMAP
2BECBBDDBBBBECBBEB70
00A1006600002800C000
00A1006600003900C000
00A10069BBCCB200C000
00A1006A00740000C000
008500A600750000C000
0019BB96003A0003F000
000000660005BBB9C000
0000006600000000C000
00000033000000005000
ENDCHAR
STARTCHAR uni092B094D0932
ENCODING -1
SWIDTH 1202 0
DWIDTH 19 0
BBX 21 10 -1 0
BITMAP
2BECBBDDBBBBBBBBBBEB40
00A100660000000000C000
00A10069BBA5BB39B8C000
00A1006A004901D504C000
00A10066007500B100C000
008500A6007500B000C000
0019BB960075006000C000
000000660058000000C000
000000660009B90000C000
0000003300000000005000
ENDCHAR
STARTCHAR uni092B094D0936
ENCODING -1
SWIDTH 1211 0
DWIDTH 19 0
BBX 21 10 -1 0
BITMAP
2BECBBDDBBA0ABC600CB60
00A100660003900C00C000
00A10069BB72400C00C000
00A1006A00A3001B00C000
00A10066006DBBB300C000
008500A6001C100000C000
0019BB960005900000C000
000000660000A30000C000
0000006600001B0000C000
0000003300000420005000
ENDCHAR
STARTCHAR uni092C094D091C
ENCODING -1
SWIDTH 883 0
DWIDTH 14 0
BBX 16 10 -1 0
BITMAP
2BBBBBBBBBBBCEB3
0000000000002A00
002BB40000002A00
00B80005BDCBCA00
00C9400003902A00
00C0A20000B02A00
00B01A1000B02A00
00B202A003A02A00
002ABBCCBB202A00
0000000000001500
ENDCHAR
STARTCHAR uni092C094D091D
ENCODING -1
SWIDTH 962 0
DWIDTH 15 0
BBX 17 11 -1 -1
BITMAP
2BBBBBBBBBDDBBEB60
002BB408BBC500C000
00B7003A000000C000
00C84047000000C000
00B09249000000C000
00B0086CBBCCBBE000
00B200C4001B00C000
002ABB80000C00C000
0000000C546A00C000
0000000C6761005000
0000000B0000000000
ENDCHAR
STARTCHAR uni092C094D0924
ENCODING -1
SWIDTH 786 0
DWIDTH 13 0
BBX 14 10 -1 0
BITMAP
2BBBBBBBBBBEC8
00000000000A20
003BB400000A20
00C90007BBBE20
00B2913B000A20
00B01967000A20
00C201D7000A20
003BBB98000A20
0000000B510A20
00000001630510
ENDCHAR
STARTCHAR uni092C094D0926
ENCODING -1
SWIDTH 775 0
DWIDTH 12 0
BBX 14 10 -1 0
BITMAP
2BBBBBBBBBBEB7
00000000000C00
003AB406BBBC00
00B9102B000000
00B19147000000
00B01967000410
00C201CB000A40
003BBB65BBBB40
00000000000840
00000000000310
ENDCHAR
STARTCHAR uni092C094D0927
ENCODING -1
SWIDTH 844 0
DWIDTH 14 0
BBX 15 10 -1 0
BITMAP
2BBBBBBEC24BEB70
000000380000B000
003AB4390000B000
00A6100ADA00B000
00B0722A0000B000
00B008770000B000
00C200DA0002E000
003BBB67BBB9C000
000000000000B000
0000000000005000
ENDCHAR
STARTCHAR uni092C094D092C
ENCODING -1
SWIDTH 783 0
DWIDTH 13 0
BBX 14 10 -1 0
BITMAP
2BBBBBBBBBBEC8
00000000000B10
003BB406BB1B10
00C8002D500B10
00B38147660B10
00B02967048B10
00C201DA004F10
003BBB66BBAB10
00000000000B10
00000000000500
ENDCHAR
STARTCHAR uni092C094D092D
ENCODING -1
SWIDTH 764 0
DWIDTH 12 0
BBX 14 10 -1 0
BITMAP
2BBBBBB107BEB4
00000076000B00
003BB456000B00
00C80056000B00
00B2805DBBBB00
00B02966000B00
00C201D4000B00
003BBB80000B00
00000000000B00
00000000000500
ENDCHAR
STARTCHAR uni092C094D092F
ENCODING -1
SWIDTH 852 0
DWIDTH 14 0
BBX 15 10 -1 0
BITMAP
2BBBBBBBDDBBEC90
000000001A009200
003AB4001B009200
00B7004CB4009200
00B1814700009200
00B019580000A200
00C201CC1002D200
003BBB74BBB9A200
0000000000009200
0000000000004100
ENDCHAR
STARTCHAR uni092C094D0932
ENCODING -1
SWIDTH 961 0
DWIDTH 15 0
BBX 17 10 -1 0
BITMAP
2BBBBBBBBBBBBBEB60
00000000000000C000
00350006BB48B9C000
00A8302B01B602D000
00B09347009300C000
00B00987008200C000
00C200D7000000C000
003BBB6A000000C000
00000006CA0000C000
000000000000005000
ENDCHAR
STARTCHAR uni092C094D0935
ENCODING -1
SWIDTH 776 0
DWIDTH 12 0
BBX 14 10 -1 0
BITMAP
2BBBBBBBBBBEB7
00000000000C00
003BB406BB0C00
00C8002B000C00
00B38047000C00
00B02957000C00
00B201CB002E00
003BBB66BB9C00
00000000000C00
00000000000500
ENDCHAR
STARTCHAR uni092C094D0936
ENCODING -1
SWIDTH 926 0
DWIDTH 15 0
BBX 16 10 -1 0
BITMAP
2BBBBA04CBA106DB
0000000B10750650
003BB40A00650650
00B8000000940650
00B1913DBB800650
00B0197E20000650
00C200D5A0000650
003BBB6085000650
000000001C100650
0000000003300320
ENDCHAR
STARTCHAR uni092C094D0938
ENCODING -1
SWIDTH 897 0
DWIDTH 14 0
BBX 16 10 -1 0
BITMAP
2BBBBBBBBEBBBEB6
000000000C000C00
003BB4000C000C00
00B800001B000C00
00B2814DDCBBBD00
00B0196E10000C00
00C200D690000C00
003BBB60A2000C00
000000003B000C00
0000000005100500
ENDCHAR
STARTCHAR uni092D094D092F
ENCODING -1
SWIDTH 827 0
DWIDTH 13 0
BBX 15 10 -1 0
BITMAP
2C700BBCEBBBEB50
00C000006500C000
00B100007600C000
00B1009BA100C000
00BCBBE10000C000
00B100A20000C000
007000680006C000
00000008BBB6C000
000000000000C000
0000000000005000
ENDCHAR
STARTCHAR uni092D094D0932
ENCODING -1
SWIDTH 941 0
DWIDTH 15 0
BBX 17 10 -1 0
BITMAP
2C700BBBBBBBBCEB20
00C000000000039000
00B10009BA2AB99000
00B1006603E2079000
00BCBBE200C0039000
00B100A200B0039000
008000A20030039000
000000850000039000
0000001BB700039000
000000000000014000
ENDCHAR
STARTCHAR uni092D094D0935
ENCODING -1
SWIDTH 755 0
DWIDTH 12 0
BBX 14 10 -1 0
BITMAP
2C700BBBBBCEB3
00C00000002900
00B10019B72900
00B10086002900
00BCBBE2002900
00B100A2002900
00600086006900
00000019BB8900
00000000002900
00000000001400
ENDCHAR
STARTCHAR uni092E094D0924
ENCODING -1
SWIDTH 765 0
DWIDTH 12 0
BBX 14 10 -1 0
BITMAP
2BECBBBBBBBEB5
00B00000000C00
00B00000000C00
00B0002ABBCC00
00BCBBD6000C00
00B000A2000C00
007000A2000C00
00000092000C00
0000005A400C00
00000004700500
ENDCHAR
STARTCHAR uni092E094D0926
ENCODING -1
SWIDTH 766 0
DWIDTH 12 0
BBX 14 10 -1 0
BITMAP
2BECBBBBBBBEB5
00B00000000C00
00B00008BBBA00
00B00059000000
00BCBBD4000000
00B00074000500
00600058000C10
00000008BBAC10
00000000000A10
00000000000500
ENDCHAR
STARTCHAR uni092E094D092A
ENCODING -1
SWIDTH 762 0
DWIDTH 12 0
BBX 14 10 -1 0
BITMAP
2BECBBDCBBCEB4
00B00083000B00
00B00083000B00
00B00083000B00
00BCBBD3001B00
00B00057005B00
00900008BB7B00
00000000000B00
00000000000B00
00000000000500
ENDCHAR
STARTCHAR uni092E094D092C
ENCODING -1
SWIDTH 768 0
DWIDTH 12 0
BBX 14 10 -1 0
BITMAP
2BECBBBBBBBEB5
00B00000000C00
00B00009B90C00
00B0007B300C00
00BCBBD3740C00
00B00083066C00
00500067007C00
00000009BB8C00
00000000000C00
00000000000500
ENDCHAR
STARTCHAR uni092E094D092D
ENCODING -1
SWIDTH 768 0
DWIDTH 12 0
BBX 14 10 -1 0
BITMAP
2BECBBB106BEB5
00B00057000C00
00B00047000C00
00B00047000C00
00BCBBCDBBBC00
00B00047000C00
00800035000C00
00000000000C00
00000000000C00
00000000000500
ENDCHAR
STARTCHAR uni092E094D092E
ENCODING -1
SWIDTH 759 0
DWIDTH 12 0
BBX 14 10 -1 0
BITMAP
2BECBBDDBBCEB4
00B00075001A00
00B00075001A00
00B00075001A00
00BCBBDDBBCA00
00B00075001A00
00800054001A00
00000000001A00
00000000001A00
00000000000500
ENDCHAR
STARTCHAR uni092E094D092F
ENCODING -1
SWIDTH 834 0
DWIDTH 13 0
BBX 15 10 -1 0
BITMAP
2BECBBBCECBBEB60
00B000004700C000
00B000005700C000
00B0008CA100C000
00BCBBE30000C000
00B000830000C000
008000590005D000
00000007BBB7C000
000000000000C000
0000000000005000
ENDCHAR
STARTCHAR uni092E094D0932
ENCODING -1
SWIDTH 945 0
DWIDTH 15 0
BBX 17 10 -1 0
BITMAP
2BECBBBBBBBBBCEB30
00B00000000002A000
00B00008BA2AB8A000
00B0005702E306A000
00BCBBD300C002A000
00B0008300B002A000
00800083003002A000
00000066000002A000
0000001AB80002A000
000000000000015000
ENDCHAR
STARTCHAR uni092E094D0935
ENCODING -1
SWIDTH 761 0
DWIDTH 12 0
BBX 14 10 -1 0
BITMAP
2BECBBBBBBCEB4
00B00000001B00
00B00009B81B00
00B00067001B00
00BCBBD3001B00
00B00083001B00
00600067005B00
00000009BB7B00
00000000001B00
00000000000500
ENDCHAR
STARTCHAR uni092E094D0936
ENCODING -1
SWIDTH 884 0
DWIDTH 14 0
BBX 16 10 -1 0
BITMAP
2BECB32BBC301EB4
00B0007503A01A00
00B0004201A01A00
00B0000004901A00
00BCBBDBBA201A00
00B0008500001A00
00A0000B10001A00
00000004A0001A00
0000000094001A00
0000000015000500
ENDCHAR
STARTCHAR uni092E094D0938
ENCODING -1
SWIDTH 816 0
DWIDTH 13 0
BBX 15 10 -1 0
BITMAP
2BECBBBCEBBCEB30
00B0000390039000
00B0000390039000
00B0000570039000
00BCBCCDBBBC9000
00B003A000039000
0090009400039000
0000001C00039000
0000000760039000
0000000060014000
ENDCHAR
STARTCHAR uni092E094D0939
ENCODING -1
SWIDTH 758 0
DWIDTH 12 0
BBX 14 11 -1 -1
BITMAP
2BECBBBBBBCEB3
00B00000001B00
00B00006BBC900
00B0002A000000
00B00047000000
00BCBBCA000000
00B0000ADBB500
0070003A001C00
00000066000600
0000003A000000
00000007BBB800
ENDCHAR
STARTCHAR uni092F094D092F
ENCODING -1
SWIDTH 897 0
DWIDTH 14 0
BBX 16 10 -1 0
BITMAP
2BBCEBBBCECBBEB6
0000920004700C00
0000A30005700C00
00BB8007CA100C00
00C0000930000C00
00B0000830000C00
0094001A90005D00
0019BBB46BBB7C00
0000000000000C00
0000000000000500
ENDCHAR
STARTCHAR uni0930094D092F
ENCODING -1
SWIDTH 713 0
DWIDTH 11 0
BBX 13 10 -1 0
BITMAP
2BBBBBECBBEB60
0000003800C000
0510004800C000
03ABCCA200C000
0000840000C000
0000740000C000
00004A0004E000
000006BBB8C000
0000000000C000
00000000005000
ENDCHAR
STARTCHAR uni0930094D0939
ENCODING -1
SWIDTH 619 0
DWIDTH 10 0
BBX 12 11 -1 -1
BITMAP
2BBBBBBBCDB1
000000004700
030008BBC600
094047000000
01ABD4000000
000067000000
00000DCBB300
000076003A00
000093000600
000077000000
000009BBB600
ENDCHAR
STARTCHAR uni0932094D0915
ENCODING -1
SWIDTH 1182 0
DWIDTH 19 0
BBX 21 10 -1 0
BITMAP
2BBBBBBBBBBBBCDBBBBB10
0000000000000470000000
002AB84BB5AB64ABBB2000
00A306C10C5004B002B000
00B002900B10047000C000
00C002900B10047000C000
00C000000850087002B000
00B20000019BB873BB3000
003BB40000000470000000
0000000000000230000000
ENDCHAR
STARTCHAR uni0932094D0916
ENCODING -1
SWIDTH 1195 0
DWIDTH 19 0
BBX 21 10 -1 0
BITMAP
2BBBBBBBBBBBECBBBCEB30
000000000000A10002A000
002AB83BB500A13B82A000
00A306C10A00C0B202A000
00B0029007CB60C002A000
00C0028001C000B205A000
00C000000058003BB7A000
00B20000000A300002A000
003BB4000002B00002A000
0000000000004200014000
ENDCHAR
STARTCHAR uni0932094D0917
ENCODING -1
SWIDTH 950 0
DWIDTH 15 0
BBX 17 10 -1 0
BITMAP
2BBBBBBBBBECBCEB40
00000000008301B000
002AB94B908301B000
00A306C1008301B000
00B0029000B201B000
00C002904B6001B000
00C00010000001B000
00B20000000001B000
003BB400000001B000
000000000000005000
ENDCHAR
STARTCHAR uni0932094D091C
ENCODING -1
SWIDTH 1035 0
DWIDTH 17 0
BBX 18 10 -1 0
BITMAP
2BBBBBBBBBBBBBBEC8
000000000000000A20
002AB84B80BCCBBE20
00A307C10000B10A20
00B002A00000840A20
00C002900000840A20
00C001400000840A20
00B200000000B10A20
003BB4002BBB600A20
000000000000000510
ENDCHAR
STARTCHAR uni0932094D091F
ENCODING -1
SWIDTH 929 0
DWIDTH 15 0
BBX 17 9 -1 1
BITMAP
2BBBBBBBBBBBBECB10
000000000000093000
002AB94BB69BBC2000
00A306C10B50000000
00B002900B00000000
00C002900C00003000
00C000200C0000A100
00B20000093001C000
003BB40002BBBC4000
ENDCHAR
STARTCHAR uni0932094D0920
ENCODING -1
SWIDTH 953 0
DWIDTH 15 0
BBX 17 9 -1 1
BITMAP
2BBBBBBBBBBBBDDB50
000000000000074000
002AB83BB6ABCE2000
00A306C10C4002B000
00B002900B0000B000
00C002900C0000B100
00C000200C0000B100
00B200000B2001C000
003BB40002BBBC4000
ENDCHAR
STARTCHAR uni0932094D0921
ENCODING -1
SWIDTH 916 0
DWIDTH 15 0
BBX 16 10 -1 0
BITMAP
2BBBBBBBBBBBBEC9
0000000000000930
002AB84BB5BBBC20
00A306C10C200000
00B002900A200000
00C0029003BBBB20
00C0002000000490
00B20000080002A0
003BB4000A644970
0000000001677500
ENDCHAR
STARTCHAR uni0932094D0922
ENCODING -1
SWIDTH 924 0
DWIDTH 15 0
BBX 16 9 -1 1
BITMAP
2BBBBBBBBBBBBECB
0000000000000930
002AB83BB6ABBC20
00A307B11D300000
00B002A00B000000
00C002900B009B70
00C001500B0290B0
00B200000B2010B0
003BB40003BBBC60
ENDCHAR
STARTCHAR uni0932094D0924
ENCODING -1
SWIDTH 929 0
DWIDTH 15 0
BBX 17 10 -1 0
BITMAP
2BBBBBBBBBBBBDDB10
000000000000066000
002AB72BB400066000
00A307A11DDBBD6000
00B002900C10066000
00C002900B00066000
00C001400B00066000
00B200000B00066000
003BB4000B72066000
000000000165033000
ENDCHAR
STARTCHAR uni0932094D0925
ENCODING -1
SWIDTH 1061 0
DWIDTH 17 0
BBX 19 10 -1 0
BITMAP
2BBBBBBB709BC403DB20
0000000001A01B048000
002AB83BB3000B048000
00A306B10A003A048000
00B0029009CBA2048000
00C00290083000048000
00C000200580000A8000
00B20000007BBBB78000
003BB400000000048000
00000000000000024000
ENDCHAR
STARTCHAR uni0932094D0926
ENCODING -1
SWIDTH 939 0
DWIDTH 15 0
BBX 17 10 -1 0
BITMAP
2BBBBBBBBBBBBCEB20
000000000000039000
002AB83BB5ABBC7000
00A306C10B60000000
00B002900B10000000
00C002900A10005000
00C00010085001C000
00B20000019BB9C000
003BB400000000B000
000000000000005000
ENDCHAR
STARTCHAR uni0932094D092A
ENCODING -1
SWIDTH 939 0
DWIDTH 15 0
BBX 17 10 -1 0
BITMAP
2BBBBBBBBECBBCEB20
000000000B10038000
002AB83BBE10038000
00A307C10B10038000
00B002900A10038000
00C002900750078000
00C00140019BB88000
00B200000000038000
003BB4000000038000
000000000000014000
ENDCHAR
STARTCHAR uni0932094D092B
ENCODING -1
SWIDTH 1176 0
DWIDTH 19 0
BBX 20 10 -1 0
BITMAP
2BBBBBBBBECBBDDBBBBB
000000000A1005600000
002AB83BBE10059BBA20
00A307C10A1005A003A0
00B002A00A20066000C0
00C0029006600A6000C0
00C00150009BB96003A0
00B2000000000564BA20
003BB400000005600000
00000000000002300000
ENDCHAR
STARTCHAR uni0932094D092C
ENCODING -1
SWIDTH 949 0
DWIDTH 15 0
BBX 17 10 -1 0
BITMAP
2BBBBBBBBBBBBCEB40
00000000000001B000
002AB94BB79001B000
00A306C10B7801B000
00B002900A2481B000
00C00290092048B000
00C00000077008B000
00B20000009BB7B000
003BB400000001B000
000000000000005000
ENDCHAR
STARTCHAR uni0932094D092D
ENCODING -1
SWIDTH 931 0
DWIDTH 15 0
BBX 17 10 -1 0
BITMAP
2BBBBBBBB800ADDB10
000000000B10056000
002AB83BBE10056000
00A307C10A10056000
00B002900ACBBD6000
00C002900A10056000
00C000300810056000
00B200000000056000
003BB4000000056000
000000000000023000
ENDCHAR
STARTCHAR uni0932094D092E
ENCODING -1
SWIDTH 931 0
DWIDTH 15 0
BBX 17 10 -1 0
BITMAP
2BBBBBBBBECBBDDB10
000000000A10056000
002AB83BBE10056000
00A307C10A10056000
00B002900ACBBD6000
00C002900A10056000
00C000300810056000
00B200000000056000
003BB4000000056000
000000000000023000
ENDCHAR
STARTCHAR uni0932094D092F
ENCODING -1
SWIDTH 1033 0
DWIDTH 17 0
BBX 18 10 -1 0
BITMAP
2BBBBBBBBBBECBBEC8
000000000001A00B10
002ABA5BB912B00B10
00A306C00ACB300B10
00B002900650000B10
00C001600660000B10
00C0000002B1003E10
00B20000005BBB9B10
003BB4000000000B10
000000000000000500
ENDCHAR
STARTCHAR uni0932094D0932
ENCODING -1
SWIDTH 1112 0
DWIDTH 18 0
BBX 19 10 -1 0
BITMAP
2BBBBBBBBBBBBBBBDDB0
00000000000000007500
002AB83BB6AB84BBA500
00A306C10C307B10B500
00B002900B0039007500
00C002900C0029007500
00C000200C0002007500
00B200000B2000007500
003BB40003BB40007500
00000000000000003200
ENDCHAR
STARTCHAR uni0932094D0935
ENCODING -1
SWIDTH 940 0
DWIDTH 15 0
BBX 17 10 -1 0
BITMAP
2BBBBBBBBBBBBCEB30
000000000000039000
002AB84BB5AB739000
00A306C10B60039000
00B002900A20039000
00C002900A20039000
00C000000760079000
00B20000019BB89000
003BB4000000039000
000000000000014000
ENDCHAR
STARTCHAR uni0932094D0938
ENCODING -1
SWIDTH 1068 0
DWIDTH 17 0
BBX 19 10 -1 0
BITMAP
2BBBBBBBBBBCEBBCEB30
000000000002A0029000
002AB84BB402A0029000
00A306C11B0570029000
00B0029009CDBBBC9000
00C0029003A000029000
00C00020009400029000
00B20000001C00029000
003BB400000670029000
00000000000060014000
ENDCHAR
STARTCHAR uni0932094D0939
ENCODING -1
SWIDTH 922 0
DWIDTH 15 0
BBX 16 10 -1 0
BITMAP
2BBBBBBBBBBBBDDA
0000000000000750
002AB83BB6BBBC40
00A307C10B400000
00B0029008400000
00C0029002ECBA10
00C0003009400570
00B200000B000270
003BB40009400000
0000000001ABBB40
ENDCHAR
STARTCHAR uni0933094D092F
ENCODING -1
SWIDTH 1050 0
DWIDTH 17 0
BBX 18 10 -1 0
BITMAP
2BBBBBBBBBBDDBBDDB
000000000000B00750
003BB94BBA20C00750
00B204D106DB500750
00B000B00290000750
00B000B002A0000750
00B204D106E2001C50
003BBA5BBA4ABBA850
000000000000000750
000000000000000320
ENDCHAR
STARTCHAR uni0935094D092F
ENCODING -1
SWIDTH 852 0
DWIDTH 14 0
BBX 15 10 -1 0
BITMAP
2BBBBBBBDDBBEC90
000000001A009300
003BB4001B009300
00B2004CB4009300
00B0004700009300
00B000580000A300
00C2009C1002D300
003BBB74BBB9A300
0000000000009300
0000000000004100
ENDCHAR
STARTCHAR uni0935094D0932
ENCODING -1
SWIDTH 961 0
DWIDTH 15 0
BBX 17 10 -1 0
BITMAP
2BBBBBBBBBBBBBEB60
00000000000000C000
003BB406BB48B9C000
00B2002B00B602E000
00B00047009300C000
00B00057007200C000
00C20097000000C000
003BBB6A000000C000
00000005CA0000C000
000000000000005000
ENDCHAR
STARTCHAR uni0935094D0935
ENCODING -1
SWIDTH 776 0
DWIDTH 12 0
BBX 14 10 -1 0
BITMAP
2BBBBBBBBBBEB7
00000000000C00
003BB406BB0C00
00B2002B000C00
00B00047000C00
00B00057000C00
00C2009B002E00
003BBB65BB8C00
00000000000C00
00000000000500
ENDCHAR
STARTCHAR uni0935094D0939
ENCODING -1
SWIDTH 754 0
DWIDTH 12 0
BBX 14 11 -1 -1
BITMAP
2BBBBBBBBBCEB2
00000000002900
002AB408BBC800
00B20039000000
00B00066000000
00C00039000000
00C0000BDBB400
00B20078001C00
002BBBB5000500
00000049000000
00000007BBB700
ENDCHAR
STARTCHAR uni0936094D0915
ENCODING -1
SWIDTH 1093 0
DWIDTH 17 0
BBX 18 10 0 0
BITMAP
04CBA14BBBBECBBBB7
0B107500000B100000
0A006504BB1B8BB800
0000941C100B500850
4DBB8029000B100470
1C100029000B100470
03A0001C101D100850
00950005BB9B18B800
001C1000000B100000
000330000005000000
ENDCHAR
STARTCHAR uni0936094D091A
ENCODING -1
SWIDTH 950 0
DWIDTH 15 0
BBX 16 10 0 0
BITMAP
06CBA14BBBBBCEB4
0C00750000001B00
0100654BCDB31B00
00009400B1001B00
4DBB8001A0001B00
1C100001A0001B00
03A00000C1005B00
009500003BBB7B00
001C100000001B00
0003300000000500
ENDCHAR
STARTCHAR uni0936094D091B
ENCODING -1
SWIDTH 968 0
DWIDTH 15 0
BBX 16 10 0 0
BITMAP
06CBA05CECBBBEB7
0C00840750000C00
010075093005BC00
0000A30550000A30
4CBB7002DC400750
1C10000860000750
0490000930000750
0094000750000A20
001C1001BBBBC700
0003300000000000
ENDCHAR
STARTCHAR uni0936094D091F
ENCODING -1
SWIDTH 854 0
DWIDTH 14 0
BBX 14 10 0 0
BITMAP
05CBA14BBBBEB9
0B007500000C00
02006502BBBC00
0000940B200000
3DBB800B000000
0C10000B000050
03A0000B0000B0
0095000C1002A0
001C1004CBBB20
00033000000000
ENDCHAR
STARTCHAR uni0936094D0924
ENCODING -1
SWIDTH 864 0
DWIDTH 14 0
BBX 14 10 0 0
BITMAP
04CBA14BBBBDDB
0B107500000660
09006500000660
00009404BBBD60
4DBB800C100660
1C10001B000660
04A0001B000660
0095000B000660
001C100B620660
00033001650330
ENDCHAR
STARTCHAR uni0936094D092E
ENCODING -1
SWIDTH 885 0
DWIDTH 14 0
BBX 15 10 0 0
BITMAP
04CBA15DDBBCEB40
0B1075065001B000
080065065001B000
000094065001B000
3DBB8006DBBCB000
0C1000065001B000
03A000033001B000
009500000001B000
001C10000001B000
0003300000005000
ENDCHAR
STARTCHAR uni0936094D092F
ENCODING -1
SWIDTH 940 0
DWIDTH 15 0
BBX 16 10 0 0
BITMAP
05CBA14BCEBBCEB2
0B10750009203900
060065000A303900
0000940BB8003900
3DBB800C00003900
0C10000B00003900
03A0000950009900
009500019BBB7900
001C100000003900
0003300000001400
ENDCHAR
STARTCHAR uni0936094D0932
ENCODING -1
SWIDTH 1039 0
DWIDTH 17 0
BBX 17 10 0 0
BITMAP
05CBA14BBBBBBBEC90
0B0075000000009200
03006503BB66BAB200
0000940C109A01D200
3DBB801B0057009200
0B10001B0056009200
03A0001B0001009200
0095000C1000009200
001C1005CB20009200
000330000000004100
ENDCHAR
STARTCHAR uni0936094D0935
ENCODING -1
SWIDTH 850 0
DWIDTH 14 0
BBX 14 10 0 0
BITMAP
04CBA14BBBBEC9
0B107500000920
0A006504BB2920
0000940C100920
3DBB802A000920
0C10002A000920
03A0000C101D20
00950004BBAB20
001C1000000920
00033000000410
ENDCHAR
STARTCHAR uni0936094D0936
ENCODING -1
SWIDTH 1009 0
DWIDTH 16 0
BBX 17 10 0 0
BITMAP
05CBA102BBC301EB40
0B107507503A01A000
06006504201A01A000
00009400004901A000
3DBB800CBBA201A000
0C100008500001A000
03A00001C10001A000
009500004A0001A000
001C1000094001A000
000330000150005000
ENDCHAR
STARTCHAR uni0937094D0915
ENCODING -1
SWIDTH 1039 0
DWIDTH 17 0
BBX 18 10 -1 0
BITMAP
2BECBBBBBBBECBBBB9
00A900000008300000
00A39003BB288BB910
00A1280B2008700670
00A1038B0008300290
0085008B0009300290
0019BB6C201C300670
00000004BBAA36B910
000000000008300000
000000000004100000
ENDCHAR
STARTCHAR uni0937094D091F
ENCODING -1
SWIDTH 493 0
DWIDTH 8 0
BBX 10 10 -1 0
BITMAP
2BECBBCEB1
00B9401A00
00B0671A00
0083039A00
003ECBC600
00B2000000
00C0000400
00C0000B00
0088447A00
0005776000
ENDCHAR
STARTCHAR uni0937094D0920
ENCODING -1
SWIDTH 511 0
DWIDTH 8 0
BBX 10 10 -1 0
BITMAP
2BDEFFFFB4
00AFFFFD00
00BFFFFD00
009FFFEB00
002FEEE500
00A3002C00
00B0000B10
00C0000B00
0088447B00
0005776100
ENDCHAR
STARTCHAR uni0937094D0923
ENCODING -1
SWIDTH 980 0
DWIDTH 16 0
BBX 17 10 -1 0
BITMAP
2BECBBBEBBCEBBDCA0
00AA000B001B008300
00A3900B001B008300
00A1390B001B008300
00A1038B001B008300
0085008E2049008300
0019BC73BBA1008300
000000000000008300
000000000000008300
000000000000004100
ENDCHAR
STARTCHAR uni0937094D092A
ENCODING -1
SWIDTH 980 0
DWIDTH 16 0
BBX 17 10 -1 0
BITMAP
2BECBBBEBBCEBBDCA0
00AA000B001B008300
00A3900B001B008300
00A1390B001B008300
00A1038B001B008300
0085008E2049008300
0019BC73BBA1008300
000000000000008300
000000000000008300
000000000000004100
ENDCHAR
STARTCHAR uni0937094D092B
ENCODING -1
SWIDTH 1036 0
DWIDTH 17 0
BBX 18 10 -1 0
BITMAP
2BECBBBEBBBECBBBB8
00A9000C0009200000
00A3800C00098BB900
00A1380C0009700760
00A1047C0009200390
0085008E201D200390
0019BB83BBAA200760
00000000000927B900
000000000009200000
000000000004100000
ENDCHAR
STARTCHAR uni0937094D092E
ENCODING -1
SWIDTH 791 0
DWIDTH 13 0
BBX 14 10 -1 0
BITMAP
2BECBBBEBBBEC9
00A9100C000930
00A3900C000930
00A1290C000930
00A1039EBBBE30
0086009D000930
0019BB6A000930
00000000000930
00000000000930
00000000000410
ENDCHAR
STARTCHAR uni0937094D092F
ENCODING -1
SWIDTH 877 0
DWIDTH 14 0
BBX 16 10 -1 0
BITMAP
2BECBBBBCEBBCEB2
00A9100009203900
00A390000A303900
00A1290BB8003900
00A1029C00003900
0085009E00003900
0019BB6A50009900
000000019BBB7900
0000000000003900
0000000000001400
ENDCHAR
STARTCHAR uni0937094D0935
ENCODING -1
SWIDTH 802 0
DWIDTH 13 0
BBX 14 10 -1 0
BITMAP
2BECBBBBBBBDDB
00A90000000650
00A39002AB4650
00A1290B300650
00A1038C000650
0085008D000650
0019BB6C200A50
00000003BBB950
00000000000650
00000000000320
ENDCHAR
STARTCHAR uni0937094D0937
ENCODING -1
SWIDTH 804 0
DWIDTH 13 0
BBX 15 10 -1 0
BITMAP
2BECBBBFBBBDDB10
00AA000D70056000
00A3900C47056000
00A1390C05656000
00A1038C006B6000
0085008E200B6000
0019BC72BBB96000
0000000000056000
0000000000056000
0000000000023000
ENDCHAR
STARTCHAR uni0938094D0915
ENCODING -1
SWIDTH 1089 0
DWIDTH 17 0
BBX 19 10 -1 0
BITMAP
2BBCEBBBBBBBEBBBBB70
0000C0000000B0000000
0000B0006BB0B7BB7000
00039002C100B4009400
06CDCBBC9000B0005700
01B000039000B0005700
00760001B101E0009400
000C10005BB9C08B8000
000580000000B0000000
00006000000050000000
ENDCHAR
STARTCHAR uni0938094D0916
ENCODING -1
SWIDTH 990 0
DWIDTH 16 0
BBX 17 10 -1 0
BITMAP
2BBCEBBBBEBBBBDDB0
0000C0000C00006600
0000B0000C05B46600
000390002B1B006600
06CDCBDCB339006600
02B00059001C009600
007600094006BB9600
000C1001C100006600
000580005900006600
000060000600003300
ENDCHAR
STARTCHAR uni0938094D091C
ENCODING -1
SWIDTH 970 0
DWIDTH 16 0
BBX 17 10 -1 0
BITMAP
2BBCEBBBBBBBBBEC80
0000C000000000B100
0000B000000000B100
000390000BCCBBE100
06CDCBBB200A10B100
01B00000000830B100
00760000000830B100
000C1000000B10B100
00058000ABB600B100
000060000000005000
ENDCHAR
STARTCHAR uni0938094D091F
ENCODING -1
SWIDTH 844 0
DWIDTH 14 0
BBX 15 10 -1 0
BITMAP
2BBCEBBBBBBBEB80
0000C0000000C000
0000B0004BBBA000
00039000C1000000
06CDCBBC90000000
01B0000390000300
0076000390001A00
000C1001C0005800
000580005CBBA100
0000600000000000
ENDCHAR
STARTCHAR uni0938094D0924
ENCODING -1
SWIDTH 852 0
DWIDTH 14 0
BBX 15 10 -1 0
BITMAP
2BBCEBBBBBBBEC90
0000C00000009200
0000B00000009200
000390008CBBE200
06CDCBBCB0009200
01B0000480009200
0076000480009200
000C100380009200
00058000C5209200
0000600016304100
ENDCHAR
STARTCHAR uni0938094D0925
ENCODING -1
SWIDTH 960 0
DWIDTH 15 0
BBX 17 10 -1 0
BITMAP
2BBCEBB04CB800CB60
0000C000A10A10C000
0000B000A00920C000
00039000000C10C000
06CDCBBCCBB600C000
02B00002900000C000
00760000C10005E000
000C10003BBBB7C000
00058000000000C000
000060000000005000
ENDCHAR
STARTCHAR uni0938094D0926
ENCODING -1
SWIDTH 851 0
DWIDTH 14 0
BBX 15 10 -1 0
BITMAP
2BBCEBBBBBBBEC90
0000C00000009300
0000B0004BBBC200
00039000C1000000
06CDCBBCA0000000
01B00002A0002300
00760000C1007600
000C10004BBBA600
0005800000005600
0000600000002300
ENDCHAR
STARTCHAR uni0938094D092A
ENCODING -1
SWIDTH 857 0
DWIDTH 14 0
BBX 15 10 -1 0
BITMAP
2BBCEBBCEBBBDCA0
0000C000B0008400
0000B000B0008400
00039000B0008400
06CDCBBBB0008400
01B00000A101C400
007600002ABAA400
000C100000008400
0005800000008400
0000600000004200
ENDCHAR
STARTCHAR uni0938094D092B
ENCODING -1
SWIDTH 1092 0
DWIDTH 17 0
BBX 19 10 -1 0
BITMAP
2BBCEBBCEBBBECBBBB70
0000C001B000B1000000
0000B001B000B7BB8000
00039001B000B5009500
06CDCBBBB000B1004700
01B00000A101E1004700
007600002AB9B1008500
000C10000000B18B8000
000580000000B1000000
00006000000050000000
ENDCHAR
STARTCHAR uni0938094D092C
ENCODING -1
SWIDTH 857 0
DWIDTH 14 0
BBX 15 10 -1 0
BITMAP
2BBCEBBBBBBBDCA0
0000C00000008400
0000B0005BB28400
00039001D7008400
06CDCBBC92808400
01B0000290299400
00760000C102E400
000C10004BBAA400
0005800000008400
0000600000004100
ENDCHAR
STARTCHAR uni0938094D092E
ENCODING -1
SWIDTH 850 0
DWIDTH 14 0
BBX 15 10 -1 0
BITMAP
2BBCEBBBEBBBEC90
0000C000C000A200
0000B000C000A200
00039000C000A200
06CDCBBBEBBBE200
02B00000C000A200
00760000A000A200
000C10000000A200
000580000000A200
0000600000005100
ENDCHAR
STARTCHAR uni0938094D092F
ENCODING -1
SWIDTH 920 0
DWIDTH 15 0
BBX 16 10 -1 0
BITMAP
2BBCEBBBBDDBBDCA
0000C00000B00840
0000B00001C00840
00039003CB500840
06CDCBBC80000840
01B0000390000840
00760000B1001D40
000C10003BBBA940
0005800000000840
0000600000000420
ENDCHAR
STARTCHAR uni0938094D0932
ENCODING -1
SWIDTH 1027 0
DWIDTH 16 0
BBX 18 10 -1 0
BITMAP
2BBCEBBBBBBBBBBEB7
0000C0000000000C00
0000B0006BB48B9C00
00039001B00B802E00
06CDCBBC8008400C00
01B000048008400C00
007600048001000C00
000C1002B000000C00
000580007CB0000C00
000060000000000500
ENDCHAR
STARTCHAR uni0938094D0935
ENCODING -1
SWIDTH 842 0
DWIDTH 13 0
BBX 15 10 -1 0
BITMAP
2BBCEBBBBBBBEB70
0000C0000000B000
0000B0006BB0B000
00039002C100B000
06CDCBBC8000B000
01B000048000B000
00760001B001E000
000C10005BB9C000
000580000000B000
0000600000005000
ENDCHAR
STARTCHAR uni0938094D0938
ENCODING -1
SWIDTH 871 0
DWIDTH 14 0
BBX 16 10 -1 0
BITMAP
2BBCEBBBCDBBDDB1
0000C00048004700
0000B00047004700
0003900075004700
06CDCBDCDBBBD700
01B0004800004700
0076000A20004700
000C1002A0004700
0005800094004700
0000600015002300
ENDCHAR
STARTCHAR uni0939094D0923
ENCODING -1
SWIDTH 1136 0
DWIDTH 18 0
BBX 20 14 -1 -4
BITMAP
2BBBBBDCBDDBBECBCEB4
00000084065008301B00
003BBBC3065008301B00
00A30000065008301B00
00930000065009301B00
002ECBA105900B101B00
00950076008BB6001B00
00C00038000000001B00
00B00000000000001B00
00850000000000000500
0019BBB3000000000000
00000400000000000000
00000850000000000000
000000B1000000000000
ENDCHAR
STARTCHAR uni0939094D092E
ENCODING -1
SWIDTH 746 0
DWIDTH 12 0
BBX 14 11 -1 -1
BITMAP
2BBBBBDDBBDDB1
00000075004700
003BBBC4004700
00B20000004700
00A20000004700
003EBBC3004700
00B20065004700
00C0006DBBD700
00C00065004700
00B30032004700
002ABBB2002300
ENDCHAR
STARTCHAR uni0939094D092F
ENCODING -1
SWIDTH 785 0
DWIDTH 13 0
BBX 14 13 -1 -3
BITMAP
2BBBBBDDBBBEC8
00000075000A20
004BBBC4000A20
00B10000000A20
00B10000000A20
004EBBBB800A20
00B20000930A20
00C00000930A20
00C000BB800B20
00C000A2003E20
00A3002ABB9B20
002ABB20000A20
00000000000200
ENDCHAR
STARTCHAR uni0939094D0932
ENCODING -1
SWIDTH 1110 0
DWIDTH 18 0
BBX 19 14 -1 -4
BITMAP
2BBBBBDCBBBBBBBBDDA0
00000084000000007400
003BBBC3000000007400
00A3000003BB95BBA400
009300000B206B00B400
002ECBA10C0038007400
009500670C0013007400
00C000260C1000007400
00B0000004CB40007400
00850000000000003200
0019BBB3000000000000
00000200000000000000
00000A20000000000000
000001B0000000000000
ENDCHAR
STARTCHAR uni0939094D0935
ENCODING -1
SWIDTH 920 0
DWIDTH 15 0
BBX 16 14 -1 -4
BITMAP
2BBBBBDCBBBBBDCA
0000008400000740
003BBBC302AB3740
00A300000B300740
009300000C000740
002ECB900C000740
009500750C000740
00C000380B201C40
00B0001402ABB940
0085000000000320
0019BBB300000000
0000040000000000
00000A3000000000
000001B000000000
ENDCHAR
STARTCHAR uni0915093C094D0915093C
ENCODING -1
SWIDTH 1275 0
DWIDTH 20 0
BBX 22 10 -1 0
BITMAP
2BBBBBECBBBBBBBEBBBBB7
000000930000000B000000
003BB298BB84BB0B7BB700
00C20097007C100C400940
00B000930038000B000560
00B000930038000B000560
00C201C3001C102E000940
003BBAA30005BB9C09B700
000000930000000B000000
0009004100008005000000
ENDCHAR
STARTCHAR uni0915093C094D0924
ENCODING -1
SWIDTH 1016 0
DWIDTH 16 0
BBX 18 10 -1 0
BITMAP
2BBBBBECBBBBBBBEB5
000000930000000C00
003BB298BC90000C00
00C20097007CBBCC00
00B000930076000C00
00B000930092000C00
00C201C30092000C00
003BBAA30093000C00
00000093005B400C00
000900410004710500
ENDCHAR
STARTCHAR uni0915093C094D092B
ENCODING -1
SWIDTH 1246 0
DWIDTH 20 0
BBX 22 10 -1 0
BITMAP
2BBBBBECBBECBBCDBBBBB1
0000009300930048000000
003BB298BBD3004ABBB300
00C200970093004B002B00
00B0009300830048000C00
00B0009300570088000C00
00C201C30008BB88002B00
003BBAA3000000483BB300
0000009300000048000000
0009004100000024000000
ENDCHAR
STARTCHAR uni0915093C094D092B093C
ENCODING -1
SWIDTH 1247 0
DWIDTH 20 0
BBX 22 10 -1 0
BITMAP
2BBBBBECBBECBBCDBBBBB1
0000009300830038000000
003BB298BBD3003ABBB300
00C200970083003C102B00
00B0009300830038000C00
00B0009300570088000C00
00C201C30008BB88002B00
003BBAA3000000383BB300
0000009300000038000000
0009004100063014000000
ENDCHAR
STARTCHAR uni0915093C094D092C
ENCODING -1
SWIDTH 1043 0
DWIDTH 17 0
BBX 18 10 -1 0
BITMAP
2BBBBBECBBBBBBBDCA
000000930000000830
003BB298BB84BB2830
00C20097007D700830
00B000930029480830
00B000930029039930
00C201C3001C102E30
003BBAA30005BBAA30
000000930000000830
000900410000000410
ENDCHAR
STARTCHAR uni0915093C094D092E
ENCODING -1
SWIDTH 998 0
DWIDTH 16 0
BBX 18 10 -1 0
BITMAP
2BBBBBECBBECBBCDB1
000000930092004800
003BB298BBE2004800
00C200970092004800
00B00093009CBBD800
00B000930092004800
00C201C30051004800
003BBAA30000004800
000000930000004800
000900410000002300
ENDCHAR
STARTCHAR uni0916093C094D0924
ENCODING -1
SWIDTH 984 0
DWIDTH 16 0
BBX 17 10 -1 0
BITMAP
2BBBECBBBBBBBBDCA0
0000A1000000008400
0000A13B8000008400
0000C0B2006BBBD400
06CB60C001C1008400
01C000B20290008400
0058003BBC90008400
000A300001A0008400
0001C00000A6208400
000042009016403200
ENDCHAR
STARTCHAR uni0916093C094D092E
ENCODING -1
SWIDTH 965 0
DWIDTH 15 0
BBX 17 10 -1 0
BITMAP
2BBBECBBBCEBBBEB70
0000A100029000C000
0000A13B829000C000
0000C0B2029000C000
06CB60C002EBBBE000
01C000B2049000C000
0058002BBB2000C000
000A3000000000C000
0001C000000000C000
000042009000005000
ENDCHAR
STARTCHAR uni0916093C094D092F
ENCODING -1
SWIDTH 1045 0
DWIDTH 17 0
BBX 18 10 -1 0
BITMAP
2BBBECBBBBBDDBBDCA
0000A1000000B00840
0000A13B8001C00840
0000C0B203CB500840
06CB60C00380000840
01C000B20590000840
0058003BB892001C40
000A3000002ABBA940
0001C0000000000840
000042017000000420
ENDCHAR
STARTCHAR uni0916093C094D0935
ENCODING -1
SWIDTH 972 0
DWIDTH 16 0
BBX 17 10 -1 0
BITMAP
2BBBECBBBBBBBBEC80
0000A100000000A100
0000A13B805BB1A100
0000C0B201C100A100
06CB60C0039000A100
01C000B2059000A100
0058003BB8B101D100
000A3000004BB9B100
0001C000000000A100
000042017000005000
ENDCHAR
STARTCHAR uni0916093C094D0936
ENCODING -1
SWIDTH 1123 0
DWIDTH 18 0
BBX 20 10 -1 0
BITMAP
2BBBECBBB13CBB203DB1
0000A100009205704800
0000A13B805104704800
0000C0B2000007604800
06CB60C009CBB9004800
01C000B2079000004800
0058003BB88400004800
000A3000000B10004800
0001B000000490004800
00004201700060002300
ENDCHAR
STARTCHAR uni0916093C094D0938
ENCODING -1
SWIDTH 1066 0
DWIDTH 17 0
BBX 19 10 -1 0
BITMAP
2BBBECBBBBBCEBBCEB30
0000A100000390039000
0000A13B800390039000
0000C0B2000570039000
05CB60C007CDBBBC9000
01B000B205A000039000
0058003BB87400039000
000A3000000B00039000
0001B000000660039000
00004201700060014000
ENDCHAR
STARTCHAR uni091C093C094D091C093C
ENCODING -1
SWIDTH 934 0
DWIDTH 15 0
BBX 16 10 -1 0
BITMAP
2BBBBBBBBBBBBEB7
0000000000000C00
0000000000000C00
009CDBB18CCBBE00
0000830001B00C00
0000570000920C00
0000570000920C00
0000950001C10C00
05BB800BBB500C00
0072000054000500
ENDCHAR
STARTCHAR uni091C093C094D092F
ENCODING -1
SWIDTH 893 0
DWIDTH 14 0
BBX 16 10 -1 0
BITMAP
2BBBBBBBCEBBBEB5
0000000005600C00
00ACDBB806700C00
0000A20ACA100C00
0000650A20000C00
0000660920000C00
0000650580005C00
0000B3007BBB6C00
06BC700000000C00
0072000000000500
ENDCHAR
STARTCHAR uni092B093C094D091C093C
ENCODING -1
SWIDTH 1100 0
DWIDTH 18 0
BBX 19 10 -1 0
BITMAP
2BECBBDDBBBBBBBBEC90
00A1006600000000A200
00A10069BB44CCBBE200
00A1006A00000A10A200
00A1006600000740A200
008500A600000740A200
0019BB9600000740A200
0000006600000B20A200
00000066009BB600A200
00180033000540005100
ENDCHAR
STARTCHAR uni092B093C094D0924
ENCODING -1
SWIDTH 1036 0
DWIDTH 17 0
BBX 18 10 -1 0
BITMAP
2BECBBDDBBBBBBBEC8
00A100660000000A20
00A10069BB91000A20
00A1006A005CCBBE20
00A10066002B000A20
008500A60047000A20
0019BB960047000A20
000000660048000A20
00000066001C510A20
001700330002730510
ENDCHAR
STARTCHAR uni092B093C094D092B093C
ENCODING -1
SWIDTH 1256 0
DWIDTH 20 0
BBX 22 10 -1 0
BITMAP
2BECBBDDBBDDBBCEBBBBB3
00A100660065001A000000
00A10069BBD5001BABB400
00A1006A0065001D101C00
00A100660066002A000A20
008500A60039006A000A20
0019BB960006BB8A001C00
000000660000001A1BB400
000000660000001A000000
0018003300045005000000
ENDCHAR
STARTCHAR uni092B093C094D0938
ENCODING -1
SWIDTH 1141 0
DWIDTH 18 0
BBX 20 10 -1 0
BITMAP
2BECBBDDBBBBBEBBBEB5
00A1006600000C000C00
00A10069BB700C000C00
00A1006A00A33A000C00
00A10066006DDCBBCC00
008500A6001C00000C00
0019BB96000670000C00
000000660000C1000C00
00000066000049000C00
00180033000006000500
ENDCHAR
STARTCHAR uni092C094D091C093C
ENCODING -1
SWIDTH 883 0
DWIDTH 14 0
BBX 16 10 -1 0
BITMAP
2BBBBBBBBBBBCEB3
0000000000002A00
002BB40000002A00
00B80005BDCBCA00
00C9400003902A00
00C0A20000B02A00
00B01A1000B02A00
00B202A003A02A00
002ABBCCBB202A00
0000000450001500
ENDCHAR
STARTCHAR uni0932094D091C093C
ENCODING -1
SWIDTH 1062 0
DWIDTH 17 0
BBX 18 11 -1 -1
BITMAP
2BBBBBBBBBBBBBBEC8
000000000000000A20
002AB83B80BCCBBE20
00A307C10000B10A20
00B002A00000840A20
00C002900000840A20
00C001400000840A20
00B200000000B10A20
003BB4002BBB600A20
000000000000000510
000000000090000000
ENDCHAR
STARTCHAR uni0936094D0915093C
ENCODING -1
SWIDTH 1093 0
DWIDTH 17 0
BBX 18 10 0 0
BITMAP
04CBA14BBBBECBBBB7
0B107500000B100000
0A006504BB1B7BB800
0000941C100B500850
4DBB8029000B100470
1C100029000B100470
03A0001C101D100850
00950005BB9B18B800
001C1000000B100000
000330008005000000
ENDCHAR
STARTCHAR uni0924094D0924094D
ENCODING -1
SWIDTH 309 0
DWIDTH 5 0
BBX 8 10 -1 0
BITMAP
2BBBBBB7
00000000
00000000
05BDCBB7
001B0000
00380000
00480000
00380000
001C5200
00016300
ENDCHAR
STARTCHAR uni0928094D092D094D
ENCODING -1
SWIDTH 505 0
DWIDTH 8 0
BBX 11 8 -1 2
BITMAP
2BBBBC400B90
000001B00000
000000B00000
000000C00000
01BBBBD00000
057000DBBB90
037000C00000
000000200000
ENDCHAR
STARTCHAR uni0928094D0938094D
ENCODING -1
SWIDTH 635 0
DWIDTH 10 0
BBX 13 10 -1 0
BITMAP
2BBBBBBBCDBBB0
00000000480000
00000000480000
00ACBC80660000
049000BCDBBBB0
02900049000000
0000000A300000
00000002B00000
00000000850000
00000000150000
ENDCHAR
STARTCHAR uni092E094D092D094D
ENCODING -1
SWIDTH 533 0
DWIDTH 9 0
BBX 12 8 -1 2
BITMAP
2BECBBA007B2
00B000850000
00B000660000
00B000660000
00B000660000
00BCBBDDBBB2
00B000660000
002000110000
ENDCHAR
STARTCHAR uni0932094D092D094D
ENCODING -1
SWIDTH 694 0
DWIDTH 11 0
BBX 14 9 -1 1
BITMAP
2BBBBBBBB800AA
000000000B1000
002AB83BBE1000
00A307C10A1000
00B002900ACBBA
00C002900A1000
00C00030081000
00B20000000000
003BB400000000
ENDCHAR
STARTCHAR uni0938094D0924094D0930094D
ENCODING -1
SWIDTH 575 0
DWIDTH 9 0
BBX 13 10 -1 0
BITMAP
2BBCEBBBBB9000
0000C000000000
0000B003BBB500
0003900B200A10
06CDCBBA000730
01B00000000740
00760000007900
000C10001A7000
00058002B40000
00006006200000
ENDCHAR
STARTCHAR uni0915094D0924094D092F
ENCODING -1
SWIDTH 1356 0
DWIDTH 22 0
BBX 23 10 -1 0
BITMAP
2BBBBBECBBBBBBBBDDBBDCA0
00000093000000000B008300
003BB298BB9100001C008300
00C20097006CBBCCB4008300
00B000930067004800008300
00B000930083003800009300
00C201C30083001C1001D300
003BBAA300840003BBBA9300
00000093004B400000008300
000000410003710000004100
ENDCHAR
STARTCHAR uni0915094D0924094D0930
ENCODING -1
SWIDTH 997 0
DWIDTH 16 0
BBX 18 10 -1 0
BITMAP
2BBBBBECBBBBBBCDB1
000000930000004700
00320099117BBB9700
00A0009300B2009700
00B0009300C0005700
00C000930060007700
00C201C3000008C700
003BBAA30001A74700
00000093002B404700
000000410052002300
ENDCHAR
STARTCHAR uni0915094D0924094D0935
ENCODING -1
SWIDTH 1242 0
DWIDTH 20 0
BBX 22 10 -1 0
BITMAP
2BBBBBECBBBBBBBBBBDDB1
0000009300000000005600
003BB298BC90001AB55600
00C20097009CBBE3005600
00B0009300C100B0005600
00B0009301B000C0005600
00C201C301B000B3009600
003BBAA301B0002ABB9600
0000009300B62000005600
0000004100165000002300
ENDCHAR
STARTCHAR uni0915094D092A094D0930
ENCODING -1
SWIDTH 1007 0
DWIDTH 16 0
BBX 18 10 -1 0
BITMAP
2BBBBBECBBECBBCEB3
002BB29300A2002A00
00B20098BBE2002A00
00B0009700A2002A00
00B000930085005A00
00B00093001ABDAA00
00B201C300002A2A00
002BBAA30001B12A00
00000093000A302A00
000000410024001500
ENDCHAR
STARTCHAR uni0915094D0935094D092F
ENCODING -1
SWIDTH 1384 0
DWIDTH 22 0
BBX 24 10 -1 0
BITMAP
2BBBBBECBBBBBBBBCEBBCEB4
000000930000000007401A00
003BB298BB88BA0008401A00
00C200970078000AB9001A00
00B000930074000C00001A00
00B000930074000C00002A00
00C201C30048002E60007A00
003BBAA30008BBB39CBB6A00
000000930000000000001A00
000000410000000000000500
ENDCHAR
STARTCHAR uni0915094D0938094D091F
ENCODING -1
SWIDTH 1376 0
DWIDTH 22 0
BBX 24 10 -1 0
BITMAP
2BBBBBECBBBBBEBBBBBBDDB2
0000009300000C0000007500
003BB298BB900B0009BBC400
00C2009700761B0067000000
00B00093003ECCBBE2000000
00B00093000B1000A2000310
00C201C300049000A2000830
003BBAA30000A30075000B10
0000009300002B001ABBC600
000000410000051000000000
ENDCHAR
STARTCHAR uni0915094D0938094D0921
ENCODING -1
SWIDTH 1388 0
DWIDTH 22 0
BBX 24 10 -1 0
BITMAP
2BBBBBECBBBBBEBBBBBBBEB4
0000009300000C0000000B00
003BB298BB900B0008BBB900
00C2009700761B002A000000
00B00093003ECCBBCA000000
00B00093000B100006BBB800
00C201C30004900000000A20
003BBAB30000A30036000930
0000009300002B001C444C10
000000410000051003787300
ENDCHAR
STARTCHAR uni0915094D0938094D0924
ENCODING -1
SWIDTH 1423 0
DWIDTH 23 0
BBX 24 10 -1 0
BITMAP
2BBBBBECBBBBBEBBBBBBBDDA
0000009300000C0000000740
003BB298BB900B0000000740
00C2009700761B0007CBBD40
00B00093003ECCBBBD100740
00B00093000B10002A000740
00C201C3000490002A000740
003BBAA30000A3001A000740
0000009300002B000B620740
000000410000051001640320
ENDCHAR
STARTCHAR uni0915094D0938094D092A094D0930
ENCODING -1
SWIDTH 1437 0
DWIDTH 23 0
BBX 25 10 -1 0
BITMAP
2BBBBBECBBBBBEBBBECBBCDB20
002BB298BB700C000B00048000
00B2009700930B000B00048000
00B0009300471B000B00048000
00B00093003ECCBBBE40078000
00B00093000B100003BBDA8000
00B201C3000490000003948000
002BBAA30000A300002B148000
0000009300002B0000B2048000
00000041000005100330014000
ENDCHAR
STARTCHAR uni0915094D0938094D092A094D0932
ENCODING -1
SWIDTH 1866 0
DWIDTH 30 0
BBX 31 10 -1 0
BITMAP
2BBBBBECBBBBBEBBBECBBBBBBBBBDDB0
0000009300000C000B00000000006600
003BB298BB900B000B0001AB93BB9600
00C2009700761B000B0009306D10A600
00B00093003ECCBBBE100B002A006600
00B00093000B100007501C001A006600
00C201C300049000009BBD0004006600
003BBAA30000A30000000B2000006600
0000009300002B00000003BB50006600
00000041000005100000000000003300
ENDCHAR
STARTCHAR uni0917094D0927094D092F
ENCODING -1
SWIDTH 1156 0
DWIDTH 19 0
BBX 20 10 -1 0
BITMAP
2BBEBBCEB16BBECBBEC8
000C0074000002900B10
000C0085000003A00B10
000C001DC705CB300B10
002C0056000750000B10
07B30093000650000C10
000000760004B1003E10
0000001ABBB95BBB8B10
00000000000000000B10
00000000000000000500
ENDCHAR
STARTCHAR uni0917094D0927094D0935
ENCODING -1
SWIDTH 1084 0
DWIDTH 17 0
BBX 19 10 -1 0
BITMAP
2BBEBBCEB16BBBBBEB60
000C008400000000B000
000C007500007BA0B000
000C001DC704A000B000
002C006600066000B000
07B3009300066000B000
000000760005A003D000
00000019BBB96BB8B000
0000000000000000B000
00000000000000005000
ENDCHAR
STARTCHAR uni0917094D0928094D092F
ENCODING -1
SWIDTH 1069 0
DWIDTH 17 0
BBX 19 10 -1 0
BITMAP
2BBEBBBBBBBCEBBCEB30
000C0000000083029000
000C0000000093029000
000C009CBBDB80029000
002C01B000B000029000
07B3009000B000029000
00000000008500089000
000000000019BBB69000
00000000000000029000
00000000000000014000
ENDCHAR
STARTCHAR uni0917094D092D094D092F
ENCODING -1
SWIDTH 1102 0
DWIDTH 18 0
BBX 19 10 -1 0
BITMAP
2BBEBBB106BBDDBBEC90
000C006600001A009200
000C004700001B009200
000C0047004CB4009200
002C004DBBC700009200
07B3004700470000A200
00000034001B1002D200
000000000004BBB9A200
00000000000000009200
00000000000000004100
ENDCHAR
STARTCHAR uni0917094D0930094D092F
ENCODING -1
SWIDTH 817 0
DWIDTH 13 0
BBX 15 10 -1 0
BITMAP
2BBEBBBCEBBCEB30
000C000093039000
000C0000A3039000
000C00BB80039000
002C00C000039000
07B300C000039000
0000009500099000
00000019BCE89000
000000002A339000
00000004A1014000
ENDCHAR
STARTCHAR uni091A094D091B094D0935
ENCODING -1
SWIDTH 913 0
DWIDTH 15 0
BBX 16 12 -1 -2
BITMAP
2BBBBBBBFCBBBEC9
0000000480000C00
000000066003BD00
07BCCB1390000740
001B0000BC500470
0047000490000480
0047000660000470
001B100890000930
0005BBB6ADBBBE00
00000000B1000B00
00000000C1001C00
000000004BBBB300
ENDCHAR
STARTCHAR uni091C094D091C094D091E
ENCODING -1
SWIDTH 945 0
DWIDTH 15 0
BBX 17 10 -1 0
BITMAP
2BBBBBBBBBBBBCEB40
00000000000002A000
00000001ABBBBCA000
009CDBBD300002A000
0000930A300002A000
00005703BBBA12A000
0000570B000572A000
0000940B300482A000
05BB800BEBBB22A000
0000000B0000015000
ENDCHAR
STARTCHAR uni091C094D091C094D092F
ENCODING -1
SWIDTH 1252 0
DWIDTH 20 0
BBX 22 10 -1 0
BITMAP
2BBBBBBBBBBBBBCEBBCEB2
0000000000000009203900
000000000000000A303900
009CDBB07DCBCDB8003900
0000840001B00C00003900
0000470000B00C00003900
0000470000B00A50009900
0000850001C0019BBB7900
05BB900BBB400000003900
0000000000000000001400
ENDCHAR
STARTCHAR uni091C094D091C094D0935
ENCODING -1
SWIDTH 1243 0
DWIDTH 20 0
BBX 20 10 -1 0
BITMAP
2BBBBBBBBBBBBBBBBDDB
00000000000000000650
00000000000001AB4650
009CDBB07DCBBE200650
0000840001B00B000650
0000470000B00C000650
0000470000B00B200A50
0000850001C003BBB950
05BB900BBB4000000650
00000000000000000320
ENDCHAR
STARTCHAR uni0924094D0915094D092F
ENCODING -1
SWIDTH 1346 0
DWIDTH 22 0
BBX 23 10 -1 0
BITMAP
2BBBBBBBBBCDBBBBECBBEC80
00000000004800001900B100
00000009B64800002A00B100
003BBBD50049ABCCB300B100
00B200A1004B00660000B100
00C000B1004800660000B100
00C000950088002B1003E100
00C0001ABB880005BBB9B100
00A73000004800000000B100
000560000023000000005000
ENDCHAR
STARTCHAR uni0924094D0915094D0930
ENCODING -1
SWIDTH 995 0
DWIDTH 16 0
BBX 18 10 -1 0
BITMAP
2BBBBBBBBBCDBBBBB1
000000000048000000
00000009B64AABB200
003BBBD5004B002B00
00B200A10048000C00
00C000B10048000C00
00C000950088002B00
00C0001ABDA83BB300
00A730008648000000
000560086023000000
ENDCHAR
STARTCHAR uni0924094D0915094D0935
ENCODING -1
SWIDTH 1282 0
DWIDTH 21 0
BBX 22 10 -1 0
BITMAP
2BBBBBBBBBCDBBBBBBBEC8
0000000000480000000B10
00000009B64AABA6BB1B10
003BBBD5004B004C100B10
00B200A100480039000B10
00C000A100480039000B10
00C000850088001C001E10
00C0001ABB880005BBAC10
00A7300000480000000B10
0005600000240000000500
ENDCHAR
STARTCHAR uni0924094D0915094D0937
ENCODING -1
SWIDTH 943 0
DWIDTH 15 0
BBX 17 10 -1 0
BITMAP
2BBBBB81BBC402EB30
00000007500B029000
000000056019029000
003BBB97ECDCBC9000
00C200690000029000
00C000470005029000
00C00049002C029000
00C00008BB9C029000
00A73000000C029000
000650000005014000
ENDCHAR
STARTCHAR uni0924094D0916094D0930
ENCODING -1
SWIDTH 1008 0
DWIDTH 16 0
BBX 18 10 -1 0
BITMAP
2BBBBBBBBECBBBCEB3
000000000B10001A00
003BBB700B13B81A00
00B200A10C0B201A00
00C0008CB50C001A00
00C0002C000B205A00
00C000068003BCBA00
00C00000B3001A2A00
009830002B00A31A00
000550000426600500
ENDCHAR
STARTCHAR uni0924094D0924094D092F
ENCODING -1
SWIDTH 888 0
DWIDTH 14 0
BBX 16 10 -1 0
BITMAP
2BBBBBBBCEBBCEB4
0000000006500B00
05BDCBB407500B00
001B000DBA100B00
0038000B00000B00
0048000A10001B00
0048000680007B00
003900007BBB6B00
000C620000000B00
0001630000000500
ENDCHAR
STARTCHAR uni0924094D0924094D0935
ENCODING -1
SWIDTH 788 0
DWIDTH 13 0
BBX 14 10 -1 0
BITMAP
2BBBBBBBBBBEC9
00000000000920
00000004BB2920
05BDCBBD100920
001B002A000920
0038002A000920
0048000C101D20
00380004BBAA20
001C5200000920
00016300000410
ENDCHAR
STARTCHAR uni0924094D0928094D092F
ENCODING -1
SWIDTH 1098 0
DWIDTH 18 0
BBX 19 10 -1 0
BITMAP
2BBBBBBBBBBBECBBEC80
0000000000001A00A100
003BBBA100002B00A100
00B2007EBBCCB300A100
00B0009400660000A100
00C0007400560000A100
00C00001002B1002E100
00C000000004BBB9B100
0098300000000000A100
00055000000000005000
ENDCHAR
STARTCHAR uni0924094D092A094D0930
ENCODING -1
SWIDTH 763 0
DWIDTH 12 0
BBX 14 10 -1 0
BITMAP
2BBBBBDCBBBEB4
00000084000B00
003BBBD4000B00
00B20084000B00
00B00067004B00
00C00009BCAB00
00C000001A1B00
00C00000A20B00
00983009400B00
00055015000500
ENDCHAR
STARTCHAR uni0924094D092A094D0932
ENCODING -1
SWIDTH 1219 0
DWIDTH 20 0
BBX 21 10 -1 0
BITMAP
2BBBBBDCBBBBBBBBBBEC80
000000830000000000B100
000000830004BB34B9C100
003BBBD3000B108801E100
00B200830029007500B100
00C000670059007400B100
00C00008BBA9003200B100
00C00000001C000000B100
00A730000006CB1000B100
0005500000000000005000
ENDCHAR
STARTCHAR uni0924094D092E094D092F
ENCODING -1
SWIDTH 1096 0
DWIDTH 18 0
BBX 19 10 -1 0
BITMAP
2BBBBBDCBBBBECBBEC80
0000008300002A00B100
0000008300002A00B100
003BBBD3005CB300B100
00B2008CBBD60000B100
00C0008300660000B100
00C00062002B1003E100
00C000000005BBB9B100
00A7300000000000B100
00055000000000005000
ENDCHAR
STARTCHAR uni0924094D0930094D092F
ENCODING -1
SWIDTH 848 0
DWIDTH 14 0
BBX 15 10 -1 0
BITMAP
2BBBBBBBECBBEC80
000000001A00A100
003BBB801B00A100
00C100ACB400A100
00C000660000A100
003000770000A100
000007AC1002E100
0001A704BBB9A100
002B40000000A100
0052000000005000
ENDCHAR
STARTCHAR uni0924094D0938094D092F
ENCODING -1
SWIDTH 1234 0
DWIDTH 20 0
BBX 21 10 -1 0
BITMAP
2BBBBBBBBEBBBBDDBBDCA0
000000000C00000B008400
003BBB900C00001C008400
00B200651B002CB5008400
00C0004DDCBBC900008400
00C0000B10002900008400
00C0000490000B2001C400
00C00000A30003ABBA9400
009830002B000000008400
0005500005100000003200
ENDCHAR
STARTCHAR uni0924094D0938094D0935
ENCODING -1
SWIDTH 1155 0
DWIDTH 18 0
BBX 20 10 -1 0
BITMAP
2BBBBBBBBEBBBBBBBEB7
000000000C0000000B00
003BBB900C0005100B00
00B200651B0029000B00
00C0003DDCBBC8000B00
00C0000B100048000B00
00C0000490001C102E00
00C00000A30005BB9C00
009830002B0000000B00
00055000051000000500
ENDCHAR
ENDFONT
